1488  1
    1      1    13     2    1     1695     -1
    2      2    13    14    1     2466     -1
    3      2    14     3    1     1431     -1
    4      3    14    15    1       62     -1
    5      3    15     4    1     2223     -1
    6      4    15    16    1     1963     -1
    7      4    16     5    1     2207     -1
    8      5    16    17    1      331     -1
    9      5    17     6    1     1444     -1
   10      6    17    18    1     2172     -1
   11      6    18     7    1      172     -1
   12     18    19     8    1     2221     -1
   13     18     8     7    1     2220     -1
   14     19    20     9    1      606     -1
   15     19     9     8    1     1288     -1
   16     20    21    10    1     2117     -1
   17     20    10     9    1     2114     -1
   18     21    22    11    1     2290     -1
   19     21    11    10    1      733     -1
   20     22    23    12    1     1723     -1
   21     22    12    11    1     2209     -1
   22     12    23   266    1      767     -1
   23      1    24    13    1     1690     -1
   24     13    24    25    1     1188     -1
   25     13    25    14    1     1905     -1
   26     14    25    26    1     2282     -1
   27     14    26    15    1     1685     -1
   28     15    26    27    1      440     -1
   29     15    27    16    1     1449     -1
   30     16    27    28    1     1170     -1
   31     16    28    17    1      614     -1
   32     17    28    29    1      458     -1
   33     17    29    18    1      469     -1
   34     29    30    19    1     1435     -1
   35     29    19    18    1      239     -1
   36     30    31    20    1     2353     -1
   37     30    20    19    1     1232     -1
   38     31    32    21    1     1321     -1
   39     31    21    20    1     2194     -1
   40     32    33    22    1      744     -1
   41     32    22    21    1      780     -1
   42     33    34    23    1      281     -1
   43     33    23    22    1      714     -1
   44     23    34   266    1      759     -1
   45      1    35    24    1     1796     -1
   46     35    36    25    1     1604     -1
   47     35    25    24    1      114     -1
   48     36    37    26    1     1497     -1
   49     36    26    25    1      158     -1
   50     37    38    27    1      522     -1
   51     37    27    26    1      517     -1
   52     38    39    28    1      428     -1
   53     38    28    27    1      531     -1
   54     39    40    29    1     2169     -1
   55     39    29    28    1     2411     -1
   56     29    40    41    1      530     -1
   57     29    41    30    1      552     -1
   58     30    41    42    1      526     -1
   59     30    42    31    1     2087     -1
   60     31    42    43    1      856     -1
   61     31    43    32    1      730     -1
   62     32    43    44    1     1205     -1
   63     32    44    33    1      138     -1
   64     33    44    45    1      920     -1
   65     33    45    34    1     1351     -1
   66     34    45   266    1      989     -1
   67      1    46    35    1     1754     -1
   68     46    47    36    1     2253     -1
   69     46    36    35    1      492     -1
   70     47    48    37    1     2556     -1
   71     47    37    36    1      353     -1
   72     48    49    38    1      356     -1
   73     48    38    37    1      319     -1
   74     49    50    39    1     1992     -1
   75     49    39    38    1      160     -1
   76     50    51    40    1      577     -1
   77     50    40    39    1      562     -1
   78     40    51    52    1      405     -1
   79     40    52    41    1     2166     -1
   80     41    52    53    1      209     -1
   81     41    53    42    1      379     -1
   82     42    53    54    1      401     -1
   83     42    54    43    1     2295     -1
   84     43    54    55    1     2529     -1
   85     43    55    44    1      501     -1
   86     44    55    56    1      814     -1
   87     44    56    45    1      894     -1
   88     45    56   266    1      988     -1
   89      1    57    46    1     1754     -1
   90     57    58    47    1     1615     -1
   91     57    47    46    1     1306     -1
   92     58    59    48    1      280     -1
   93     58    48    47    1     1108     -1
   94     59    60    49    1     2467     -1
   95     59    49    48    1      245     -1
   96     60    61    50    1       40     -1
   97     60    50    49    1      127     -1
   98     61    62    51    1       54     -1
   99     61    51    50    1      326     -1
  100     51    62    63    1       48     -1
  101     51    63    52    1     1005     -1
  102     52    63    64    1      338     -1
  103     52    64    53    1      507     -1
  104     53    64    65    1     2276     -1
  105     53    65    54    1     2033     -1
  106     54    65    66    1       24     -1
  107     54    66    55    1      908     -1
  108     55    66    67    1      649     -1
  109     55    67    56    1      815     -1
  110     56    67   266    1      988     -1
  111      1    68    57    1     1409     -1
  112     57    68    69    1     2545     -1
  113     57    69    58    1      740     -1
  114     58    69    70    1     2255     -1
  115     58    70    59    1      233     -1
  116     59    70    71    1     2366     -1
  117     59    71    60    1     2132     -1
  118     60    71    72    1      775     -1
  119     60    72    61    1       65     -1
  120     61    72    73    1     1680     -1
  121     61    73    62    1      426     -1
  122     73    74    63    1      887     -1
  123     73    63    62    1      535     -1
  124     74    75    64    1     2480     -1
  125     74    64    63    1     2023     -1
  126     75    76    65    1      756     -1
  127     75    65    64    1     2032     -1
  128     76    77    66    1      751     -1
  129     76    66    65    1     2563     -1
  130     77    78    67    1      452     -1
  131     77    67    66    1     1052     -1
  132     67    78   266    1      982     -1
  133      1    79    68    1     1409     -1
  134     68    79    80    1     1799     -1
  135     68    80    69    1     1979     -1
  136     69    80    81    1     1484     -1
  137     69    81    70    1     1405     -1
  138     70    81    82    1     2130     -1
  139     70    82    71    1     2232     -1
  140     71    82    83    1      103     -1
  141     71    83    72    1      372     -1
  142     72    83    84    1     2470     -1
  143     72    84    73    1      378     -1
  144     84    85    74    1     2438     -1
  145     84    74    73    1     1373     -1
  146     85    86    75    1      335     -1
  147     85    75    74    1     2439     -1
  148     86    87    76    1     2478     -1
  149     86    76    75    1     2477     -1
  150     87    88    77    1     2627     -1
  151     87    77    76    1     2071     -1
  152     88    89    78    1     1058     -1
  153     88    78    77    1     1053     -1
  154     78    89   266    1      982     -1
  155      1    90    79    1     1106     -1
  156     79    90    91    1     1762     -1
  157     79    91    80    1     2624     -1
  158     80    91    92    1      933     -1
  159     80    92    81    1       23     -1
  160     81    92    93    1     1737     -1
  161     81    93    82    1      113     -1
  162     82    93    94    1      886     -1
  163     82    94    83    1      366     -1
  164     83    94    95    1      314     -1
  165     83    95    84    1     2380     -1
  166     95    96    85    1      309     -1
  167     95    85    84    1      395     -1
  168     96    97    86    1      365     -1
  169     96    86    85    1     2504     -1
  170     97    98    87    1      866     -1
  171     97    87    86    1      299     -1
  172     98    99    88    1       29     -1
  173     98    88    87    1     2070     -1
  174     99   100    89    1      970     -1
  175     99    89    88    1     2103     -1
  176     89   100   266    1      872     -1
  177      1   101    90    1     1808     -1
  178    101   102    91    1     1879     -1
  179    101    91    90    1     1780     -1
  180    102   103    92    1      204     -1
  181    102    92    91    1     1858     -1
  182    103   104    93    1     1749     -1
  183    103    93    92    1      210     -1
  184    104   105    94    1      228     -1
  185    104    94    93    1       57     -1
  186    105   106    95    1      277     -1
  187    105    95    94    1     2299     -1
  188     95   106   107    1     1707     -1
  189     95   107    96    1      325     -1
  190     96   107   108    1      264     -1
  191     96   108    97    1      322     -1
  192     97   108   109    1     1379     -1
  193     97   109    98    1     1914     -1
  194     98   109   110    1      148     -1
  195     98   110    99    1     2180     -1
  196     99   110   111    1     1733     -1
  197     99   111   100    1      574     -1
  198    100   111   266    1       21     -1
  199      1   112   101    1     1809     -1
  200    112   113   102    1     2067     -1
  201    112   102   101    1     2026     -1
  202    113   114   103    1     1584     -1
  203    113   103   102    1     1792     -1
  204    114   115   104    1      536     -1
  205    114   104   103    1     2473     -1
  206    115   116   105    1      279     -1
  207    115   105   104    1     1021     -1
  208    116   117   106    1      931     -1
  209    116   106   105    1       45     -1
  210    106   117   118    1       51     -1
  211    106   118   107    1      809     -1
  212    107   118   119    1      943     -1
  213    107   119   108    1      323     -1
  214    108   119   120    1     2016     -1
  215    108   120   109    1      786     -1
  216    109   120   121    1     1077     -1
  217    109   121   110    1     1344     -1
  218    110   121   122    1     1678     -1
  219    110   122   111    1      315     -1
  220    111   122   266    1      876     -1
  221      1   123   112    1     1809     -1
  222    123   124   113    1     2025     -1
  223    123   113   112    1     1550     -1
  224    124   125   114    1     2395     -1
  225    124   114   113    1     2195     -1
  226    125   126   115    1     1712     -1
  227    125   115   114    1     2476     -1
  228    126   127   116    1      205     -1
  229    126   116   115    1     1926     -1
  230    127   128   117    1      979     -1
  231    127   117   116    1     1916     -1
  232    117   128   129    1     1851     -1
  233    117   129   118    1     2096     -1
  234    118   129   130    1      657     -1
  235    118   130   119    1     1940     -1
  236    119   130   131    1      963     -1
  237    119   131   120    1     1904     -1
  238    120   131   132    1      757     -1
  239    120   132   121    1     2526     -1
  240    121   132   133    1     2100     -1
  241    121   133   122    1     1438     -1
  242    122   133   266    1      876     -1
  243      1   134   123    1     1602     -1
  244    123   134   135    1     1764     -1
  245    123   135   124    1     1887     -1
  246    124   135   136    1     2234     -1
  247    124   136   125    1     1275     -1
  248    125   136   137    1     2369     -1
  249    125   137   126    1     2370     -1
  250    126   137   138    1     2505     -1
  251    126   138   127    1     1929     -1
  252    127   138   139    1      256     -1
  253    127   139   128    1     1342     -1
  254    139   140   129    1      945     -1
  255    139   129   128    1     1927     -1
  256    140   141   130    1     2417     -1
  257    140   130   129    1     1596     -1
  258    141   142   131    1     1141     -1
  259    141   131   130    1     2167     -1
  260    142   143   132    1     2014     -1
  261    142   132   131    1     1954     -1
  262    143   144   133    1     1036     -1
  263    143   133   132    1     2101     -1
  264    133   144   266    1      996     -1
  265      1   145   134    1     1602     -1
  266    134   145   146    1      226     -1
  267    134   146   135    1     1881     -1
  268    135   146   147    1     1876     -1
  269    135   147   136    1     1898     -1
  270    136   147   148    1     1747     -1
  271    136   148   137    1       35     -1
  272    137   148   149    1     1576     -1
  273    137   149   138    1     1983     -1
  274    138   149   150    1     2141     -1
  275    138   150   139    1      971     -1
  276    150   151   140    1     1094     -1
  277    150   140   139    1     2534     -1
  278    151   152   141    1      307     -1
  279    151   141   140    1     1127     -1
  280    152   153   142    1      175     -1
  281    152   142   141    1      591     -1
  282    153   154   143    1      855     -1
  283    153   143   142    1     2518     -1
  284    154   155   144    1     2374     -1
  285    154   144   143    1     2375     -1
  286    144   155   266    1      996     -1
  287      1   156   145    1     1810     -1
  288    145   156   157    1     2604     -1
  289    145   157   146    1     2407     -1
  290    146   157   158    1     1873     -1
  291    146   158   147    1     1835     -1
  292    147   158   159    1     1766     -1
  293    147   159   148    1     2048     -1
  294    148   159   160    1     1742     -1
  295    148   160   149    1     1095     -1
  296    149   160   161    1     2137     -1
  297    149   161   150    1      250     -1
  298    161   162   151    1      965     -1
  299    161   151   150    1     1233     -1
  300    162   163   152    1      147     -1
  301    162   152   151    1     2339     -1
  302    163   164   153    1     1153     -1
  303    163   153   152    1     1748     -1
  304    164   165   154    1      188     -1
  305    164   154   153    1     2398     -1
  306    165   166   155    1      843     -1
  307    165   155   154    1     1035     -1
  308    155   166   266    1      487     -1
  309      1   167   156    1     1814     -1
  310    167   168   157    1     1713     -1
  311    167   157   156    1     1849     -1
  312    168   169   158    1     2324     -1
  313    168   158   157    1     2323     -1
  314    169   170   159    1      151     -1
  315    169   159   158    1     1075     -1
  316    170   171   160    1     1385     -1
  317    170   160   159    1     1156     -1
  318    171   172   161    1     1984     -1
  319    171   161   160    1     1652     -1
  320    161   172   173    1     1203     -1
  321    161   173   162    1     1274     -1
  322    162   173   174    1     2333     -1
  323    162   174   163    1      171     -1
  324    163   174   175    1     1293     -1
  325    163   175   164    1     2553     -1
  326    164   175   176    1      623     -1
  327    164   176   165    1     2134     -1
  328    165   176   177    1     2343     -1
  329    165   177   166    1      804     -1
  330    166   177   266    1     1012     -1
  331      1   178   167    1     1813     -1
  332    178   179   168    1     2354     -1
  333    178   168   167    1     1867     -1
  334    179   180   169    1     2163     -1
  335    179   169   168    1     1811     -1
  336    180   181   170    1     2148     -1
  337    180   170   169    1     1989     -1
  338    181   182   171    1     1928     -1
  339    181   171   170    1      181     -1
  340    172   171   182    1     1430     -1
  341    172   182   183    1      479     -1
  342    172   183   184    1     1211     -1
  343    172   184   173    1     2198     -1
  344    173   184   185    1     2308     -1
  345    173   185   174    1     1158     -1
  346    174   185   186    1     2157     -1
  347    174   186   175    1      656     -1
  348    175   186   187    1      599     -1
  349    175   187   176    1     1935     -1
  350    176   187   188    1     1025     -1
  351    176   188   177    1      998     -1
  352    177   188   266    1     1011     -1
  353      1   189   178    1     1813     -1
  354    189   190   179    1     2347     -1
  355    189   179   178    1     1540     -1
  356    190   191   180    1     2165     -1
  357    190   180   179    1      760     -1
  358    191   192   181    1     2377     -1
  359    191   181   180    1     2149     -1
  360    192   193   182    1     1386     -1
  361    192   182   181    1     2086     -1
  362    193   194   183    1     1198     -1
  363    193   183   182    1     1389     -1
  364    183   194   195    1     1485     -1
  365    183   195   184    1     1219     -1
  366    184   195   196    1     2426     -1
  367    184   196   185    1      709     -1
  368    185   196   197    1      152     -1
  369    185   197   186    1      555     -1
  370    186   197   198    1      747     -1
  371    186   198   187    1     2463     -1
  372    187   198   199    1      817     -1
  373    187   199   188    1     2373     -1
  374    188   199   266    1     1011     -1
  375      1   200   189    1     1816     -1
  376    189   200   201    1     2346     -1
  377    189   201   190    1     1774     -1
  378    190   201   202    1     1404     -1
  379    190   202   191    1     2039     -1
  380    191   202   203    1      658     -1
  381    191   203   192    1     1539     -1
  382    192   203   204    1     1375     -1
  383    192   204   193    1     1162     -1
  384    193   204   205    1      568     -1
  385    193   205   194    1     2128     -1
  386    205   206   195    1     1392     -1
  387    205   195   194    1     1224     -1
  388    206   207   196    1     2514     -1
  389    206   196   195    1     2508     -1
  390    207   208   197    1     2614     -1
  391    207   197   196    1     2401     -1
  392    208   209   198    1     1295     -1
  393    208   198   197    1     2539     -1
  394    209   210   199    1      812     -1
  395    209   199   198    1     1065     -1
  396    199   210   266    1     1015     -1
  397      1   211   200    1     1816     -1
  398    200   211   212    1     1703     -1
  399    200   212   201    1     1786     -1
  400    201   212   213    1     1709     -1
  401    201   213   202    1     1154     -1
  402    202   213   214    1       68     -1
  403    202   214   203    1     2146     -1
  404    203   214   215    1     1336     -1
  405    203   215   204    1     1382     -1
  406    204   215   216    1     1294     -1
  407    204   216   205    1      937     -1
  408    216   217   206    1     2450     -1
  409    216   206   205    1     2451     -1
  410    217   218   207    1     1365     -1
  411    217   207   206    1     2053     -1
  412    218   219   208    1     1150     -1
  413    218   208   207    1     1315     -1
  414    219   220   209    1     2177     -1
  415    219   209   208    1     2580     -1
  416    220   221   210    1     2363     -1
  417    220   210   209    1     1016     -1
  418    210   221   266    1     1015     -1
  419      1   222   211    1     1815     -1
  420    211   222   223    1     1618     -1
  421    211   223   212    1     1850     -1
  422    212   223   224    1     1728     -1
  423    212   224   213    1     2522     -1
  424    213   224   225    1     1731     -1
  425    213   225   214    1     1400     -1
  426    214   225   226    1     1341     -1
  427    214   226   215    1      462     -1
  428    215   226   227    1     2575     -1
  429    215   227   216    1     1333     -1
  430    227   228   217    1     1197     -1
  431    227   217   216    1     1583     -1
  432    228   229   218    1     1320     -1
  433    228   218   217    1     1369     -1
  434    229   230   219    1      936     -1
  435    229   219   218    1     1345     -1
  436    230   231   220    1      275     -1
  437    230   220   219    1     1937     -1
  438    231   232   221    1     2530     -1
  439    231   221   220    1     1190     -1
  440    221   232   266    1      902     -1
  441      1   233   222    1     1691     -1
  442    233   234   223    1     1356     -1
  443    233   223   222    1     1610     -1
  444    234   235   224    1     1549     -1
  445    234   224   223    1     1424     -1
  446    235   236   225    1     1475     -1
  447    235   225   224    1     1729     -1
  448    236   237   226    1      974     -1
  449    236   226   225    1     1454     -1
  450    237   238   227    1      690     -1
  451    237   227   226    1     1235     -1
  452    227   238   239    1     2605     -1
  453    227   239   228    1     1266     -1
  454    228   239   240    1     1453     -1
  455    228   240   229    1     1455     -1
  456    229   240   241    1     2396     -1
  457    229   241   230    1      121     -1
  458    230   241   242    1      715     -1
  459    230   242   231    1      685     -1
  460    231   242   243    1     1824     -1
  461    231   243   232    1      721     -1
  462    232   243   266    1     1013     -1
  463      1   244   233    1     1696     -1
  464    244   245   234    1     1893     -1
  465    244   234   233    1     1112     -1
  466    245   246   235    1     1512     -1
  467    245   235   234    1     1538     -1
  468    246   247   236    1     1460     -1
  469    246   236   235    1      455     -1
  470    247   248   237    1     2064     -1
  471    247   237   236    1     1286     -1
  472    248   249   238    1     1267     -1
  473    248   238   237    1     1427     -1
  474    238   249   250    1     2204     -1
  475    238   250   239    1      918     -1
  476    239   250   251    1      609     -1
  477    239   251   240    1     1271     -1
  478    240   251   252    1     1166     -1
  479    240   252   241    1      617     -1
  480    241   252   253    1     1852     -1
  481    241   253   242    1       99     -1
  482    242   253   254    1     2607     -1
  483    242   254   243    1      826     -1
  484    243   254   266    1      745     -1
  485      1   255   244    1     1696     -1
  486    245   244   255    1     2150     -1
  487    245   255   256    1     2251     -1
  488    256   257   246    1     1168     -1
  489    256   246   245    1     1532     -1
  490    257   258   247    1      520     -1
  491    257   247   246    1     2391     -1
  492    258   259   248    1     1254     -1
  493    258   248   247    1     1496     -1
  494    259   260   249    1     1489     -1
  495    259   249   248    1      705     -1
  496    249   260   261    1     2002     -1
  497    249   261   250    1     1886     -1
  498    250   261   262    1     1262     -1
  499    250   262   251    1     1276     -1
  500    251   262   263    1     2409     -1
  501    251   263   252    1     2246     -1
  502    252   263   264    1     1038     -1
  503    252   264   253    1      263     -1
  504    265   254   253    1     2608     -1
  505    265   253   264    1      779     -1
  506    254   265   266    1      745     -1
  507      1     2   255    1     1695     -1
  508    255     2     3    1     2052     -1
  509    255     3   256    1     1415     -1
  510    256     3     4    1     2222     -1
  511    256     4   257    1      891     -1
  512    257     4     5    1     1466     -1
  513    257     5   258    1     2524     -1
  514    258     5     6    1     1782     -1
  515    258     6   259    1     1463     -1
  516    259     6     7    1      441     -1
  517    259     7   260    1     1000     -1
  518      7     8   261    1       75     -1
  519      7   261   260    1     1192     -1
  520      8     9   262    1     2080     -1
  521      8   262   261    1      675     -1
  522      9    10   263    1       97     -1
  523      9   263   262    1     2248     -1
  524     10    11   264    1     2622     -1
  525     10   264   263    1     2558     -1
  526     11    12   265    1      594     -1
  527     11   265   264    1     1934     -1
  528    265    12   266    1      767     -1
  529    283   267   268    2       -1   1624
  530    283   268   284    2       -1   2499
  531    284   268   269    2       -1    699
  532    270   285   269    2       -1    225
  533    269   285   284    2       -1   2547
  534    285   270   286    2       -1   1255
  535    286   270   271    2       -1   2326
  536    286   271   287    2       -1    627
  537    287   271   272    2       -1   1473
  538    287   272   288    2       -1   1283
  539    288   272   273    2       -1   1965
  540    288   273   289    2       -1   1482
  541    289   273   274    2       -1   1506
  542    289   274   290    2       -1   1505
  543    290   274   275    2       -1    470
  544    291   290   276    2       -1     96
  545    276   290   275    2       -1    470
  546    292   291   277    2       -1     91
  547    277   291   276    2       -1    691
  548    293   292   278    2       -1    638
  549    278   292   277    2       -1    689
  550    294   293   279    2       -1    676
  551    279   293   278    2       -1   2245
  552    295   294   280    2       -1   2501
  553    280   294   279    2       -1   1869
  554    296   295   281    2       -1    215
  555    281   295   280    2       -1    641
  556    297   296   282    2       -1    475
  557    282   296   281    2       -1    807
  558    297   282   748    2       -1    752
  559    298   267   283    2       -1   1590
  560    284   299   283    2       -1   1061
  561    283   299   298    2       -1   1574
  562    285   300   284    2       -1   2120
  563    284   300   299    2       -1   1304
  564    300   285   301    2       -1   2492
  565    301   285   286    2       -1   2155
  566    301   286   302    2       -1   2599
  567    302   286   287    2       -1   1416
  568    302   287   303    2       -1   1155
  569    303   287   288    2       -1   1478
  570    303   288   304    2       -1   1982
  571    304   288   289    2       -1     33
  572    304   289   305    2       -1   1256
  573    305   289   290    2       -1     82
  574    306   305   291    2       -1    654
  575    291   305   290    2       -1     59
  576    307   306   292    2       -1    497
  577    292   306   291    2       -1     27
  578    308   307   293    2       -1    481
  579    293   307   292    2       -1    633
  580    309   308   294    2       -1   2293
  581    294   308   293    2       -1    244
  582    310   309   295    2       -1   2291
  583    295   309   294    2       -1    484
  584    311   310   296    2       -1    262
  585    296   310   295    2       -1    648
  586    312   311   297    2       -1   1381
  587    297   311   296    2       -1   1746
  588    312   297   748    2       -1     32
  589    313   267   298    2       -1   1627
  590    313   298   314    2       -1   1640
  591    314   298   299    2       -1   1225
  592    314   299   315    2       -1   2519
  593    315   299   300    2       -1   1522
  594    315   300   316    2       -1    157
  595    316   300   301    2       -1   2283
  596    316   301   317    2       -1    472
  597    317   301   302    2       -1    637
  598    317   302   318    2       -1   1399
  599    318   302   303    2       -1    847
  600    318   303   319    2       -1    435
  601    319   303   304    2       -1    495
  602    319   304   320    2       -1    473
  603    320   304   305    2       -1   2481
  604    321   320   306    2       -1    511
  605    306   320   305    2       -1   2481
  606    322   321   307    2       -1    185
  607    307   321   306    2       -1   2482
  608    323   322   308    2       -1    597
  609    308   322   307    2       -1    600
  610    324   323   309    2       -1   2542
  611    309   323   308    2       -1    131
  612    325   324   310    2       -1   2239
  613    310   324   309    2       -1    755
  614    326   325   311    2       -1   2055
  615    311   325   310    2       -1   2424
  616    311   312   326    2       -1    950
  617    326   312   327    2       -1   2456
  618    327   312   748    2       -1    818
  619    328   267   313    2       -1   1643
  620    313   314   328    2       -1   2188
  621    328   314   329    2       -1   1121
  622    330   329   315    2       -1   1795
  623    315   329   314    2       -1   1802
  624    331   330   316    2       -1   1328
  625    316   330   315    2       -1   1281
  626    332   331   317    2       -1    437
  627    317   331   316    2       -1   1251
  628    333   332   318    2       -1     71
  629    318   332   317    2       -1    161
  630    334   333   319    2       -1     15
  631    319   333   318    2       -1    493
  632    335   334   320    2       -1   1215
  633    320   334   319    2       -1   1974
  634    335   320   336    2       -1   1215
  635    336   320   321    2       -1   2047
  636    336   321   337    2       -1    527
  637    337   321   322    2       -1    521
  638    337   322   338    2       -1    488
  639    338   322   323    2       -1    605
  640    338   323   339    2       -1    330
  641    339   323   324    2       -1    598
  642    339   324   340    2       -1   1050
  643    340   324   325    2       -1    589
  644    340   325   341    2       -1    288
  645    341   325   326    2       -1    860
  646    327   342   326    2       -1    700
  647    326   342   341    2       -1   2119
  648    342   327   748    2       -1    911
  649    343   267   328    2       -1   1546
  650    344   343   329    2       -1   1648
  651    329   343   328    2       -1   2006
  652    345   344   330    2       -1   1789
  653    330   344   329    2       -1   1794
  654    346   345   331    2       -1   2256
  655    331   345   330    2       -1   1499
  656    347   346   332    2       -1   2538
  657    332   346   331    2       -1     69
  658    348   347   333    2       -1    427
  659    333   347   332    2       -1    367
  660    349   348   334    2       -1    538
  661    334   348   333    2       -1    203
  662    350   349   335    2       -1   2138
  663    335   349   334    2       -1    408
  664    350   335   351    2       -1   2483
  665    351   335   336    2       -1    546
  666    351   336   352    2       -1   2231
  667    352   336   337    2       -1   2446
  668    352   337   353    2       -1     94
  669    353   337   338    2       -1   2031
  670    353   338   354    2       -1   1946
  671    354   338   339    2       -1   2576
  672    340   355   339    2       -1   2072
  673    339   355   354    2       -1    508
  674    355   340   356    2       -1   2427
  675    356   340   341    2       -1    118
  676    342   357   341    2       -1    813
  677    341   357   356    2       -1    984
  678    357   342   748    2       -1    912
  679    358   267   343    2       -1     14
  680    343   344   358    2       -1   2533
  681    358   344   359    2       -1   2590
  682    360   359   345    2       -1   1783
  683    345   359   344    2       -1   1784
  684    361   360   346    2       -1   1837
  685    346   360   345    2       -1   2164
  686    362   361   347    2       -1    975
  687    347   361   346    2       -1    513
  688    363   362   348    2       -1    416
  689    348   362   347    2       -1     19
  690    364   363   349    2       -1    570
  691    349   363   348    2       -1    556
  692    365   364   350    2       -1    564
  693    350   364   349    2       -1   1366
  694    365   350   366    2       -1    564
  695    366   350   351    2       -1    582
  696    366   351   367    2       -1    565
  697    367   351   352    2       -1    576
  698    367   352   368    2       -1   2468
  699    368   352   353    2       -1    533
  700    368   353   369    2       -1   2275
  701    369   353   354    2       -1   1945
  702    369   354   370    2       -1    677
  703    370   354   355    2       -1   1408
  704    370   355   371    2       -1    626
  705    371   355   356    2       -1   2362
  706    357   372   356    2       -1   2118
  707    356   372   371    2       -1    769
  708    372   357   748    2       -1    132
  709    373   267   358    2       -1     90
  710    374   373   359    2       -1   1651
  711    359   373   358    2       -1   1885
  712    359   360   374    2       -1   2122
  713    374   360   375    2       -1   2591
  714    376   375   361    2       -1   1277
  715    361   375   360    2       -1   1777
  716    377   376   362    2       -1    397
  717    362   376   361    2       -1    514
  718    378   377   363    2       -1    298
  719    363   377   362    2       -1     20
  720    379   378   364    2       -1    423
  721    364   378   363    2       -1    102
  722    380   379   365    2       -1    410
  723    365   379   364    2       -1    417
  724    380   365   381    2       -1    200
  725    381   365   366    2       -1    332
  726    381   366   382    2       -1    388
  727    382   366   367    2       -1   2423
  728    382   367   383    2       -1    404
  729    383   367   368    2       -1    534
  730    383   368   384    2       -1    581
  731    384   368   369    2       -1    889
  732    384   369   385    2       -1    622
  733    385   369   370    2       -1    703
  734    385   370   386    2       -1    122
  735    386   370   371    2       -1   2108
  736    386   371   387    2       -1   1950
  737    387   371   372    2       -1   2561
  738    387   372   748    2       -1    873
  739    388   267   373    2       -1     90
  740    374   389   373    2       -1    259
  741    373   389   388    2       -1   2419
  742    389   374   390    2       -1    201
  743    390   374   375    2       -1   2113
  744    390   375   391    2       -1   1776
  745    391   375   376    2       -1   1277
  746    391   376   392    2       -1   1521
  747    392   376   377    2       -1    397
  748    392   377   393    2       -1    547
  749    393   377   378    2       -1    298
  750    393   378   394    2       -1     38
  751    394   378   379    2       -1    423
  752    394   379   395    2       -1    380
  753    395   379   380    2       -1    410
  754    396   395   381    2       -1    424
  755    381   395   380    2       -1    200
  756    397   396   382    2       -1    572
  757    382   396   381    2       -1    388
  758    398   397   383    2       -1    539
  759    383   397   382    2       -1    404
  760    399   398   384    2       -1    852
  761    384   398   383    2       -1    581
  762    400   399   385    2       -1    666
  763    385   399   384    2       -1    622
  764    401   400   386    2       -1    825
  765    386   400   385    2       -1   1042
  766    402   401   387    2       -1   2336
  767    387   401   386    2       -1   1009
  768    402   387   748    2       -1    873
  769    403   267   388    2       -1   1545
  770    403   388   404    2       -1   2420
  771    404   388   389    2       -1   2462
  772    390   405   389    2       -1   2266
  773    389   405   404    2       -1   2105
  774    405   390   406    2       -1   2434
  775    406   390   391    2       -1   2503
  776    406   391   407    2       -1    447
  777    407   391   392    2       -1   2099
  778    407   392   408    2       -1    334
  779    408   392   393    2       -1    189
  780    408   393   409    2       -1    375
  781    409   393   394    2       -1      4
  782    409   394   410    2       -1    407
  783    410   394   395    2       -1    413
  784    411   410   396    2       -1    569
  785    396   410   395    2       -1    413
  786    412   411   397    2       -1     87
  787    397   411   396    2       -1    467
  788    413   412   398    2       -1    399
  789    398   412   397    2       -1    221
  790    414   413   399    2       -1    785
  791    399   413   398    2       -1    650
  792    415   414   400    2       -1    905
  793    400   414   399    2       -1   2073
  794    400   401   415    2       -1   1111
  795    415   401   416    2       -1   2310
  796    417   416   402    2       -1   1308
  797    402   416   401    2       -1   1396
  798    417   402   748    2       -1    858
  799    418   267   403    2       -1     72
  800    418   403   419    2       -1   2170
  801    419   403   404    2       -1    907
  802    419   404   420    2       -1   1856
  803    420   404   405    2       -1   1966
  804    420   405   421    2       -1   1770
  805    421   405   406    2       -1   2574
  806    421   406   422    2       -1   1726
  807    422   406   407    2       -1    361
  808    422   407   423    2       -1    282
  809    423   407   408    2       -1    374
  810    423   408   424    2       -1     60
  811    424   408   409    2       -1    292
  812    410   425   409    2       -1   1289
  813    409   425   424    2       -1     41
  814    426   425   411    2       -1    389
  815    411   425   410    2       -1   2571
  816    427   426   412    2       -1    396
  817    412   426   411    2       -1    393
  818    428   427   413    2       -1    261
  819    413   427   412    2       -1    368
  820    429   428   414    2       -1    308
  821    414   428   413    2       -1   2348
  822    430   429   415    2       -1    737
  823    415   429   414    2       -1    892
  824    431   430   416    2       -1   1044
  825    416   430   415    2       -1   2312
  826    416   417   431    2       -1   1145
  827    431   417   432    2       -1   2626
  828    432   417   748    2       -1    881
  829    433   267   418    2       -1   1636
  830    433   418   434    2       -1   2461
  831    434   418   419    2       -1   1448
  832    434   419   435    2       -1   1884
  833    435   419   420    2       -1   1890
  834    421   436   420    2       -1    952
  835    420   436   435    2       -1   1735
  836    436   421   437    2       -1    763
  837    437   421   422    2       -1    672
  838    437   422   438    2       -1    297
  839    438   422   423    2       -1    364
  840    438   423   439    2       -1    289
  841    439   423   424    2       -1    310
  842    439   424   440    2       -1    273
  843    440   424   425    2       -1    387
  844    441   440   426    2       -1   2205
  845    426   440   425    2       -1    387
  846    442   441   427    2       -1    328
  847    427   441   426    2       -1    119
  848    443   442   428    2       -1    549
  849    428   442   427    2       -1    284
  850    444   443   429    2       -1    741
  851    429   443   428    2       -1    849
  852    429   430   444    2       -1   1660
  853    444   430   445    2       -1   1620
  854    446   445   431    2       -1   1057
  855    431   445   430    2       -1   1056
  856    446   431   447    2       -1    150
  857    447   431   432    2       -1   2618
  858    447   432   748    2       -1    879
  859    448   267   433    2       -1   1650
  860    449   448   434    2       -1   2633
  861    434   448   433    2       -1   2491
  862    450   449   435    2       -1   1601
  863    435   449   434    2       -1    207
  864    451   450   436    2       -1   1860
  865    436   450   435    2       -1   1655
  866    452   451   437    2       -1   1711
  867    437   451   436    2       -1   1736
  868    453   452   438    2       -1   1173
  869    438   452   437    2       -1   1174
  870    454   453   439    2       -1   2495
  871    439   453   438    2       -1   2044
  872    455   454   440    2       -1    732
  873    440   454   439    2       -1   1840
  874    455   440   456    2       -1    732
  875    456   440   441    2       -1    206
  876    456   441   457    2       -1    312
  877    457   441   442    2       -1     74
  878    457   442   458    2       -1     64
  879    458   442   443    2       -1    844
  880    458   443   459    2       -1    789
  881    459   443   444    2       -1   1040
  882    459   444   460    2       -1   2057
  883    460   444   445    2       -1   1323
  884    446   461   445    2       -1   1001
  885    445   461   460    2       -1   1972
  886    461   446   462    2       -1   1264
  887    462   446   447    2       -1    923
  888    462   447   748    2       -1    621
  889    463   267   448    2       -1   1628
  890    464   463   449    2       -1   2437
  891    449   463   448    2       -1   2436
  892    465   464   450    2       -1   1609
  893    450   464   449    2       -1   1882
  894    466   465   451    2       -1   1614
  895    451   465   450    2       -1   1750
  896    467   466   452    2       -1   1706
  897    452   466   451    2       -1    197
  898    468   467   453    2       -1    247
  899    453   467   452    2       -1    269
  900    469   468   454    2       -1     16
  901    454   468   453    2       -1   1727
  902    470   469   455    2       -1    145
  903    455   469   454    2       -1    928
  904    470   455   471    2       -1   2496
  905    471   455   456    2       -1    265
  906    471   456   472    2       -1     50
  907    472   456   457    2       -1    333
  908    472   457   473    2       -1   2387
  909    473   457   458    2       -1    302
  910    473   458   474    2       -1   2237
  911    474   458   459    2       -1    543
  912    474   459   475    2       -1   2285
  913    475   459   460    2       -1   2013
  914    475   460   476    2       -1   1948
  915    476   460   461    2       -1    749
  916    461   462   476    2       -1   1688
  917    476   462   477    2       -1   2602
  918    477   462   748    2       -1    182
  919    478   267   463    2       -1   1665
  920    479   478   464    2       -1   2004
  921    464   478   463    2       -1   2005
  922    480   479   465    2       -1   1822
  923    465   479   464    2       -1   2024
  924    481   480   466    2       -1   2196
  925    466   480   465    2       -1   2581
  926    482   481   467    2       -1    357
  927    467   481   466    2       -1   2225
  928    483   482   468    2       -1   1913
  929    468   482   467    2       -1   2081
  930    484   483   469    2       -1   1919
  931    469   483   468    2       -1   1906
  932    485   484   470    2       -1    966
  933    470   484   469    2       -1   1917
  934    485   470   486    2       -1    966
  935    486   470   471    2       -1   1322
  936    472   487   471    2       -1    973
  937    471   487   486    2       -1    969
  938    487   472   488    2       -1    303
  939    488   472   473    2       -1   2386
  940    488   473   489    2       -1   2384
  941    489   473   474    2       -1   2236
  942    489   474   490    2       -1    557
  943    490   474   475    2       -1    252
  944    490   475   491    2       -1   2472
  945    491   475   476    2       -1     89
  946    477   492   476    2       -1   1196
  947    476   492   491    2       -1   1968
  948    492   477   748    2       -1    888
  949    493   267   478    2       -1   1637
  950    494   493   479    2       -1   1525
  951    479   493   478    2       -1    311
  952    479   480   494    2       -1   2068
  953    494   480   495    2       -1    235
  954    496   495   481    2       -1   1895
  955    481   495   480    2       -1   1896
  956    497   496   482    2       -1   1597
  957    482   496   481    2       -1    304
  958    498   497   483    2       -1   2082
  959    483   497   482    2       -1   1827
  960    499   498   484    2       -1   1911
  961    484   498   483    2       -1   1519
  962    500   499   485    2       -1    320
  963    485   499   484    2       -1    224
  964    500   485   501    2       -1    446
  965    501   485   486    2       -1   1903
  966    501   486   502    2       -1   1084
  967    502   486   487    2       -1    133
  968    502   487   503    2       -1   2109
  969    503   487   488    2       -1    313
  970    503   488   504    2       -1    750
  971    504   488   489    2       -1   2379
  972    504   489   505    2       -1    711
  973    505   489   490    2       -1    561
  974    505   490   506    2       -1   1041
  975    506   490   491    2       -1    859
  976    506   491   507    2       -1   1967
  977    507   491   492    2       -1   2365
  978    507   492   748    2       -1    899
  979    508   267   493    2       -1   1637
  980    508   493   509    2       -1    583
  981    509   493   494    2       -1   2389
  982    509   494   510    2       -1    208
  983    510   494   495    2       -1   1872
  984    510   495   511    2       -1   1899
  985    511   495   496    2       -1   1895
  986    511   496   512    2       -1   1163
  987    512   496   497    2       -1   1597
  988    512   497   513    2       -1   1110
  989    513   497   498    2       -1    123
  990    513   498   514    2       -1    978
  991    514   498   499    2       -1   1911
  992    514   499   515    2       -1   1923
  993    515   499   500    2       -1    320
  994    516   515   501    2       -1    831
  995    501   515   500    2       -1    446
  996    517   516   502    2       -1   1098
  997    502   516   501    2       -1   1084
  998    518   517   503    2       -1    976
  999    503   517   502    2       -1   2109
 1000    519   518   504    2       -1   2168
 1001    504   518   503    2       -1    750
 1002    520   519   505    2       -1   2011
 1003    505   519   504    2       -1    711
 1004    521   520   506    2       -1   2458
 1005    506   520   505    2       -1   2459
 1006    522   521   507    2       -1    895
 1007    507   521   506    2       -1     95
 1008    522   507   748    2       -1    899
 1009    523   267   508    2       -1   1367
 1010    523   508   524    2       -1    438
 1011    524   508   509    2       -1   2127
 1012    524   509   525    2       -1   1343
 1013    525   509   510    2       -1   2521
 1014    525   510   526    2       -1   2294
 1015    526   510   511    2       -1   2300
 1016    526   511   527    2       -1   2298
 1017    527   511   512    2       -1   2095
 1018    527   512   528    2       -1   1120
 1019    528   512   513    2       -1   2227
 1020    528   513   529    2       -1    956
 1021    529   513   514    2       -1    967
 1022    529   514   530    2       -1   1892
 1023    530   514   515    2       -1    360
 1024    531   530   516    2       -1   1093
 1025    516   530   515    2       -1    360
 1026    532   531   517    2       -1    964
 1027    517   531   516    2       -1     66
 1028    533   532   518    2       -1   1097
 1029    518   532   517    2       -1   2412
 1030    534   533   519    2       -1    941
 1031    519   533   518    2       -1    344
 1032    535   534   520    2       -1   1976
 1033    520   534   519    2       -1   1083
 1034    536   535   521    2       -1    532
 1035    521   535   520    2       -1   2511
 1036    537   536   522    2       -1    168
 1037    522   536   521    2       -1   2319
 1038    537   522   748    2       -1    884
 1039    538   267   523    2       -1   1641
 1040    538   523   539    2       -1      2
 1041    539   523   524    2       -1   2536
 1042    539   524   540    2       -1   1613
 1043    540   524   525    2       -1   1877
 1044    540   525   541    2       -1   2233
 1045    541   525   526    2       -1   1561
 1046    541   526   542    2       -1   1434
 1047    542   526   527    2       -1    442
 1048    542   527   543    2       -1    636
 1049    543   527   528    2       -1   1908
 1050    543   528   544    2       -1   2303
 1051    544   528   529    2       -1   1122
 1052    544   529   545    2       -1     18
 1053    545   529   530    2       -1    954
 1054    546   545   531    2       -1   1091
 1055    531   545   530    2       -1    640
 1056    547   546   532    2       -1   1126
 1057    532   546   531    2       -1    957
 1058    548   547   533    2       -1   1186
 1059    533   547   532    2       -1    960
 1060    549   548   534    2       -1    246
 1061    534   548   533    2       -1   1953
 1062    550   549   535    2       -1   1987
 1063    535   549   534    2       -1   2540
 1064    551   550   536    2       -1   2512
 1065    536   550   535    2       -1   2460
 1066    551   536   552    2       -1   1043
 1067    552   536   537    2       -1   2449
 1068    552   537   748    2       -1    900
 1069    553   267   538    2       -1   1557
 1070    553   538   554    2       -1   2537
 1071    554   538   539    2       -1   2241
 1072    554   539   555    2       -1   1474
 1073    555   539   540    2       -1   1875
 1074    555   540   556    2       -1    608
 1075    556   540   541    2       -1   2579
 1076    556   541   557    2       -1   1763
 1077    557   541   542    2       -1   1433
 1078    557   542   558    2       -1    939
 1079    558   542   543    2       -1   1105
 1080    558   543   559    2       -1   1191
 1081    559   543   544    2       -1   2479
 1082    559   544   560    2       -1   2151
 1083    560   544   545    2       -1   1548
 1084    561   560   546    2       -1   2270
 1085    546   560   545    2       -1   1548
 1086    562   561   547    2       -1   1113
 1087    547   561   546    2       -1   1136
 1088    563   562   548    2       -1   1149
 1089    548   562   547    2       -1    267
 1090    564   563   549    2       -1    681
 1091    549   563   548    2       -1    163
 1092    565   564   550    2       -1   2418
 1093    550   564   549    2       -1   2179
 1094    566   565   551    2       -1   2331
 1095    551   565   550    2       -1    864
 1096    567   566   552    2       -1   2288
 1097    552   566   551    2       -1   2628
 1098    567   552   748    2       -1    885
 1099    568   267   553    2       -1   1687
 1100    569   568   554    2       -1   2242
 1101    554   568   553    2       -1   2219
 1102    570   569   555    2       -1   2302
 1103    555   569   554    2       -1   1805
 1104    571   570   556    2       -1   2325
 1105    556   570   555    2       -1   1689
 1106    572   571   557    2       -1    938
 1107    557   571   556    2       -1    642
 1108    573   572   558    2       -1    173
 1109    558   572   557    2       -1   1263
 1110    574   573   559    2       -1   1092
 1111    559   573   558    2       -1    471
 1112    575   574   560    2       -1   1428
 1113    560   574   559    2       -1   1697
 1114    575   560   576    2       -1   1428
 1115    576   560   561    2       -1   1177
 1116    576   561   577    2       -1   1768
 1117    577   561   562    2       -1   1138
 1118    577   562   578    2       -1    156
 1119    578   562   563    2       -1    897
 1120    578   563   579    2       -1    940
 1121    579   563   564    2       -1   2216
 1122    579   564   580    2       -1    128
 1123    580   564   565    2       -1   2273
 1124    580   565   581    2       -1     11
 1125    581   565   566    2       -1    130
 1126    566   567   581    2       -1   2289
 1127    581   567   582    2       -1   2625
 1128    582   567   748    2       -1    917
 1129    583   267   568    2       -1   1586
 1130    584   583   569    2       -1    489
 1131    569   583   568    2       -1   2218
 1132    584   569   585    2       -1   1866
 1133    585   569   570    2       -1   1387
 1134    586   585   571    2       -1   2314
 1135    571   585   570    2       -1    850
 1136    587   586   572    2       -1   1305
 1137    572   586   571    2       -1      7
 1138    588   587   573    2       -1   1143
 1139    573   587   572    2       -1   1185
 1140    573   574   588    2       -1    459
 1141    588   574   589    2       -1   2632
 1142    590   589   575    2       -1   1207
 1143    575   589   574    2       -1   1226
 1144    590   575   591    2       -1   2268
 1145    591   575   576    2       -1    177
 1146    591   576   592    2       -1   1534
 1147    592   576   577    2       -1   2428
 1148    592   577   593    2       -1   2425
 1149    593   577   578    2       -1   1159
 1150    593   578   594    2       -1   1250
 1151    594   578   579    2       -1   1303
 1152    580   595   579    2       -1   2272
 1153    579   595   594    2       -1    500
 1154    595   580   596    2       -1   1055
 1155    596   580   581    2       -1   2262
 1156    582   597   581    2       -1    129
 1157    581   597   596    2       -1   2560
 1158    597   582   748    2       -1    916
 1159    598   267   583    2       -1    236
 1160    599   598   584    2       -1   2619
 1161    584   598   583    2       -1   1812
 1162    600   599   585    2       -1    251
 1163    585   599   584    2       -1   1865
 1164    601   600   586    2       -1   2046
 1165    586   600   585    2       -1   1704
 1166    602   601   587    2       -1   1647
 1167    587   601   586    2       -1   1317
 1168    603   602   588    2       -1   2376
 1169    588   602   587    2       -1   1364
 1170    604   603   589    2       -1    291
 1171    589   603   588    2       -1   1223
 1172    605   604   590    2       -1   1200
 1173    590   604   589    2       -1   1977
 1174    605   590   606    2       -1   1200
 1175    606   590   591    2       -1   1391
 1176    592   607   591    2       -1   1007
 1177    591   607   606    2       -1   1240
 1178    593   608   592    2       -1    483
 1179    592   608   607    2       -1   1357
 1180    608   593   609    2       -1   2464
 1181    609   593   594    2       -1   2465
 1182    609   594   610    2       -1   1231
 1183    610   594   595    2       -1     85
 1184    610   595   611    2       -1   1002
 1185    611   595   596    2       -1    765
 1186    597   612   596    2       -1   2182
 1187    596   612   611    2       -1    285
 1188    612   597   748    2       -1    914
 1189    613   267   598    2       -1   1542
 1190    614   613   599    2       -1   2264
 1191    599   613   598    2       -1    877
 1192    615   614   600    2       -1   2583
 1193    600   614   599    2       -1   2212
 1194    616   615   601    2       -1    296
 1195    601   615   600    2       -1    290
 1196    617   616   602    2       -1   1969
 1197    602   616   601    2       -1   1551
 1198    618   617   603    2       -1   1394
 1199    603   617   602    2       -1   1362
 1200    619   618   604    2       -1   1171
 1201    604   618   603    2       -1   1383
 1202    620   619   605    2       -1   1194
 1203    605   619   604    2       -1   1243
 1204    620   605   621    2       -1   1230
 1205    621   605   606    2       -1   1206
 1206    621   606   622    2       -1   1237
 1207    622   606   607    2       -1   2305
 1208    622   607   623    2       -1   1607
 1209    623   607   608    2       -1   1354
 1210    623   608   624    2       -1   1325
 1211    624   608   609    2       -1   1193
 1212    624   609   625    2       -1   1133
 1213    625   609   610    2       -1   1353
 1214    625   610   626    2       -1   1063
 1215    626   610   611    2       -1   1078
 1216    626   611   627    2       -1   1004
 1217    627   611   612    2       -1   2577
 1218    627   612   748    2       -1    909
 1219    628   267   613    2       -1   1542
 1220    614   629   613    2       -1    321
 1221    613   629   628    2       -1   2402
 1222    615   630   614    2       -1   1598
 1223    614   630   629    2       -1   2022
 1224    630   615   631    2       -1   2358
 1225    631   615   616    2       -1    296
 1226    631   616   632    2       -1   1418
 1227    632   616   617    2       -1   1969
 1228    632   617   633    2       -1   1374
 1229    633   617   618    2       -1   1394
 1230    633   618   634    2       -1    613
 1231    634   618   619    2       -1   1171
 1232    634   619   635    2       -1   1261
 1233    635   619   620    2       -1   1194
 1234    636   635   621    2       -1   1245
 1235    621   635   620    2       -1   1230
 1236    637   636   622    2       -1   1500
 1237    622   636   621    2       -1   1237
 1238    638   637   623    2       -1   1291
 1239    623   637   622    2       -1   1103
 1240    639   638   624    2       -1   1991
 1241    624   638   623    2       -1   1325
 1242    640   639   625    2       -1   1088
 1243    625   639   624    2       -1   1133
 1244    641   640   626    2       -1   2144
 1245    626   640   625    2       -1   1081
 1246    642   641   627    2       -1   1955
 1247    627   641   626    2       -1   1031
 1248    642   627   748    2       -1    909
 1249    643   267   628    2       -1   1661
 1250    643   628   644    2       -1   2404
 1251    644   628   629    2       -1   2214
 1252    644   629   645    2       -1   1631
 1253    645   629   630    2       -1   2355
 1254    645   630   646    2       -1   2045
 1255    646   630   631    2       -1   1214
 1256    646   631   647    2       -1   1402
 1257    647   631   632    2       -1   2229
 1258    647   632   648    2       -1   2056
 1259    648   632   633    2       -1   1363
 1260    648   633   649    2       -1   1218
 1261    649   633   634    2       -1   1228
 1262    649   634   650    2       -1   1361
 1263    650   634   635    2       -1   1378
 1264    651   650   636    2       -1   1114
 1265    636   650   635    2       -1   1378
 1266    652   651   637    2       -1   1220
 1267    637   651   636    2       -1   1480
 1268    653   652   638    2       -1   1324
 1269    638   652   637    2       -1   1318
 1270    654   653   639    2       -1   1316
 1271    639   653   638    2       -1    655
 1272    655   654   640    2       -1    725
 1273    640   654   639    2       -1   2062
 1274    656   655   641    2       -1   2259
 1275    641   655   640    2       -1   2431
 1276    641   642   656    2       -1   1495
 1277    656   642   657    2       -1   2500
 1278    657   642   748    2       -1    848
 1279    658   267   643    2       -1    216
 1280    658   643   659    2       -1   1891
 1281    659   643   644    2       -1   2226
 1282    645   660   644    2       -1   1775
 1283    644   660   659    2       -1   1868
 1284    660   645   661    2       -1   1939
 1285    661   645   646    2       -1   2585
 1286    661   646   662    2       -1   1406
 1287    662   646   647    2       -1   1086
 1288    662   647   663    2       -1    664
 1289    663   647   648    2       -1   1380
 1290    663   648   664    2       -1   1326
 1291    664   648   649    2       -1   1376
 1292    664   649   665    2       -1    176
 1293    665   649   650    2       -1    708
 1294    666   665   651    2       -1   1253
 1295    651   665   650    2       -1   1309
 1296    667   666   652    2       -1   2061
 1297    652   666   651    2       -1   1164
 1298    668   667   653    2       -1   2635
 1299    653   667   652    2       -1   1359
 1300    669   668   654    2       -1   1327
 1301    654   668   653    2       -1   2060
 1302    654   655   669    2       -1   2441
 1303    669   655   670    2       -1   2601
 1304    671   670   656    2       -1    754
 1305    656   670   655    2       -1    686
 1306    672   671   657    2       -1    870
 1307    657   671   656    2       -1   1956
 1308    672   657   748    2       -1    915
 1309    673   267   658    2       -1   1588
 1310    673   658   674    2       -1   2090
 1311    674   658   659    2       -1   1684
 1312    674   659   675    2       -1   2422
 1313    675   659   660    2       -1   1828
 1314    675   660   676    2       -1   1724
 1315    676   660   661    2       -1   1725
 1316    676   661   677    2       -1    146
 1317    677   661   662    2       -1   1407
 1318    677   662   678    2       -1   1210
 1319    678   662   663    2       -1   1319
 1320    678   663   679    2       -1   1165
 1321    679   663   664    2       -1   1347
 1322    679   664   680    2       -1   1067
 1323    680   664   665    2       -1   1368
 1324    681   680   666    2       -1   2341
 1325    666   680   665    2       -1   1368
 1326    682   681   667    2       -1   1314
 1327    667   681   666    2       -1   1297
 1328    683   682   668    2       -1   1238
 1329    668   682   667    2       -1   1337
 1330    684   683   669    2       -1   1307
 1331    669   683   668    2       -1   1269
 1332    685   684   670    2       -1   2328
 1333    670   684   669    2       -1    169
 1334    686   685   671    2       -1    929
 1335    671   685   670    2       -1   1897
 1336    671   672   686    2       -1   2092
 1337    686   672   687    2       -1     58
 1338    687   672   748    2       -1    409
 1339    688   267   673    2       -1    430
 1340    689   688   674    2       -1   2078
 1341    674   688   673    2       -1    295
 1342    690   689   675    2       -1     43
 1343    675   689   674    2       -1   1572
 1344    691   690   676    2       -1   2279
 1345    676   690   675    2       -1   2018
 1346    692   691   677    2       -1    652
 1347    677   691   676    2       -1   2280
 1348    693   692   678    2       -1   1452
 1349    678   692   677    2       -1   1414
 1350    694   693   679    2       -1   1296
 1351    679   693   678    2       -1   1279
 1352    695   694   680    2       -1   2630
 1353    680   694   679    2       -1    653
 1354    695   680   696    2       -1   2630
 1355    696   680   681    2       -1   1270
 1356    696   681   697    2       -1   2321
 1357    697   681   682    2       -1    108
 1358    697   682   698    2       -1   1302
 1359    698   682   683    2       -1   1436
 1360    698   683   699    2       -1   1310
 1361    699   683   684    2       -1   1683
 1362    699   684   700    2       -1    646
 1363    700   684   685    2       -1   2238
 1364    686   701   685    2       -1   2623
 1365    685   701   700    2       -1   2184
 1366    687   702   686    2       -1   2502
 1367    686   702   701    2       -1   2330
 1368    702   687   748    2       -1    910
 1369    703   267   688    2       -1    198
 1370    704   703   689    2       -1    838
 1371    689   703   688    2       -1     28
 1372    705   704   690    2       -1    199
 1373    690   704   689    2       -1   1565
 1374    706   705   691    2       -1   2616
 1375    691   705   690    2       -1   1517
 1376    707   706   692    2       -1   2123
 1377    692   706   691    2       -1   1446
 1378    708   707   693    2       -1    925
 1379    693   707   692    2       -1    727
 1380    709   708   694    2       -1    124
 1381    694   708   693    2       -1   1938
 1382    710   709   695    2       -1   2609
 1383    695   709   694    2       -1   2063
 1384    710   695   711    2       -1   2203
 1385    711   695   696    2       -1   1997
 1386    711   696   712    2       -1   1880
 1387    712   696   697    2       -1   2230
 1388    712   697   713    2       -1   2277
 1389    713   697   698    2       -1   2247
 1390    713   698   714    2       -1   2421
 1391    714   698   699    2       -1    545
 1392    714   699   715    2       -1    474
 1393    715   699   700    2       -1   1578
 1394    715   700   716    2       -1    777
 1395    716   700   701    2       -1    773
 1396    716   701   717    2       -1   2329
 1397    717   701   702    2       -1   1030
 1398    717   702   748    2       -1    781
 1399    718   267   703    2       -1   1625
 1400    719   718   704    2       -1    231
 1401    704   718   703    2       -1   2145
 1402    720   719   705    2       -1   1537
 1403    705   719   704    2       -1   1278
 1404    721   720   706    2       -1   1531
 1405    706   720   705    2       -1   1467
 1406    722   721   707    2       -1   2040
 1407    707   721   706    2       -1   1465
 1408    723   722   708    2       -1   2121
 1409    708   722   707    2       -1    117
 1410    708   709   723    2       -1   1533
 1411    723   709   724    2       -1   1508
 1412    725   724   710    2       -1   1417
 1413    710   724   709    2       -1    687
 1414    725   710   726    2       -1   1417
 1415    726   710   711    2       -1    821
 1416    726   711   727    2       -1   1199
 1417    727   711   712    2       -1    683
 1418    727   712   728    2       -1   2444
 1419    728   712   713    2       -1    449
 1420    728   713   729    2       -1   2410
 1421    729   713   714    2       -1    680
 1422    729   714   730    2       -1    736
 1423    730   714   715    2       -1     52
 1424    730   715   731    2       -1   2257
 1425    731   715   716    2       -1   2185
 1426    731   716   732    2       -1     37
 1427    732   716   717    2       -1   2443
 1428    732   717   748    2       -1    770
 1429    733   267   718    2       -1   1591
 1430    718   719   733    2       -1   2079
 1431    733   719   734    2       -1   2611
 1432    735   734   720    2       -1   2189
 1433    720   734   719    2       -1   1819
 1434    736   735   721    2       -1   1115
 1435    721   735   720    2       -1   1527
 1436    721   722   736    2       -1   1048
 1437    736   722   737    2       -1   2041
 1438    738   737   723    2       -1   1494
 1439    723   737   722    2       -1   1442
 1440    739   738   724    2       -1   1445
 1441    724   738   723    2       -1   1413
 1442    740   739   725    2       -1   1085
 1443    725   739   724    2       -1   1469
 1444    740   725   741    2       -1   1085
 1445    741   725   726    2       -1   1483
 1446    741   726   742    2       -1    615
 1447    742   726   727    2       -1   2000
 1448    742   727   743    2       -1    635
 1449    743   727   728    2       -1   2445
 1450    743   728   744    2       -1    596
 1451    744   728   729    2       -1   2160
 1452    744   729   745    2       -1    669
 1453    745   729   730    2       -1   2316
 1454    745   730   746    2       -1    482
 1455    746   730   731    2       -1    734
 1456    746   731   747    2       -1    739
 1457    747   731   732    2       -1   1049
 1458    747   732   748    2       -1    414
 1459    268   267   733    2       -1   1591
 1460    268   733   269    2       -1    418
 1461    269   733   734    2       -1   2350
 1462    269   734   270    2       -1   1560
 1463    270   734   735    2       -1   1530
 1464    270   735   271    2       -1    238
 1465    271   735   736    2       -1   1115
 1466    271   736   272    2       -1   1451
 1467    272   736   737    2       -1   2041
 1468    272   737   273    2       -1   2065
 1469    273   737   738    2       -1   1494
 1470    273   738   274    2       -1     36
 1471    274   738   739    2       -1   1445
 1472    274   739   275    2       -1    432
 1473    275   739   740    2       -1   1502
 1474    276   275   741    2       -1   1488
 1475    741   275   740    2       -1   1502
 1476    277   276   742    2       -1    674
 1477    742   276   741    2       -1    615
 1478    278   277   743    2       -1    663
 1479    743   277   742    2       -1    635
 1480    279   278   744    2       -1   2278
 1481    744   278   743    2       -1    596
 1482    280   279   745    2       -1   2567
 1483    745   279   744    2       -1    669
 1484    745   746   280    2       -1   1076
 1485    280   746   281    2       -1   2010
 1486    282   281   747    2       -1    153
 1487    747   281   746    2       -1   2094
 1488    282   747   748    2       -1    414
# Generated by C:\Users\Ludvig Magnusson\Documents\Programmering\C++\MinecraftOpenGL\MinecraftOpenGL\Meshes\tetgen.exe -n balls3.poly -nn -e 
