748  3  0  0
   1    0.625  0.5  0.2834936529
   2    0.61258754950000005  0.50390625030000002  0.30484235139999999
   3    0.58072066590000004  0.52816316080000003  0.35910410840000001
   4    0.54286703650000001  0.57965744370000005  0.42268723409999998
   5    0.51318689849999999  0.64634006600000005  0.47152907449999998
   6    0.49878428549999998  0.70304985279999999  0.49429317839999998
   7    0.49624630159999999  0.7253052592  0.49783280120000001
   8    0.49444988829999997  0.70304983929999998  0.50180057479999995
   9    0.48193689610000001  0.64634003920000005  0.52565566630000005
  10    0.45447868320000001  0.57965742350000005  0.57578035080000001
  11    0.41834089470000002  0.52816314730000002  0.64035411779999996
  12    0.3872822829  0.50390624650000004  0.69508251350000005
  13    0.61218341730000003  0.50281527370000001  0.30460902550000002
  14    0.57780696580000002  0.52029747199999998  0.35742188279999998
  15    0.53462584840000005  0.55740991740000001  0.4179291819
  16    0.49804686949999999  0.60546875109999998  0.46278797449999998
  17    0.4777771838  0.64634006229999996  0.48216472230000001
  18    0.47293670339999999  0.66237975660000004  0.48437499810000001
  19    0.473442788  0.64634005260000005  0.48967211960000001
  20    0.46679686999999997  0.60546873170000004  0.51691456800000002
  21    0.44623749730000001  0.55740990280000002  0.57102229979999997
  22    0.41542719589999999  0.52029746229999996  0.63867189300000005
  23    0.386878151  0.50281527100000001  0.69484918790000005
  24    0.61132549670000003  0.50153244080000003  0.3041137049
  25    0.57162155739999998  0.51104854369999997  0.35385073550000001
  26    0.51713087229999999  0.53124999890000002  0.4078284526
  27    0.46590654669999998  0.55740991289999997  0.44423175009999999
  28    0.43318182449999998  0.57965743550000004  0.45641757919999998
  29    0.4234534418  0.58838833869999996  0.45580582320000002
  30    0.4288474317  0.57965743020000005  0.4639249782
  31    0.434656553  0.55740990239999999  0.49835834699999998
  32    0.42874252559999998  0.53124999100000003  0.56092157300000001
  33    0.40924179049999998  0.51104853839999997  0.6351007474
  34    0.38602023130000002  0.50153243930000002  0.69435386769999996
  35    0.6102145309  0.5005417996  0.30347228840000001
  36    0.56361175060000002  0.50390624979999998  0.3492262713
  37    0.49447571880000002  0.51104854219999996  0.39474849340000001
  38    0.42428637270000003  0.52029746779999997  0.42020233109999999
  39    0.37543297679999998  0.52816315420000004  0.42307626580000002
  40    0.35937499540000001  0.53124999439999998  0.41881011429999998
  41    0.37109858779999999  0.5281631524  0.430583667
  42    0.39303638670000002  0.5202974641  0.47432893240000001
  43    0.40608737779999998  0.51104853939999995  0.54784161710000001
  44    0.4012319875  0.50390624790000005  0.6304762854
  45    0.38490926660000002  0.50054179909999996  0.69371245189999997
  46    0.60926971740000002  0.50007514799999997  0.3029268001
  47    0.55679986439999996  0.5005417995  0.34529342699999999
  48    0.47520879620000001  0.50153244029999999  0.38362473019999999
  49    0.38889077630000002  0.50281527250000002  0.39976667360000001
  50    0.32632085840000002  0.50390624849999999  0.3947213705
  51    0.30487991250000002  0.50433439530000002  0.38734736289999999
  52    0.32198647270000003  0.50390624819999996  0.40222877359999998
  53    0.35764079679999999  0.50281527189999997  0.45389327860000001
  54    0.38682046009999999  0.50153243989999996  0.53671785670000005
  55    0.39442010459999999  0.50054179919999997  0.62654344289999997
  56    0.38396445400000001  0.50007514789999996  0.6931669641
  57    0.60889893120000005  0.5  0.30271272659999998
  58    0.55412658169999995  0.5  0.34375000639999997
  59    0.46764761110000003  0.5  0.37925927790000002
  60    0.3749999926  0.5  0.39174682570000002
  61    0.30704711010000002  0.5  0.38359366659999999
  62    0.2834936529  0.5  0.375
  63    0.30271272570000002  0.5  0.39110107039999997
  64    0.34375001560000001  0.5  0.44587343219999998
  65    0.3792592769  0.5  0.53235240549999996
  66    0.39174682309999997  0.5  0.62500002310000002
  67    0.38359366820000002  0.5  0.6929528908
  68    0.60926971770000005  0.49992485199999998  0.30292680020000001
  69    0.55679986609999998  0.49945820000000002  0.34529342790000001
  70    0.4752088008  0.4984675583  0.38362473279999998
  71    0.38889078469999999  0.49718472479999998  0.39976667840000002
  72    0.32632087009999999  0.49609374779999998  0.39472137730000001
  73    0.30487992539999997  0.49566560050000003  0.3873473704
  74    0.32198648429999999  0.496093748  0.40222878029999998
  75    0.35764080520000002  0.49718472530000002  0.45389328350000002
  76    0.38682046460000002  0.49846755869999998  0.53671785940000005
  77    0.39442010620000001  0.49945820029999999  0.62654344390000005
  78    0.38396445429999998  0.49992485199999998  0.69316696420000001
  79    0.61021453130000003  0.49945820010000003  0.30347228869999998
  80    0.56361175379999995  0.49609374810000001  0.34922627319999999
  81    0.49447572789999999  0.4889514519  0.3947484986
  82    0.42428638950000003  0.47970252130000002  0.42020234080000002
  83    0.37543300000000002  0.47183683069999999  0.42307627920000002
  84    0.35937502119999998  0.46874998880000002  0.41881012919999999
  85    0.37109861100000002  0.47183683250000003  0.4305836804
  86    0.39303640350000002  0.47970252499999999  0.47432894209999998
  87    0.40608738690000001  0.4889514546  0.54784162240000001
  88    0.40123199069999999  0.49609375  0.63047628730000005
  89    0.384909267  0.49945820060000001  0.69371245209999999
  90    0.61132549709999995  0.49846755869999998  0.30411370510000002
  91    0.57162155979999996  0.4889514526  0.35385073690000002
  92    0.5171308792  0.46874999049999999  0.40782845649999999
  93    0.46590655920000001  0.44259006769999998  0.44423175739999998
  94    0.43318184189999998  0.42034253760000001  0.45641758919999997
  95    0.42345346109999998  0.41161163150000002  0.4558058344
  96    0.4288474491  0.4203425429  0.4639249882
  97    0.43465656559999999  0.44259007820000001  0.49835835429999997
  98    0.42874253239999999  0.46874999839999998  0.5609215769
  99    0.40924179290000001  0.4889514579  0.6351007488
 100    0.38602023169999999  0.49846756009999998  0.69435386789999998
 101    0.61218341750000005  0.4971847258  0.30460902569999998
 102    0.57780696740000004  0.47970252429999999  0.3574218837
 103    0.53462585299999998  0.44259007210000001  0.4179291846
 104    0.49804687790000002  0.39453122959999998  0.46278797939999999
 105    0.47777719540000002  0.35365991089999999  0.48216472900000001
 106    0.4729367163  0.3376202136  0.48437500560000002
 107    0.47344279970000003  0.35365992060000001  0.48967212630000001
 108    0.4667968783  0.39453124890000002  0.51691457279999997
 109    0.44623750179999999  0.44259008659999999  0.57102230239999996
 110    0.41542719760000002  0.47970253400000001  0.63867189390000001
 111    0.38687815129999997  0.49718472850000001  0.69484918799999995
 112    0.61258754959999995  0.49609374940000001  0.30484235139999999
 113    0.58072066639999997  0.47183683739999999  0.35910410869999998
 114    0.5428670377  0.42034255110000002  0.42268723489999999
 115    0.51318690079999996  0.35365992429999998  0.47152907579999997
 116    0.49878428870000002  0.29695013380000002  0.49429318020000002
 117    0.49624630530000002  0.27469472589999999  0.49783280330000002
 118    0.49444989160000002  0.29695014720000001  0.5018005767
 119    0.48193689849999999  0.35365995119999999  0.52565566770000005
 120    0.45447868450000001  0.42034257120000001  0.57578035149999995
 121    0.4183408951  0.47183685079999999  0.64035411799999997
 122    0.387282283  0.49609375319999999  0.69508251359999995
 123    0.6126526296  0.49566560240000002  0.30487992539999997
 124    0.58118987830000002  0.46874999630000003  0.35937500830000002
 125    0.54419416929999997  0.41161164639999998  0.42345345470000001
 126    0.51562499719999999  0.33762022850000001  0.4729367115
 127    0.50216719759999995  0.27469472589999999  0.49624630359999999
 128    0.5  0.25  0.5
 129    0.49783280029999999  0.2746947408  0.50375369999999997
 130    0.48437499439999998  0.33762025829999998  0.52706330310000005
 131    0.45580581580000001  0.4116116688  0.57654657109999996
 132    0.41881010680000003  0.46875001119999998  0.6406250175
 133    0.38734736289999999  0.49566560659999997  0.69512008749999998
 134    0.61271770979999995  0.49609374989999999  0.30491749940000001
 135    0.58165909110000003  0.47183684110000002  0.35964590839999999
 136    0.54552130350000005  0.4203425616  0.42421967599999999
 137    0.51806309829999997  0.35365994369999998  0.47434434980000001
 138    0.50555011309999998  0.29695016070000002  0.49819943080000001
 139    0.50375370200000003  0.27469475570000002  0.5021672009
 140    0.50121571549999999  0.29695017410000002  0.50570682700000003
 141    0.48681309509999998  0.35365997049999998  0.52847094120000004
 142    0.4571329496  0.4203425817  0.57731279219999998
 143    0.41927931940000002  0.47183685450000001  0.64089591759999998
 144    0.387412443  0.49609375369999997  0.69515766150000002
 145    0.61312184209999998  0.49718472650000001  0.30515082539999999
 146    0.58457279200000001  0.47970252990000001  0.3613281344
 147    0.55376249369999997  0.44259008789999998  0.42897772940000001
 148    0.53320313119999996  0.39453125859999999  0.48308545200000003
 149    0.52655722019999995  0.35365995119999999  0.51032789000000001
 150    0.52706330629999998  0.33762025829999998  0.51562500749999995
 151    0.52222282119999996  0.35365996080000001  0.51783528540000001
 152    0.50195312510000001  0.39453127799999999  0.53721204180000004
 153    0.46537413770000002  0.44259010240000002  0.58207084450000002
 154    0.42219301889999999  0.47970253959999998  0.64257814280000003
 155    0.387816575  0.49718472930000002  0.69539098720000003
 156    0.6139797628  0.4984675596  0.30564614610000002
 157    0.59075820160000003  0.48895145909999999  0.36489928240000002
 158    0.57125747319999998  0.46875000900000002  0.43907846070000001
 159    0.56534346030000004  0.44259010160000001  0.50164167999999998
 160    0.57115258820000003  0.42034258460000001  0.53607503820000002
 161    0.57654657760000005  0.41161168370000001  0.54419418799999997
 162    0.56681818630000003  0.42034258990000001  0.5435824319
 163    0.53409344839999995  0.44259011209999999  0.55576826639999999
 164    0.4828691128  0.46875001690000001  0.59217157320000002
 165    0.4283784256  0.48895146439999998  0.64614928910000002
 166    0.3886744949  0.49846756110000001  0.69588630750000002
 167    0.61509072880000004  0.49945820060000001  0.30628756270000002
 168    0.59876800919999995  0.49609375189999999  0.36952374710000002
 169    0.59391262899999997  0.48895146239999998  0.4521584213
 170    0.60696363840000001  0.47970254070000001  0.52567110149999996
 171    0.62890144179999996  0.47183685749999998  0.56941635489999998
 172    0.64062503039999996  0.46875001859999998  0.58118990059999998
 173    0.62456703599999996  0.47183685939999997  0.57692374639999999
 174    0.57571361889999995  0.47970254439999999  0.57979768340000004
 175    0.50552426279999996  0.48895146519999999  0.60525153050000002
 176    0.43638822929999999  0.49609375369999997  0.65077375150000005
 177    0.38978545980000001  0.4994582011  0.69652772340000002
 178    0.61603554199999999  0.49992485209999998  0.30683305080000001
 179    0.60557989369999998  0.49945820099999999  0.37345659050000002
 180    0.61317954699999999  0.49846756120000002  0.46328218180000003
 181    0.64235922649999999  0.49718473029999999  0.54610675409999998
 182    0.67801354849999995  0.49609375529999999  0.59777124349999999
 183    0.69512010040000005  0.4956656089  0.61265264450000001
 184    0.67367913950000002  0.49609375560000002  0.60527863309999996
 185    0.61110920040000005  0.49718473079999997  0.60023333229999998
 186    0.52479117600000003  0.4984675616  0.61637528819999998
 187    0.44320011059999997  0.49945820130000002  0.65470659310000001
 188    0.3907302721  0.49992485219999999  0.69707321099999997
 189    0.61640632799999995  0.5  0.30704712420000002
 190    0.60825317489999997  0.5  0.3750000101
 191    0.62074072759999999  0.5  0.46764763149999999
 192    0.65625000180000004  0.5  0.55412659720000002
 193    0.69728728510000004  0.5  0.60889894069999995
 194    0.71650634710000005  0.5  0.625
 195    0.69295287490000002  0.5  0.61640632959999997
 196    0.6249999732  0.5  0.6082531739
 197    0.53235235459999997  0.5  0.62074073679999997
 198    0.44587339050000002  0.5  0.65625001189999999
 199    0.39110105769999998  0.5  0.69728728419999997
 200    0.61603554130000004  0.50007514809999998  0.30683305039999997
 201    0.60557988890000003  0.50054180049999997  0.37345658770000001
 202    0.61317953339999998  0.50153244320000001  0.46328217389999998
 203    0.64235920130000002  0.50281527790000002  0.5461067396
 204    0.67801351359999995  0.50390625600000005  0.59777122329999999
 205    0.69512006169999996  0.50433440370000004  0.61265262220000005
 206    0.67367910460000002  0.50390625580000004  0.60527861289999996
 207    0.61110917529999997  0.50281527739999998  0.6002333178
 208    0.5247911623  0.50153244279999998  0.61637528029999999
 209    0.44320010580000002  0.50054180029999995  0.6547065903
 210    0.3907302714  0.50007514799999997  0.69707321060000005
 211    0.61509072769999995  0.50054180010000004  0.30628756200000001
 212    0.59876800109999995  0.50390625330000005  0.36952374240000002
 213    0.59391260619999997  0.5110485521  0.45215840810000002
 214    0.60696359649999998  0.52029748600000003  0.52567107729999996
 215    0.62890138360000003  0.52816317940000002  0.56941632129999997
 216    0.64062496589999995  0.53125002239999997  0.58118986340000001
 217    0.62456697790000004  0.52816317749999997  0.5769237129
 218    0.57571357700000003  0.52029748220000005  0.57979765920000004
 219    0.50552423999999996  0.51104854929999999  0.60525151730000004
 220    0.43638822129999999  0.5039062514  0.6507737468
 221    0.38978545860000002  0.5005417996  0.69652772269999996
 222    0.61397976180000002  0.5015324417  0.30564614559999997
 223    0.59075819439999999  0.51104855019999995  0.36489927820000001
 224    0.57125745269999995  0.5312500174  0.43907844889999997
 225    0.56534342260000003  0.5574099468  0.50164165829999996
 226    0.57115253590000004  0.57965748250000004  0.53607500799999996
 227    0.57654651950000002  0.58838839080000005  0.54419415439999996
 228    0.56681813400000003  0.57965747720000005  0.54358240170000005
 229    0.53409341070000005  0.55740993630000002  0.55576824459999996
 230    0.48286909220000002  0.53125000950000001  0.59217156140000005
 231    0.42837841830000001  0.51104854489999996  0.64614928490000001
 232    0.38867449389999997  0.50153244019999998  0.69588630689999997
 233    0.61312184150000004  0.50281527449999996  0.30515082500000001
 234    0.58457278749999997  0.5202974776  0.36132813190000002
 235    0.55376248110000004  0.55740993319999999  0.42897772220000002
 236    0.53320310810000004  0.60546878010000005  0.48308543869999998
 237    0.52655718819999997  0.64634010259999997  0.51032787150000003
 238    0.52706327080000004  0.66237980129999996  0.51562498700000003
 239    0.52222278919999998  0.64634009290000005  0.51783526690000004
 240    0.50195310209999999  0.6054687607  0.53721202840000004
 241    0.46537412509999998  0.5574099186  0.58207083719999997
 242    0.42219301450000002  0.52029746789999998  0.64257814020000004
 243    0.3878165744  0.50281527179999996  0.69539098690000001
 244    0.61271770960000005  0.50390625109999998  0.30491749930000001
 245    0.58165908970000002  0.52816316630000004  0.35964590759999998
 246    0.54552129969999996  0.57965745950000003  0.42421967370000002
 247    0.51806309120000005  0.64634009510000001  0.4743443457
 248    0.50555010330000005  0.70304989309999999  0.49819942509999998
 249    0.50375369110000001  0.72530530390000003  0.50216719460000003
 250    0.50121570569999996  0.70304987959999998  0.50570682140000001
 251    0.486813088  0.64634006820000001  0.52847093710000004
 252    0.45713294570000002  0.57965743930000002  0.57731279000000002
 253    0.41927931800000001  0.52816315290000004  0.64089591680000002
 254    0.38741244279999998  0.5039062473  0.69515766140000002
 255    0.6126526296  0.50433439759999998  0.30487992539999997
 256    0.58118987830000002  0.53125000369999997  0.35937500830000002
 257    0.54419416929999997  0.58838835359999997  0.42345345470000001
 258    0.51562499719999999  0.66237977150000005  0.4729367115
 259    0.50216719759999995  0.72530527410000001  0.49624630359999999
 260    0.5  0.75  0.5
 261    0.49783280029999999  0.7253052592  0.50375369999999997
 262    0.48437499439999998  0.66237974170000002  0.52706330310000005
 263    0.45580581580000001  0.5883883312  0.57654657109999996
 264    0.41881010680000003  0.53124998879999996  0.6406250175
 265    0.38734736289999999  0.50433439339999997  0.69512008749999998
 266    0.375  0.5  0.71650634710000005
 267    0.63500000000000001  0.5  0.26617314520000002
 268    0.62735371579999999  0.50189144100000005  0.27938712560000001
 269    0.60636106270000001  0.51427593670000005  0.31555253
 270    0.57730427390000005  0.54368200229999997  0.36541750080000002
 271    0.54711586079999996  0.59006179989999996  0.41697532920000002
 272    0.52215195560000005  0.64642819780000005  0.45932685169999998
 273    0.50619662219999995  0.70087765710000005  0.48610524370000002
 274    0.49936436309999999  0.7403296882  0.49731807319999999
 275    0.49826379250000002  0.75473322509999996  0.49899760009999999
 276    0.49735956370000001  0.74032966010000001  0.50079048800000003
 277    0.49106509459999997  0.70087764299999999  0.51231381819999999
 278    0.47585198760000003  0.6464281838  0.53952074750000001
 279    0.45165643909999997  0.59006177179999997  0.58231589500000003
 280    0.42210026369999998  0.5436819812  0.63423872739999998
 281    0.3934443178  0.51427592700000002  0.68433514350000002
 282    0.37262049279999998  0.50189143859999996  0.72059800230000004
 283    0.62726930569999995  0.50158094590000002  0.2793383914
 284    0.60572396480000001  0.51193242800000005  0.31518470139999999
 285    0.57535485980000001  0.53651125369999997  0.364292006
 286    0.54309663720000001  0.57527743809999998  0.41465482920000002
 287    0.51561724630000005  0.62239084290000002  0.45555403550000001
 288    0.49723197530000002  0.66790198980000004  0.48092950229999998
 289    0.48863907480000002  0.70087765570000005  0.49112582500000002
 290    0.48689571180000002  0.71291673730000005  0.49243423559999999
 291    0.48663427660000003  0.70087763219999999  0.49459824050000001
 292    0.48210044829999998  0.66790197799999995  0.50713807720000004
 293    0.46931727890000002  0.62239083110000004  0.53574793170000001
 294    0.44763721670000001  0.57527741460000004  0.57999539590000004
 295    0.42015085060000001  0.53651123609999996  0.63311323320000001
 296    0.39280722029999998  0.51193241990000005  0.68396731509999997
 297    0.3725360828  0.50158094389999996  0.72054926819999998
 298    0.62706888029999996  0.50115241830000001  0.27922267569999998
 299    0.60421122319999998  0.50869805099999998  0.31431131960000003
 300    0.57072612099999998  0.52661459590000004  0.36161960240000002
 301    0.53355328909999999  0.55487290609999995  0.40914497459999999
 302    0.50010106460000003  0.58921585799999998  0.44659576359999997
 303    0.47594608729999999  0.62239085650000003  0.46864008889999997
 304    0.46317267439999998  0.64642821309999998  0.47642279170000001
 305    0.45990304879999999  0.65520400840000004  0.47685001399999999
 306    0.46116787920000002  0.6464281959  0.47989520889999998
 307    0.46081456170000001  0.62239084789999999  0.49484866459999999
 308    0.45380109870000002  0.58921584950000006  0.5267896607
 309    0.43809387170000003  0.55487288899999998  0.57448554289999998
 310    0.415522114  0.52661458309999998  0.63044083090000003
 311    0.39129447979999998  0.50869804519999995  0.68309393389999995
 312    0.37233565759999998  0.5011524168  0.72043355269999998
 313    0.62675276540000002  0.50070880360000003  0.27904016669999998
 314    0.60182529870000001  0.50534980269999996  0.3129338055
 315    0.56342558720000002  0.5163695103  0.35740463719999999
 316    0.51850134150000005  0.53374999960000002  0.40045472840000002
 317    0.4756286515  0.55487289419999997  0.43246660910000001
 318    0.44237358500000001  0.57527743009999999  0.44925699530000002
 319    0.42300658959999998  0.59006178970000001  0.4532328914
 320    0.4173297138  0.59545940959999999  0.45227028720000001
 321    0.42100179920000003  0.59006177910000002  0.45670531130000003
 322    0.42724206180000002  0.57527742479999999  0.47546557239999998
 323    0.42932868800000001  0.55487288889999997  0.51266050750000003
 324    0.42304192870000001  0.53374998900000004  0.56579529949999996
 325    0.40822158380000001  0.51636950240000001  0.62622586769999999
 326    0.38890855689999998  0.50534979899999999  0.68171642070000005
 327    0.37201954320000002  0.50070880269999996  0.72025104390000005
 328    0.62636858399999995  0.50034378570000004  0.2788183595
 329    0.59892563139999999  0.50259477460000002  0.31125968170000001
 330    0.55455308540000003  0.50793958049999999  0.35228209570000002
 331    0.50020837309999999  0.51636950859999997  0.38989327800000001
 332    0.4458867809  0.5266145874  0.41529513179999999
 333    0.4015721726  0.53651124610000001  0.42570028850000002
 334    0.37419184909999997  0.54368199289999997  0.42504968729999998
 335    0.36558938829999998  0.54629995990000002  0.42239799579999998
 336    0.37218706429999998  0.54368198779999999  0.4285221105
 337    0.38644065230000002  0.53651124350000001  0.45190886720000001
 338    0.39958682020000003  0.52661458490000002  0.49548903189999999
 339    0.40474896599999999  0.51636950349999999  0.5552338523
 340    0.39934908619999998  0.50793957670000001  0.62110332869999996
 341    0.38600889150000001  0.50259477279999998  0.68004229810000005
 342    0.37163536229999999  0.50034378530000001  0.72002923689999998
 343    0.62599746810000001  0.50011235430000001  0.27860409559999999
 344    0.59612457809999997  0.50084801140000001  0.3096424928
 345    0.54598232609999997  0.5025947744  0.34733376539999999
 346    0.4825375254  0.5053498018  0.37969100919999998
 347    0.41715639380000002  0.50869804780000005  0.39870763479999999
 348    0.36215836480000002  0.51193242480000001  0.40294471549999999
 349    0.32703723620000003  0.51427593279999995  0.39782495829999998
 350    0.31560868600000003  0.51513152380000005  0.39354162329999998
 351    0.32503245689999999  0.51427593110000003  0.40129738479999999
 352    0.34702684719999999  0.51193242400000005  0.4291532958
 353    0.37085643579999999  0.50869804699999999  0.47890153639999999
 354    0.38707812390000002  0.50534980019999998  0.54503158669999996
 355    0.39077833099999998  0.50259477320000001  0.61615500079999996
 356    0.38320784009999997  0.50084801079999997  0.67842511029999997
 357    0.37126424679999998  0.5001123542  0.71981497329999999
 358    0.62572857150000005  0.50001488599999999  0.27844884809999998
 359    0.59409504010000003  0.50011235430000001  0.3084707384
 360    0.53977227569999997  0.50034378560000003  0.34374839109999999
 361    0.4697338928  0.5007088033  0.3722988283
 362    0.39633943420000001  0.50115241740000005  0.38668895730000002
 363    0.33360059959999999  0.50158094490000005  0.38645688179999999
 364    0.29287077439999998  0.50189143979999995  0.3780989421
 365    0.27939454590000001  0.5020047983  0.37263337940000002
 366    0.2908659992  0.50189143960000004  0.38157137079999998
 367    0.31846908410000002  0.50158094480000004  0.41266546329999998
 368    0.35003947819999998  0.50115241730000004  0.46688286010000002
 369    0.3742744952  0.50070880309999999  0.53763940809999999
 370    0.38456828370000001  0.50034378540000002  0.61256962829999995
 371    0.38117830349999998  0.5001123542  0.67725335669999998
 372    0.37099535049999999  0.50001488599999999  0.71965972600000006
 373    0.62563040010000004  0.5  0.27839216880000001
 374    0.59335407659999995  0.5  0.30804294300000001
 375    0.53750505019999995  0.5  0.34243940789999999
 376    0.46505941820000002  0.5  0.36960001910000001
 377    0.38873937629999999  0.5  0.38230106180000001
 378    0.32317445340000001  0.5  0.38043734330000001
 379    0.28039695069999998  0.5  0.37089717649999998
 380    0.26617313590000002  0.5  0.36499999459999999
 381    0.27839217690000001  0.5  0.37436960609999997
 382    0.30804293849999997  0.5  0.40664592519999998
 383    0.34243942109999997  0.5  0.46249496499999998
 384    0.36960002209999998  0.5  0.53494059969999996
 385    0.38230105930000002  0.5  0.61126064560000004
 386    0.3804373405  0.5  0.67682556149999995
 387    0.37089717929999999  0.5  0.71960304679999998
 388    0.62572857159999995  0.49998511400000001  0.27844884809999998
 389    0.59409504079999997  0.49988764549999998  0.30847073889999999
 390    0.53977227809999995  0.49965621399999999  0.3437483925
 391    0.46973389770000001  0.49929119579999998  0.37229883110000001
 392    0.3963394422  0.49884758109999999  0.38668896190000002
 393    0.33360061060000001  0.498419053  0.38645688820000001
 394    0.29287078760000002  0.49810855770000001  0.37809894970000002
 395    0.2793945598  0.497995199  0.37263338750000002
 396    0.29086601229999998  0.49810855790000003  0.38157137839999999
 397    0.31846909499999998  0.49841905310000001  0.4126654696
 398    0.35003948620000003  0.4988475812  0.46688286470000001
 399    0.37427450020000003  0.49929119599999999  0.5376394109
 400    0.38456828609999999  0.4996562141  0.61256962960000005
 401    0.38117830429999999  0.49988764559999999  0.67725335710000001
 402    0.3709953507  0.49998511400000001  0.71965972609999995
 403    0.62599746820000002  0.49988764559999999  0.2786040957
 404    0.59612457890000004  0.4991519881  0.30964249329999999
 405    0.54598232840000005  0.49740522399999998  0.3473337668
 406    0.48253753030000002  0.49465019500000001  0.37969101199999999
 407    0.41715640180000002  0.49130194700000002  0.39870763939999998
 408    0.36215837579999999  0.48806756800000001  0.40294472180000002
 409    0.3270372493  0.48572405860000001  0.39782496589999999
 410    0.31560869990000001  0.48486846709999998  0.39354163130000003
 411    0.32503247010000003  0.48572406029999998  0.40129739240000001
 412    0.34702685820000001  0.48806756890000003  0.42915330210000002
 413    0.3708564439  0.49130194780000003  0.47890154099999999
 414    0.38707812879999998  0.49465019659999998  0.54503158949999997
 415    0.39077833340000001  0.49740522529999998  0.61615500219999997
 416    0.38320784089999999  0.49915198869999999  0.6784251107
 417    0.37126424689999998  0.49988764569999999  0.7198149734
 418    0.62636858409999996  0.4996562141  0.2788183595
 419    0.59892563219999995  0.4974052243  0.3112596822
 420    0.5545530877  0.492060416  0.35228209710000002
 421    0.50020837799999995  0.4836304843  0.38989328080000002
 422    0.44588678900000001  0.47338540099999998  0.41529513639999999
 423    0.40157218360000002  0.46348873800000001  0.42570029479999999
 424    0.3741918622  0.45631798810000002  0.4250496949
 425    0.36558940229999998  0.45370001999999998  0.42239800379999998
 426    0.37218707750000002  0.45631799319999999  0.42852211810000002
 427    0.38644066329999999  0.4634887406  0.45190887349999997
 428    0.39958682820000002  0.47338540359999998  0.49548903649999998
 429    0.40474897100000001  0.48363048939999997  0.55523385520000001
 430    0.39934908860000001  0.49206041979999998  0.62110333009999996
 431    0.38600889230000002  0.49740522609999999  0.68004229849999998
 432    0.3716353624  0.49965621459999998  0.72002923699999999
 433    0.62675276560000004  0.4992911961  0.27904016679999999
 434    0.6018252999  0.4946501955  0.31293380609999999
 435    0.56342559079999999  0.48363048419999999  0.35740463919999998
 436    0.51850134889999999  0.46624998899999998  0.40045473269999998
 437    0.47562866349999999  0.4451270873  0.43246661600000003
 438    0.44237360149999999  0.42472254450000002  0.44925700480000003
 439    0.4230066093  0.40993817999999999  0.4532329028
 440    0.41732973470000001  0.40454055820000001  0.4522702992
 441    0.42100181889999999  0.40993819050000002  0.45670532270000003
 442    0.42724207829999999  0.42472254980000002  0.47546558189999999
 443    0.42932870000000001  0.4451270926  0.51266051440000004
 444    0.42304193610000002  0.46624999960000002  0.56579530369999997
 445    0.40822158739999997  0.48363049209999998  0.62622586970000005
 446    0.38890855810000002  0.49465019919999997  0.68171642129999999
 447    0.37201954329999998  0.49929119700000002  0.72025104399999995
 448    0.62706888039999997  0.49884758159999998  0.27922267579999999
 449    0.60421122419999995  0.4913019481  0.31431132020000002
 450    0.570726124  0.47338540130000001  0.36161960409999999
 451    0.53355329529999995  0.44512708820000002  0.40914497820000001
 452    0.50010107459999997  0.41078413270000003  0.44659576940000001
 453    0.47594610100000001  0.37760913089999998  0.46864009680000002
 454    0.46317269080000001  0.35357177179999999  0.47642280110000002
 455    0.45990306619999999  0.34479597550000002  0.47685002409999999
 456    0.4611678957  0.35357178890000002  0.47989521839999999
 457    0.46081457549999999  0.37760913940000002  0.49484867249999998
 458    0.45380110870000001  0.41078414130000002  0.52678966650000003
 459    0.43809387779999998  0.44512710529999999  0.57448554650000005
 460    0.41552211700000002  0.47338541420000002  0.63044083259999995
 461    0.3912944807  0.49130195389999998  0.6830939345
 462    0.37233565769999999  0.49884758309999999  0.72043355269999998
 463    0.62726930579999995  0.49841905390000002  0.27933839150000001
 464    0.60572396529999994  0.48806757020000002  0.31518470170000001
 465    0.57535486130000002  0.46348874070000001  0.36429200690000002
 466    0.54309664020000004  0.42472255050000002  0.414654831
 467    0.51561725130000002  0.3776091386  0.45555403840000003
 468    0.49723198219999998  0.33209798489999998  0.48092950629999998
 469    0.48863908299999997  0.29912231389999999  0.49112582980000002
 470    0.48689572050000002  0.28708323050000001  0.49243424060000002
 471    0.48663428479999998  0.29912233739999999  0.49459824530000002
 472    0.4821004552  0.3320979966  0.50713808110000003
 473    0.46931728389999999  0.37760915039999998  0.53574793460000003
 474    0.44763721979999999  0.42472257400000002  0.57999539759999996
 475    0.42015085210000003  0.46348875839999998  0.63311323409999998
 476    0.39280722080000002  0.48806757830000003  0.6839673154
 477    0.37253608290000001  0.49841905590000002  0.72054926829999999
 478    0.62735371579999999  0.4981085589  0.27938712560000001
 479    0.60636106280000002  0.48572406239999999  0.31555253010000001
 480    0.57730427429999998  0.45631799490000002  0.36541750099999998
 481    0.54711586160000003  0.40993819440000001  0.4169753296
 482    0.52215195690000005  0.35357179290000001  0.45932685249999999
 483    0.50619662399999998  0.29912233020000001  0.4861052448
 484    0.4993643653  0.25967029660000002  0.49731807449999998
 485    0.49826379479999999  0.24526675880000001  0.4989976015
 486    0.49735956590000002  0.25967032470000001  0.50079048930000003
 487    0.49106509640000001  0.29912234430000001  0.51231381919999996
 488    0.47585198890000002  0.35357180700000002  0.53952074829999996
 489    0.45165643999999999  0.40993822260000001  0.58231589549999996
 490    0.42210026410000001  0.45631801599999999  0.6342387277
 491    0.39344431790000001  0.48572407210000001  0.68433514360000003
 492    0.37262049279999998  0.49810856129999997  0.72059800230000004
 493    0.62736660749999995  0.4979952003  0.2793945686
 494    0.60645836440000001  0.48486847150000001  0.3156087072
 495    0.57760200110000004  0.45370002840000001  0.36558939369999999
 496    0.5477297029  0.40454057599999999  0.41732973099999998
 497    0.52314997900000004  0.34479600189999998  0.45990306079999999
 498    0.5075657616  0.28708325330000001  0.48689571669999998
 499    0.5010023991  0.2452667654  0.49826379380000002
 500    0.5  0.22999998930000001  0.5
 501    0.4989975995  0.2452667952  0.5017362085
 502    0.49243423390000002  0.28708326820000002  0.5131042911
 503    0.47685001090000001  0.34479601679999999  0.54009695660000001
 504    0.452270281  0.40454060580000001  0.58267029680000004
 505    0.42239799080000001  0.45370005070000002  0.63441062029999995
 506    0.3935416195  0.48486848179999997  0.68439132059999996
 507    0.3726333845  0.49799520289999999  0.72060544530000004
 508    0.62737949920000002  0.49810855910000001  0.2794020116
 509    0.60655566630000002  0.48572406420000003  0.31566488450000002
 510    0.57789972879999996  0.45631800039999998  0.36576128679999997
 511    0.5483435458  0.40993820580000001  0.41768413339999999
 512    0.52414800380000004  0.35357181139999999  0.4604792707
 513    0.50893490279999998  0.2991223556  0.48768619079999997
 514    0.50264043729999996  0.25967032699999998  0.49920951559999999
 515    0.5017362098  0.24526679100000001  0.50100240119999995
 516    0.50063563749999995  0.25967035510000003  0.50268193019999996
 517    0.49380337489999998  0.29912236959999999  0.51389476509999998
 518    0.4778480356  0.35357182549999999  0.54067316639999996
 519    0.45288412369999997  0.4099382339  0.58302469909999999
 520    0.42269571830000002  0.4563180215  0.63458251330000004
 521    0.3936389213  0.4857240739  0.68444749790000003
 522    0.37264627610000001  0.4981085616  0.72061288830000003
 523    0.62746390929999996  0.49841905419999999  0.27945074580000001
 524    0.60719276450000004  0.48806757290000002  0.31603271329999999
 525    0.57984914379999997  0.46348874899999998  0.36688678209999998
 526    0.55236277140000001  0.42472256759999999  0.42000463440000002
 527    0.53068271629999997  0.37760916639999997  0.46425208880000002
 528    0.51789955409999999  0.33209802290000001  0.4928619347
 529    0.51336573090000004  0.29912235939999998  0.50540176680000004
 530    0.51310429599999996  0.28708327880000001  0.50756576900000006
 531    0.51136092990000004  0.29912238289999998  0.50887418070000001
 532    0.5027680256  0.33209803469999999  0.51907050870000004
 533    0.48438274739999998  0.3776091781  0.5444459841
 534    0.4569033481  0.42472259109999999  0.58534519939999996
 535    0.42464513240000001  0.4634887667  0.63570800800000005
 536    0.39427601909999999  0.48806758099999997  0.68481532639999998
 537    0.37273068609999999  0.4984190563  0.72066162249999999
 538    0.62766433479999995  0.49884758200000001  0.27956646159999998
 539    0.60870550649999999  0.4913019508  0.31690609530000002
 540    0.58447788359999997  0.47338540959999997  0.36955918640000002
 541    0.56190612159999997  0.44512710529999999  0.42551449029999999
 542    0.54619890149999994  0.4107841605  0.47321036259999999
 543    0.53918544690000003  0.37760916890000001  0.50515135089999996
 544    0.53883213699999999  0.35357181729999998  0.52010480349999999
 545    0.54009696519999995  0.34479602380000002  0.52314999399999995
 546    0.53682733299999996  0.35357183440000001  0.52357721570000004
 547    0.52405391700000004  0.3776091775  0.53135992399999998
 548    0.4998989311  0.41078416899999998  0.55340425709999996
 549    0.46644669529999999  0.44512712240000002  0.59085505360000001
 550    0.42927387  0.47338542239999998  0.63838041099999998
 551    0.39578876000000002  0.49130195659999998  0.68568870780000002
 552    0.37293111140000001  0.49884758340000002  0.7207773381
 553    0.6279804497  0.49929119649999998  0.27974897059999998
 554    0.61109143129999999  0.49465019869999999  0.31828360970000003
 555    0.59177841860000002  0.48363049380000001  0.3737741523
 556    0.57695807170000002  0.46625000900000002  0.43420473799999998
 557    0.57067131859999998  0.44512711970000002  0.48733951949999998
 558    0.57275795470000002  0.42472258889999998  0.52453444760000001
 559    0.57899822840000004  0.40993823309999999  0.54329470759999998
 560    0.58267030710000001  0.40454061460000001  0.54772972490000005
 561    0.57699341969999995  0.40993824359999997  0.54676711700000002
 562    0.55762642240000004  0.42472259420000003  0.55074301940000003
 563    0.52437134590000001  0.44512712500000001  0.56753341260000001
 564    0.48149864069999998  0.4662500195  0.59954529850000005
 565    0.43657440149999999  0.48363050169999999  0.64259537489999996
 566    0.39817468319999999  0.49465020230000001  0.68706622129999995
 567    0.37324722589999998  0.4992911974  0.72095984690000003
 568    0.62836463119999997  0.49965621440000002  0.27997077790000002
 569    0.61399109900000004  0.4974052263  0.31995773370000002
 570    0.60065092170000001  0.49206042220000001  0.37889669440000001
 571    0.59525104259999995  0.4836304971  0.44476618979999999
 572    0.60041319319999997  0.47338542179999998  0.50451099909999997
 573    0.61355937260000004  0.46348876659999999  0.54809115760000005
 574    0.62781297550000004  0.45631802230000001  0.57147791550000004
 575    0.63441063949999998  0.45370005619999998  0.57760202029999996
 576    0.62580816110000004  0.45631802739999999  0.57495032160000004
 577    0.59842783740000005  0.46348876909999998  0.57429972780000005
 578    0.55411321759999999  0.47338542439999998  0.58470489059999997
 579    0.49979160589999999  0.48363050219999998  0.610106747
 580    0.4454469003  0.4920604261  0.64771791460000006
 581    0.401074349  0.49740522809999999  0.68874034409999996
 582    0.37363140690000002  0.49965621490000001  0.72118165379999999
 583    0.62873574700000001  0.49988764569999999  0.28018504170000003
 584    0.6167921515  0.49915198919999998  0.32157492209999999
 585    0.60922167859999998  0.49740522729999997  0.38384502329999998
 586    0.61292188530000002  0.49465020170000001  0.4549684558
 587    0.62914357229999995  0.49130195799999998  0.52109849149999998
 588    0.65297316949999995  0.48806758309999998  0.57084672430000005
 589    0.67496757519999995  0.48572407670000001  0.59870263690000003
 590    0.68439132800000002  0.4848684862  0.60645838480000003
 591    0.67296275530000005  0.48572407829999997  0.60217503979999998
 592    0.63784163149999995  0.48806758389999999  0.59705529280000003
 593    0.58284359399999996  0.49130195879999999  0.60129238139999996
 594    0.5174624431  0.49465020339999999  0.62030900980000003
 595    0.45401765300000002  0.49740522850000002  0.65266624110000004
 596    0.40387539960000002  0.49915198970000002  0.69035753150000001
 597    0.37400252220000002  0.49988764590000001  0.72139591739999998
 598    0.62900464349999996  0.49998511400000001  0.28034028919999998
 599    0.61882168879999999  0.4998876458  0.32274667600000001
 600    0.6154317265  0.49965621490000001  0.38743039620000003
 601    0.62572551300000001  0.49929119760000001  0.46236063379999998
 602    0.64996052390000003  0.49884758410000002  0.53311716440000001
 603    0.6815309236  0.49841905720000002  0.58733455160000003
 604    0.70913402380000001  0.49810856269999998  0.61842864549999998
 605    0.72060545409999999  0.49799520429999999  0.62736662060000004
 606    0.70712919990000001  0.4981085629  0.62190104609999997
 607    0.66639938369999996  0.49841905730000002  0.61354311900000003
 608    0.60366054359999999  0.49884758420000003  0.6133110531
 609    0.53026606679999999  0.49929119789999998  0.62770118549999998
 610    0.46022769800000002  0.49965621510000002  0.65625161229999995
 611    0.40590493550000001  0.49988764590000001  0.69152928459999996
 612    0.3742714184  0.49998511400000001  0.72155116470000003
 613    0.62910281489999997  0.5  0.2803969684
 614    0.61956265229999996  0.5  0.3231744715
 615    0.61769895200000002  0.5  0.38873937949999998
 616    0.63039998760000004  0.5  0.46505944300000002
 617    0.65756058169999998  0.5  0.53750505989999997
 618    0.69195706990000005  0.5  0.59335409009999995
 619    0.72160784759999996  0.5  0.62563041109999995
 620    0.73382686409999998  0.5  0.63500000540000001
 621    0.71960302220000005  0.5  0.62910281089999998
 622    0.67682552920000005  0.5  0.61956265700000002
 623    0.61126060069999999  0.5  0.61769894820000004
 624    0.53494053990000001  0.5  0.63039999390000001
 625    0.46249492240000001  0.5  0.65756059489999996
 626    0.40664589839999998  0.5  0.69195707979999999
 627    0.37436958970000001  0.5  0.72160784389999999
 628    0.62900464330000005  0.50001488599999999  0.28034028900000002
 629    0.61882168719999997  0.50011235460000003  0.32274667509999999
 630    0.61543172180000005  0.5003437865  0.38743039350000003
 631    0.62572550319999998  0.50070880520000005  0.4623606281
 632    0.64996050790000004  0.50115242049999997  0.53311715510000002
 633    0.68153090159999996  0.50158094909999995  0.58733453889999998
 634    0.70913399749999995  0.50189144480000003  0.61842863029999995
 635    0.72060542620000001  0.50200480359999999  0.62736660450000004
 636    0.70712917360000005  0.50189144460000001  0.62190103090000004
 637    0.66639936170000003  0.50158094900000005  0.61354310629999997
 638    0.6036605276  0.50115242039999996  0.61331104380000001
 639    0.53026605689999995  0.50070880490000003  0.62770117989999996
 640    0.46022769320000001  0.50034378629999998  0.65625160950000005
 641    0.40590493389999999  0.50011235450000002  0.6915292837
 642    0.37427141819999998  0.50001488599999999  0.72155116460000002
 643    0.62873574649999997  0.50011235450000002  0.2801850414
 644    0.61679214839999996  0.50084801249999999  0.32157492030000001
 645    0.60922166899999997  0.50259477770000005  0.38384501780000002
 646    0.61292186559999995  0.50534980860000001  0.4549684444
 647    0.62914354019999996  0.50869805879999996  0.52109847300000001
 648    0.65297312549999997  0.51193243990000004  0.57084669889999995
 649    0.67496752260000004  0.51427595079999999  0.59870260649999996
 650    0.68439127219999996  0.51513154289999996  0.60645835260000003
 651    0.67296270270000003  0.51427594919999997  0.60217500940000002
 652    0.63784158759999998  0.51193243909999997  0.59705526740000003
 653    0.58284356189999997  0.5086980579  0.60129236289999999
 654    0.51746242340000004  0.50534980689999998  0.62030899839999998
 655    0.45401764350000001  0.50259477649999995  0.65266623550000002
 656    0.40387539649999998  0.50084801189999995  0.69035752969999997
 657    0.37400252179999999  0.50011235430000001  0.72139591709999995
 658    0.62836463070000004  0.50034378599999996  0.2799707776
 659    0.61399109510000005  0.50259477679999998  0.3199577314
 660    0.60065090970000001  0.5079395874  0.3788966875
 661    0.59525101790000001  0.51636952280000004  0.44476617559999998
 662    0.60041315309999999  0.52661461060000003  0.50451097600000006
 663    0.61355931760000004  0.53651127779999996  0.54809112589999998
 664    0.62781290980000004  0.5436820309  0.57147787760000002
 665    0.63441056979999999  0.54630000020000002  0.57760198009999997
 666    0.62580809530000003  0.54368202580000002  0.57495028370000001
 667    0.59842778240000005  0.53651127529999998  0.57429969599999997
 668    0.5541131775  0.52661460800000004  0.58470486749999995
 669    0.4997915812  0.51636951769999995  0.61010673280000005
 670    0.44544688830000001  0.50793958360000002  0.64771790770000004
 671    0.40107434510000001  0.50259477509999995  0.6887403419
 672    0.37363140639999998  0.50034378560000003  0.72118165359999997
 673    0.62798044919999996  0.50070880409999996  0.27974897030000001
 674    0.61109142780000003  0.5053498058  0.31828360770000003
 675    0.59177840790000003  0.51636952000000003  0.37377414609999998
 676    0.57695804949999996  0.53375001950000001  0.43420472510000002
 677    0.57067128249999999  0.55487292659999998  0.48733949869999998
 678    0.57275790530000004  0.5752774745  0.52453441909999998
 679    0.57899816920000002  0.59006184279999996  0.54329467350000005
 680    0.58267024440000004  0.59545946589999998  0.54772968870000005
 681    0.57699336050000005  0.59006183229999998  0.54676708289999998
 682    0.55762637289999994  0.5752774692  0.5507429908
 683    0.52437130980000002  0.55487292129999999  0.56753339179999995
 684    0.48149861849999998  0.53375000900000003  0.59954528569999999
 685    0.43657439069999998  0.51636951210000004  0.6425953687
 686    0.39817467969999998  0.50534980220000003  0.6870662193
 687    0.37324722539999999  0.5007088032  0.72095984660000001
 688    0.62766433450000003  0.50115241860000004  0.27956646140000002
 689    0.6087055039  0.50869805369999999  0.31690609380000001
 690    0.5844778759  0.52661460419999995  0.36955918189999998
 691    0.56190610559999998  0.55487292320000003  0.42551448110000001
 692    0.54619887540000001  0.58921588579999995  0.47321034760000003
 693    0.53918541119999996  0.62239089449999996  0.50515133020000003
 694    0.53883209430000001  0.64642825859999997  0.52010477889999995
 695    0.54009691989999997  0.65520405670000004  0.52314996790000001
 696    0.53682729029999998  0.6464282415  0.523577191
 697    0.52405388119999996  0.62239088600000003  0.53135990340000006
 698    0.49989890510000001  0.58921587720000002  0.55340424210000005
 699    0.4664466793  0.55487290609999995  0.59085504430000002
 700    0.42927386220000002  0.5266145914  0.63838040650000005
 701    0.39578875740000002  0.50869804789999995  0.68568870640000001
 702    0.37293111109999999  0.50115241720000003  0.72077733789999998
 703    0.62746390910000005  0.50158094620000004  0.2794507457
 704    0.60719276310000003  0.51193243070000005  0.31603271249999998
 705    0.57984913940000005  0.53651126199999999  0.36688677959999999
 706    0.55236276250000005  0.57527745519999995  0.42000462929999999
 707    0.53068270169999998  0.62239087059999998  0.46425208039999999
 708    0.5178995341  0.66790202779999996  0.4928619232
 709    0.51336570709999996  0.70087770130000004  0.50540175310000002
 710    0.51310427069999998  0.71291678560000005  0.50756575439999996
 711    0.51136090599999995  0.70087767779999999  0.50887416689999998
 712    0.50276800570000002  0.6679020161  0.51907049719999998
 713    0.4843827329  0.62239085890000001  0.54444597569999997
 714    0.45690333919999998  0.57527743170000001  0.58534519419999997
 715    0.42464512799999998  0.53651124439999998  0.63570800549999995
 716    0.39427601759999997  0.51193242260000005  0.68481532560000002
 717    0.37273068599999998  0.50158094419999999  0.72066162239999998
 718    0.62737949910000002  0.50189144119999995  0.2794020116
 719    0.60655566589999999  0.51427593849999997  0.3156648843
 720    0.57789972759999997  0.54368200779999998  0.36576128610000003
 721    0.54834354330000001  0.59006181120000001  0.41768413199999999
 722    0.52414799990000005  0.64642821630000002  0.46047926839999997
 723    0.50893489739999997  0.70087768250000004  0.48768618759999999
 724    0.50264043079999998  0.74032971859999996  0.49920951190000001
 725    0.50173620289999998  0.75473325729999996  0.50100239719999995
 726    0.50063563109999998  0.74032969049999997  0.50268192639999998
 727    0.49380336949999998  0.70087766839999999  0.51389476199999995
 728    0.4778480316  0.64642820229999998  0.54067316409999999
 729    0.4528841213  0.59006178310000001  0.58302469769999998
 730    0.42269571709999998  0.54368198680000002  0.63458251259999998
 731    0.39363892090000002  0.51427592879999995  0.68444749760000001
 732    0.37264627610000001  0.50189143879999998  0.72061288830000003
 733    0.62736660749999995  0.5020047997  0.2793945686
 734    0.60645836440000001  0.51513152849999999  0.3156087072
 735    0.57760200110000004  0.54629997159999999  0.36558939369999999
 736    0.5477297029  0.59545942399999996  0.41732973099999998
 737    0.52314997900000004  0.65520399809999996  0.45990306079999999
 738    0.5075657616  0.71291674670000005  0.48689571669999998
 739    0.5010023991  0.75473323459999997  0.49826379380000002
 740    0.5  0.77000001070000001  0.5
 741    0.4989975995  0.75473320479999995  0.5017362085
 742    0.49243423390000002  0.71291673180000004  0.5131042911
 743    0.47685001090000001  0.65520398319999995  0.54009695660000001
 744    0.452270281  0.59545939420000005  0.58267029680000004
 745    0.42239799080000001  0.54629994930000003  0.63441062029999995
 746    0.3935416195  0.51513151820000003  0.68439132059999996
 747    0.3726333845  0.50200479710000001  0.72060544530000004
 748    0.36499999999999999  0.5  0.73382685479999998
# Generated by C:\Users\Ludvig Magnusson\Documents\Programmering\C++\MinecraftOpenGL\MinecraftOpenGL\Meshes\tetgen.exe -n balls3.poly -nn -e 
