2636  4  0
    1     161   573   559   160
    2     523   123   539   538
    3      32   339   323    43
    4      61   409   394   393
    5     424   426    95    84
    6     453   468   115   105
    7     169   586   572   571
    8     105   469   106   455
    9     165   198   176   581
   10     414    65    76   428
   11     198   565   580   581
   12     229   698   682   240
   13     234   705   690   245
   14     358   403   267   343
   15      29   333   334   319
   16     469   105   468   454
   17     551   166   566   165
   18     529   544   150   545
   19     348   347    49   362
   20     363   362    60   377
   21     100   266   133   111
   22     263   698   714   252
   23      92   420    81    80
   24      65   400    66    54
   25      87    97   443   428
   26     265   232   686   199
   27     291   306    18   292
   28     689   703   688   255
   29      99   430    88    98
   30      41   335   336    40
   31     205   622   637   206
   32     702   312   748   297
   33     304   288   289    18
   34     267   313   433   673
   35     136   148   137   527
   36       6   738   273   274
   37     716   265   732   731
   38     394   393   378    61
   39     397   367   383    64
   40      60    61    50   363
   41     409   425   424    84
   42     364   394    62   379
   43     689   690   234   675
   44     138   150   529   528
   45     105   469   116   106
   46      61   409   393    72
   47      60    72   393   408
   48      63    62   366    51
   49     369    54    65   354
   50     106   472   456   471
   51     106   117   118   471
   52     730   241   714   715
   53      61   410   409    72
   54      62    51    61   364
   55     732   747   266   282
   56      90   419    79   434
   57     104    94    93   438
   58     686   199   672   687
   59      18   290   305   291
   60     408   423    83   424
   61     110   475   460   109
   62      14   285    15     3
   63     263   278   744   728
   64     442   457   108   458
   65      61    60    72   393
   66     139   517   516   531
   67     520   153   143   535
   68     202   662   213   214
   69      37   346   332   331
   70     331    26   317    37
   71     333   318    38   332
   72     418   267   403   343
   73      97    86   442   428
   74     441    96   442   457
   75     261   290     7     8
   76     351    41   352    52
   77     259   710   248   709
   78      43   354   338    54
   79     410   411    84    73
   80     704   719   255   269
   81     333   348    49    39
   82     289    18   290   305
   83      59   361    48   391
   84     724   274   738   259
   85     610   175   594   595
   86      29   337   336    30
   87     412   397    74   411
   88     454   456    95   439
   89     475   476   491   132
   90     267   358   373   388
   91     291   292     8   277
   92     610   640   198   625
   93     296    12   265   311
   94     352   353    53   337
   95     507   521   506   133
   96     261   290   291   276
   97       9    10   263   293
   98     698   229   683   241
   99     242   715   241   253
  100     153   163   563   548
  101     745   730   264   280
  102     364   363    61   378
  103     423    71    83    82
  104      15   300    26   301
  105     133   155   566   144
  106     351    51    52   350
  107     672   597   266   657
  108     697   681   682   228
  109     408   392    60    71
  110       9   307    20   293
  111     730    21   294    10
  112     105   469   468   116
  113      93    82    81   422
  114      24   329    35    25
  115     265   311    12   326
  116      95   457    96   441
  117     708   722   707   247
  118     340   356    44   341
  119      95   427   426   441
  120     338    43    31   323
  121     241   230   229   683
  122     386   370    66   385
  123     498   126   513   497
  124     694   709   708   238
  125     479   524   123   134
  126     716   281   265   731
  127      60   348    50    49
  128     579   164   564   580
  129     597   199   581   582
  130     565   581   165   566
  131      21   309   308   323
  132     372   357   748   417
  133     487   486   129   502
  134     597   672   266   582
  135     162   576   173   577
  136     133   166   566   155
  137     670   209   198   220
  138      33   340    32    44
  139     199   641   596   656
  140     129   517   502   140
  141     477    67   462   266
  142      92   437   451   103
  143     459    98   460   109
  144     200   212   599   644
  145     106   469   470   455
  146     661   677   676   224
  147     162   163   152   562
  148     460    98   110   109
  149     458   109    97   443
  150     447   431    67   446
  151     170   159   169   572
  152     197   196   593   185
  153     282   265   281   747
  154     674   255   222   233
  155     576   575   574   172
  156     578   562   174   577
  157      26   300   315   316
  158      25   330    36    26
  159     226   694   693   237
  160      49    39    38   333
  161      27   317   332   318
  162     264   296   701   716
  163     548   549   563   153
  164     546   544   545   150
  165      93   438   452   104
  166     610   175   640   594
  167     704   269   255   284
  168     537   133   536   522
  169     670   230   684   669
  170     606   636   195   622
  171     163   162   174   562
  172       6    18     7   289
  173     573   572   558   170
  174     265   732   747   266
  175     153   152   548   142
  176     649   664   216   665
  177     576   173   591   575
  178     171   575   172   574
  179     348    60    50   363
  180      75   397   383    64
  181     573   170   171   181
  182     462   537   748   477
  183     449    57   434   123
  184     286     4   720   271
  185     321    30   307   322
  186     173   576   172   575
  187     133   492   507   266
  188     165   550   154   164
  189     393   392    60   408
  190      57    90   123     1
  191     306   304   305    18
  192     132   536   476   521
  193     677   213   224   661
  194     241   714   698   252
  195     228   696   239   697
  196     469   106   470   117
  197     452   466   451   103
  198     283   688   267   703
  199     705   704   690   256
  200     365   395   381   380
  201     390   374    58   389
  202     418   313     1   433
  203     334    39   348   333
  204     450    92   103   102
  205     483   127   126   116
  206     456   439   440   441
  207     449   435    91   434
  208     135   494   509   510
  209      41    52    53   352
  210     103    93    92   437
  211     346   361    48    59
  212     240   228   697   682
  213     511   136   125   526
  214     208   640   197   639
  215     295   296   264   281
  216     267   643   658   568
  217     578   594   197   186
  218     263   240   698   252
  219     277   262   727   743
  220     113   480   103   465
  221      74   398   397   412
  222     217   228   667   666
  223     703   688   255     1
  224     484   485   499   128
  225     269   285   256   270
  226     524   145   134   146
  227     131   534   548   142
  228     453    94   105   104
  229     106   470   117   471
  230     470   117   486   484
  231     718   255   704   719
  232     213   225   662   677
  233     360    70    58    59
  234     388    57     1   373
  235     480   494   124   495
  236     598   643   267   583
  237      59    82   407   422
  238     270   271   720   735
  239      29    19    18   306
  240     462   266   447   552
  241     123   156   189     1
  242     133   266   199   166
  243     350    61    51   364
  244     294   293   263   308
  245      48    49   347    59
  246     153   534   548   549
  247     468   467   453   115
  248     108   131   458   473
  249     105   455   106   454
  250     544   161   149   150
  251     600   599   585   190
  252     490   109   474   475
  253      24   329   314    35
  254     128   139   516   514
  255     227   667   228   666
  256     139   498   127   138
  257     421   437    92    81
  258      95   457   456    96
  259     373   389    57   374
  260     422   406    70    81
  261     427    86   413   428
  262     310   311    22   296
  263     730   252   253   264
  264      96   107   108   457
  265     471   456   106   455
  266     397   367    64    63
  267     547   548   562   152
  268     130   473   119   457
  269     104   467   453   452
  270     514   516   128   515
  271     232   265   266   199
  272     423    71    82   407
  273     426   440   424   439
  274     100   431    99   446
  275     231   670   220   230
  276     262   261   277   727
  277     454   105    95   106
  278     345    47    58   330
  279     105   115   116   468
  280     360    59    58    48
  281      34   311    23    33
  282     407   422    82   423
  283     332   346    48    59
  284     428    86   442   427
  285     199   612   596   611
  286     453    94   104   438
  287     586   601   180   191
  288     341    44   340   325
  289     439   438   423    94
  290     601   600   631   615
  291     589   193   604   603
  292     409   424   408    84
  293     482   468   126   115
  294      70   406    59   391
  295     674   255   688   673
  296     601   631   616   615
  297     438   422    93   437
  298     377   363   378   393
  299      97    87    86   428
  300      95   423    94   439
  301     297   265   282   266
  302     473   458   108   457
  303     130   472   487   488
  304     512   482   481   496
  305      95   453   439    94
  306      96   426   427    85
  307     141   151   152   547
  308      87   428   429   414
  309     426    96    95    85
  310      95   423   439   424
  311     123   478   493   479
  312      95   457   441   456
  313     488   487   130   503
  314     424    83    95    94
  315     111   461   110   122
  316     407   391   361    59
  317      70   422    59   406
  318     100   431   446    89
  319      48    38    37   332
  320     499   485   500   515
  321     613   629   189   614
  322      96   108    97   442
  323     108   107   119   457
  324     351    63    52   367
  325     456   107    95    96
  326      61   350    51    50
  327      95   427   441    96
  328     441   427   442    96
  329     409    72    84   408
  330      43   339   323   338
  331      17   303     5    16
  332     381   366    62   365
  333     107   456   472   457
  334     408   407   392    71
  335      86    75    85   427
  336     198   176   580   565
  337      65    75   413   398
  338      52   367    63    64
  339      44   355   340    43
  340     438    94    82   423
  341     381   396    62   366
  342      96   108   442   457
  343     457   473   119   108
  344     519   518   131   533
  345     600   169   586   180
  346     398    64    75   383
  347     153   549   563   164
  348     164   550   153   549
  349     529   530   150   139
  350     454   456   455   106
  351      38    59   332    48
  352     711   249   250   710
  353      36   345    47    37
  354     489   131   474   120
  355     424   408    84    83
  356      48    49    38   347
  357     482   467   125   481
  358     342   266   432   357
  359      95   427    96   426
  360     530   516   514   515
  361     407   406    59   422
  362     370    43   400   354
  363     438   422    82    93
  364     423   422    82   438
  365      97    96   442    86
  366      82    94    83   423
  367     332   347    38   333
  368     413   412    75   427
  369     477   266   462   537
  370     412   426    84    85
  371     424   426   439    95
  372      83    72    71   408
  373      95   453    94   454
  374     423   407   408    71
  375     409   408   393    72
  376      39   334   348    40
  377      33   310   325    22
  378      72    84    73   409
  379      42   337    41    53
  380     379   394    62   395
  381     410    84   409    73
  382     304   306    29    18
  383     396   366   382    63
  384      62    51   364   366
  385      73   397   411    74
  386     720   235   245   705
  387     424   426   425   440
  388     366   396   382   381
  389     411   426   425    84
  390     338    31    42   322
  391     519   474   490   520
  392     368   353    65    53
  393     411   426    84   412
  394     426   424   425    84
  395      95   426    85    84
  396     412   427   426    85
  397     362   392   377   376
  398      75    86   413   427
  399     413   412   398    75
  400      20    31   308   322
  401      42    53    54   353
  402     694   696   238   227
  403     365   366    62   364
  404     367   397   383   382
  405      40    51    52   351
  406     395   365    62   379
  407      61   410   394   409
  408     334   349    40   335
  409     687   672   748   567
  410     365   380   379   395
  411      61   410    73   394
  412     410    73   394   396
  413     396   395   394   410
  414     747   732   748   282
  415     730   241   252   714
  416     363   362   348    60
  417     379   365    62   364
  418     255   268   269   733
  419      62    73   396   394
  420     304   306   319    29
  421     396   395    62   394
  422     176   198   187   581
  423     364   394   379   378
  424     381   395    62   396
  425     397   367    63   382
  426      62    61    73   394
  427     348   347   333    49
  428      38    39    28   333
  429     365   395    62   381
  430     267   298   673   688
  431     145   156   554   123
  432     739   274   260   275
  433      46   344   329    57
  434     165   198   565   176
  435     319   318   303    28
  436     263   240   713   698
  437     332    37   331   317
  438     508   123   524   523
  439     189   167   554   178
  440      15    26    27   317
  441       6   274     7   259
  442     527   526   125   542
  443     264    11   310   295
  444      47   360   345    58
  445     346    37   332    48
  446     485   501   500   515
  447     407   391    59   406
  448     242   715   700   241
  449     251   712   728   713
  450     204   216   649   648
  451     292   307    19     9
  452      77    78    67   416
  453     712   251   728   262
  454      87   400    76   414
  455     246   236   235   692
  456     304   288    18    17
  457     260   259   274   724
  458     304    28    17    29
  459     574   588   573   171
  460     581   166   566   177
  461     263    20   308   293
  462     214   226   215   663
  463      28    16   318   303
  464     304    28   303    17
  465     289     6    18   288
  466     511   466   481   114
  467      73   397   396   411
  468     432   327   447   266
  469      29   304    18    17
  470     274   290   276   275
  471     160   573   559   558
  472      26   317   301   316
  473     306   320   304   319
  474     714   241   699   715
  475     297   265   296   282
  476     272     6   288     5
  477      14   284   256     3
  478      38    59    48   347
  479     182   172   589   183
  480      65    42   338    54
  481      20   307   308   293
  482     746   730   264   745
  483     592   608   196   593
  484     295    21   309   294
  485     449   435   102    91
  486     176   595   580   175
  487     166   266   155   133
  488     322   337    42   338
  489     583   123   569   584
  490     369    65   399   384
  491     392   407    59    71
  492     344    35    36    46
  493     319    28   333   318
  494     346   391    48   361
  495      29   303   319   304
  496      29   303   304    28
  497     292   307   306    19
  498     631   201   646   600
  499     369    54   354   399
  500     595   175   594   579
  501      44   355    43    55
  502      30   336    41   337
  503      38    28   318   333
  504      59    82    70   407
  505     306   319    29   321
  506     347    49    38   333
  507      53    52    64   352
  508     354    43   339   355
  509     349    40   350    51
  510      29   307    30   306
  511     319   306   320   321
  512     542   136   526   125
  513     347   346    59   361
  514     392   362   361   376
  515      40   350    51   351
  516     332   318    38    27
  517      37    27    26   317
  518      37    27   317   332
  519     397    63    74   382
  520     257   258   247   722
  521      30   321   337   322
  522      38    27    37   332
  523     147   136   480   526
  524      42    30   337   322
  525      90   449    91   434
  526      30    41    42   337
  527      29   337   321   336
  528      18   292     8   291
  529      28   334   333    39
  530      29    41   336    40
  531      38    28    27   318
  532     535   536   132   521
  533      53   352   368   353
  534     368   367    64   383
  535      73    63    62   396
  536     104   467   114   115
  537     632   602   192   191
  538      40   348   349   334
  539     397   398    75   383
  540     460   132   121   110
  541     474   519   120   520
  542      70   360    81   406
  543     458   474   109   459
  544     393   363    60   377
  545     714   241   698   699
  546     336    41   351   335
  547     393   392   377    60
  548      63   350   351    52
  549     442   428   443    97
  550      65   400    54   399
  551      61    60   393   363
  552      41    29   336    30
  553      41   351   335    40
  554     336   319   321    29
  555     186   593   185   197
  556     348   363    50   349
  557     474   519   490   489
  558     352    53   368    64
  559     352   337    53    41
  560     369    54   399    65
  561     490   519   505   489
  562      40    50   348    39
  563     364   378    61   394
  564     364   366   350   365
  565     351    63   367   366
  566     349    61   363    50
  567     386   371    67   401
  568     205   618   193   204
  569     411   396    73   410
  570     349    61   364   363
  571      73   382    63   396
  572      73   382   396   397
  573      63    62   396   366
  574     100   461    99   111
  575      51   366   350   364
  576     367    52   351   352
  577      50    51    40   349
  578     349    51   350    50
  579     132    99   461   110
  580      63   350    51   366
  581     368   398   384   383
  582      63   350   366   351
  583     123   508   509   493
  584      78    67   446    89
  585     471   117   118   470
  586     340    44    66    55
  587     162   152   547   562
  588     282   266   717   297
  589     340    32   324   325
  590     223   690   675   234
  591     152   533   142   141
  592     154   143   550   132
  593     279    10   294   263
  594      11    12   265   296
  595     263    10   294   308
  596     728   744   743   278
  597     323   322   308    31
  598     339    32   323   324
  599     640   186   175   187
  600      20   322   308   307
  601     656   581   596   199
  602     133   100   446    67
  603      88   415   430    77
  604     730   252   263   729
  605     338   322   323    31
  606     307     9    20    19
  607     414   428    76    87
  608     158   540   555   556
  609     239   250   251   712
  610     654   197   208   668
  611     510   147   525   480
  612     339    32   340    43
  613     205   618   633   634
  614      16    28    17   303
  615     741   276   726   742
  616     265   326    23    34
  617     240   252   241   698
  618     278   262   743   728
  619      22   295    21   310
  620     156   569   554   167
  621     552   462   748   447
  622     385   369   399   384
  623     164   580   175   176
  624      10   729   294   730
  625     265   264   296   701
  626     371   355    66   370
  627     271   287   286   257
  628     253   242   700   264
  629     467   104   453   115
  630     477   492   133   266
  631      58   360   375   390
  632     292   306    18    19
  633     293   292     9   307
  634     477    67   133   476
  635     743   277   742   727
  636     148   527   542   543
  637      15   317   302   301
  638     293   292   278     9
  639     502   129   516   486
  640     530   150   531   545
  641     280   281   295   264
  642     158   571   557   556
  643     309    32    21   310
  644     231   700   242   685
  645     699   230   700   241
  646     699   230   684   700
  647      26   330    37   331
  648     295   296   310   264
  649      55    66    67   356
  650     399   398    65   413
  651     274     7   276   290
  652     235   691   692   677
  653     696   694   680   679
  654     291   306   305    18
  655     639   638   197   653
  656     174   186   175   578
  657     130   118   129   487
  658     203   202   647   191
  659     709   238   710   249
  660     652   666   216   217
  661     633   603   193   192
  662     696   695   694   238
  663     277   278   262   743
  664     214   663   647   662
  665     279   263   744   729
  666     370   385   399   400
  667     263   240   252   713
  668     609   186   197   594
  669     744   729   745   279
  670     270    15   720   286
  671      20    30   322   307
  672     422   437   421    81
  673     279    10   729   294
  674     276   277   261   742
  675       8   262   261   277
  676     294   293   279   263
  677     370   399   369   354
  678     220   655   219   670
  679     242   715   253   700
  680     714   713   263   729
  681     549   564   563   164
  682     294    21   308    10
  683     727   250   711   712
  684      65    42   353   338
  685     231   700   230   242
  686     655   656   670   198
  687     259   710   709   724
  688     278   292   262     9
  689     277   278   292   262
  690     227   237   238   694
  691     291   261   276   277
  692      16   318   302    27
  693     291     7   290     8
  694     259   273     6   738
  695     127   513   498   126
  696     261   710   249   726
  697     388   358   373     1
  698     704   234   233   689
  699     284   255   268   269
  700      67   326   342   327
  701     727   250   712   262
  702      91   420    80   435
  703     385   370   399   369
  704     193   590   182   589
  705     259   710   249   248
  706     261   742   726   276
  707     226   678   236   693
  708     649   216   650   665
  709     592   196   184   185
  710      22   295   310    11
  711     489   519   505   504
  712     264   231   685   701
  713     489   131   120   519
  714      33   311    23    22
  715     230   700   241   242
  716     492   477   522   266
  717     492   266   522   507
  718     188   177   566   199
  719     219   640   208   654
  720     264   231   242   685
  721     232   701   231   243
  722     729   252   263   714
  723     131   142   520   519
  724     687   447   266   567
  725     219   640   654   655
  726     670   656   220   198
  727     236   707   693   692
  728     544   160   543   149
  729     610   186   594   640
  730      31    43    32   323
  731     356   340    44    66
  732     456   454   455   440
  733      11   730    10    21
  734     730   731   746   264
  735     716   296   265   281
  736     729   252   714   730
  737      87   430   415   429
  738      88   415    87   430
  739     747   731   265   746
  740      69   404    58    57
  741      98   429   443   444
  742     731   281   265   746
  743     522   133   507   266
  744      33   310    22    32
  745     243   265   254   266
  746     474   458   109   120
  747     640   197   186   198
  748     282   732   717   266
  749     132   461   460   476
  750     488   518   504   503
  751      66    76    77   400
  752     297   282   748   717
  753      25   300   315    26
  754     656   670   220   671
  755     309    32   310   324
  756      76    75   413    65
  757     520   131   120   132
  758      66    88   416   430
  759     265    34    23   266
  760     600   179   180   190
  761      34   341   326    33
  762     656   220   198   209
  763     421   436    92   437
  764     187   580   595   198
  765     595   596   611   198
  766     281   264   746   731
  767      23   266    12   265
  768     701   296   265   716
  769      67   372   356   371
  770     717   282   748   732
  771     210   656   671   199
  772     133   461   536   476
  773     264   701   700   716
  774     537   266   522   477
  775      72    71   408    60
  776     456   107   472   106
  777     715   716   264   700
  778     579   164   580   175
  779     265   253   264   701
  780     310    32    21    22
  781     702   297   748   717
  782     264   296   716   281
  783      23   265    12   326
  784     296   310   264    22
  785     414   413   399    65
  786     108   120   109   458
  787     116   484   117   470
  788     567   552   447   266
  789     459   443   109   458
  790     312   297   702   266
  791     199   611   596   641
  792     597   657   612   266
  793     133   111   446   100
  794     133   491   521   506
  795      66   415    77   430
  796     166   133   566   199
  797     417   372   266   402
  798      78    67   431   446
  799      43   400   354    54
  800     132    99   110   445
  801     521   133   536   476
  802     454   456   106    95
  803     429    98   443    87
  804     581   166   177   165
  805     133   132   536   461
  806     155   536   154   551
  807     296   282   265   281
  808     672   266   567   687
  809     472   118   106   107
  810     578   163   174   562
  811     655   209   198   670
  812     210   656   199   209
  813     357    67   341   342
  814      44   356    55    56
  815     356    56    67    55
  816     132   535   520   143
  817     187   199   581   198
  818     327   312   748   687
  819     311    33   325    22
  820     296    23   311    22
  821     261   710   726   711
  822     254   243   686   265
  823     254   265   686   701
  824     232   701   243   686
  825     400   401    66   386
  826     243   701   242   254
  827     631   190   201   600
  828     552   537   462   266
  829     504   131   489   519
  830     100   461   446    99
  831     501   515   128   516
  832     717   266   702   297
  833      98   459   443   109
  834     687   312   702   266
  835     642   266   612   657
  836     627   266   612   642
  837     582   597   199   266
  838     689   703   255   704
  839     442   458   108    97
  840     687   266   327   312
  841     520   475   132   121
  842     165   580   565   164
  843     551   166   165   155
  844     442    97   443   458
  845      45   356   341    44
  846     121   461   110   132
  847     303   318   302    16
  848     612   657   748   642
  849     443   428   429    87
  850     585   169   570   571
  851     297    67   266   312
  852     399   398   384    65
  853      57   358     1   373
  854     171   589   172   575
  855     154   535   143   153
  856      42    43    31   338
  857     469   117   470   116
  858     402   372   748   417
  859     490   491   506   132
  860     341   325   326    33
  861     338   354    65    54
  862     398   368   384    65
  863     520   109   120   474
  864     550   551   565   154
  865     586   169   572   180
  866      97    98    87   443
  867     642   199   627   266
  868     582   266   567   672
  869      33   340    44   325
  870     671   657   672   199
  871     447   687   266   327
  872     100   266    89    67
  873     372   402   748   387
  874     336   335   334    40
  875     552   199   266   567
  876     133   266   122   111
  877     189   598   613   599
  878     327   687   748   447
  879     447   432   748   327
  880     372   417   266   357
  881     357   432   748   417
  882     642   657   199   266
  883     327   266   432   342
  884     537   522   748   477
  885     447   567   748   552
  886      94   438    82    93
  887     382    73    63    74
  888     492   477   748   522
  889     369   368    65   384
  890     432   266   417   357
  891     720     4   256   257
  892     415    87   429   414
  893     447   687   748   567
  894      45   356    44    56
  895     522   133   521   507
  896     569   167   178   554
  897     562   163   563   578
  898     266   372   387   402
  899     522   507   748   492
  900     537   462   748   552
  901      67   477   133   266
  902     232   199   266   221
  903     417    67   402   266
  904     402    67   387   266
  905     400    87   415   414
  906     342   357    67   266
  907     419    57   403   404
  908      66    54   400    55
  909     627   612   748   642
  910     702   687   748   312
  911     432   342   748   327
  912     432   357   748   342
  913      25   330   315    36
  914     657   612   748   597
  915     672   657   748   597
  916     582   672   748   597
  917     567   672   748   582
  918     711   239   250   238
  919     139   517   531   140
  920      44   341    45    33
  921     186   640   175   594
  922     634   635   636   194
  923     462    67   446   447
  924     512   527   125   137
  925     708   707   693   247
  926     144   551   566   133
  927      78   416   431    67
  928     105   454   469   455
  929     686   231   685   671
  930     400   385    66   370
  931     116   117   106   469
  932     161   547   162   546
  933      91   420    92    80
  934     111   461   122   446
  935     120   108   131   458
  936     229   230   219   683
  937     204   216   205   649
  938     571   572   169   557
  939     557   159   542   558
  940     175   579   563   578
  941     534   533   519   131
  942     416    89   431    88
  943     107   118   119   472
  944     641   596   198   611
  945     502   139   129   140
  946     489   518   131   504
  947     456   439   441    95
  948     140   518   532   141
  949     273   272     5     6
  950     312    67   326   311
  951      77   400   415    66
  952     436   420   421    92
  953     457   472   107   119
  954     530   529   150   545
  955     523   508   123     1
  956     513   528   138   529
  957     531   546   150   532
  958     473   518   488   130
  959     131   141   533   518
  960     533   532   141   547
  961     148   558   542   159
  962     120   473   131   108
  963     131   119   130   473
  964     531   517   532   140
  965     161   151   546   162
  966     484   485   486   470
  967     513   139   514   529
  968      67   266   133   100
  969     129   471   486   487
  970     100   431    89    99
  971     138   150   139   529
  972     127   513   138   498
  973     471   487   118   472
  974     236   237   226   693
  975     347    59   362   361
  976     517   518   141   503
  977     129   470   471   118
  978     139   498   513   514
  979     128   127   484   117
  980     129   471   487   118
  981      45   341    56   326
  982      67   266    89    78
  983     265   266    67    34
  984      67   357   341   356
  985     282   265   747   266
  986      45   356    56   341
  987     155   536   551   144
  988      45   266    67    56
  989      45    34    67   266
  990     265    34    67   326
  991      45   326    67    34
  992      56   326    67    45
  993      89    67   446   100
  994     238   695   239   696
  995     521   133   476   491
  996     155   266   144   133
  997     129   128   516   486
  998     581   177   188   176
  999     551   199   566   133
 1000     260   259     7   274
 1001     461    99   445   446
 1002     611   595   198   610
 1003     132   445   110   460
 1004     627   611   199   626
 1005     350    63    51    52
 1006     514   484   127   498
 1007     591   607   184   592
 1008     199   641   626   611
 1009     387   401   386    67
 1010     177   166   566   199
 1011     177   266   199   188
 1012     177   166   199   266
 1013     265   232   266   243
 1014     199   686   221   232
 1015     210   266   199   221
 1016     220   656   210   209
 1017     581   188   566   199
 1018     198   610   595   640
 1019     121   460   475   132
 1020     671   210   199   686
 1021     453   105   115   104
 1022     265   232   243   686
 1023     221   656   220   671
 1024      44   356    66    55
 1025     187   581   188   176
 1026     490   132   505   520
 1027     431    89    78   446
 1028     657   672   199   266
 1029     165   198   581   565
 1030     717   199   701   702
 1031     627   641   626   199
 1032     717   265   266   732
 1033     100   461   111   446
 1034     334   336    29   319
 1035     551   165   154   155
 1036     143   144   133   536
 1037     122   111   446   133
 1038     252   730   263   264
 1039     176   198   580   187
 1040     459    98   443   444
 1041     506   490   132   505
 1042     386   400   385    66
 1043     552   536   199   551
 1044     430   431    88   416
 1045     581   177   566   188
 1046      66   355   340    55
 1047     154   535   153   550
 1048     736   722   257   721
 1049     265   732   731   747
 1050     339    32   324   340
 1051     416   356   401    67
 1052      66    67   416    77
 1053      77    78   416    88
 1054     155   551   566   144
 1055     595   596   198   580
 1056     430   431   445    88
 1057     446    99   445   431
 1058     416    89    88    78
 1059     154   535   550   143
 1060     165   550   565   154
 1061      57   283   299   284
 1062     230   670   219   669
 1063     626   610   198   625
 1064     220   655   670   209
 1065     199   198   209   656
 1066      99   430    98   445
 1067     666   680   664   679
 1068     122   461   133   446
 1069      99   460   445    98
 1070      29   333   319    28
 1071     165   580   176   565
 1072      33   310    32   325
 1073     198   656   596   641
 1074     398   368    65    64
 1075     169   159   158   557
 1076     280   746   264   745
 1077     109   520   120   121
 1078     610   611   626   198
 1079     176   595   187   580
 1080     187   640   595   175
 1081     626   640   625   198
 1082     231   670   685   220
 1083     519   142   520   534
 1084     486   501   516   502
 1085     741   739   740   725
 1086     647   646   191   662
 1087     544   546   161   150
 1088     625   186   640   639
 1089     139   502   129   516
 1090     625   186   639   609
 1091     531   546   545   150
 1092     161   573   574   559
 1093     531   516   139   530
 1094     150   140   532   151
 1095     148   160   149   543
 1096     136   542   526   147
 1097     533   532   518   141
 1098     139   502   516   517
 1099     593   638   197   608
 1100     533   152   547   141
 1101     141   517   503   130
 1102      69   420   405    58
 1103     196   622   637   623
 1104     189   156   554   167
 1105     148   543   542   558
 1106       1    79    57    90
 1107     452   114   466   103
 1108     360    47    48    58
 1109     131   152   533   142
 1110     513   512   497   126
 1111     415   401    66   400
 1112     234   244   704   233
 1113     562   547   162   561
 1114     636   651   650   205
 1115     271   721   735   736
 1116     187   640   198   595
 1117     362   348    60    49
 1118     544   546   559   161
 1119     173   591   575   172
 1120     528   527   512   137
 1121      57   314   328   329
 1122     529   544   528   150
 1123     544   528   150   149
 1124     222   689   674   233
 1125     532   546   150   151
 1126     532   547   546   151
 1127     140   151   141   532
 1128     295   730   280   264
 1129     147   159   542   557
 1130     512   125   482   126
 1131     164   579   563   175
 1132     573   170   181   587
 1133     625   639   624   609
 1134     162   546   547   151
 1135     683   230   219   669
 1136     161   547   546   561
 1137       1   222   189   255
 1138     577   562   162   561
 1139     589   183   590   182
 1140     592   577   185   173
 1141     533   142   141   131
 1142     558   160   148   543
 1143     588   587   573   181
 1144      29   333    28   334
 1145     417    67   431   416
 1146     593   638   196   197
 1147     578   175   163   563
 1148     548   152   163   562
 1149     562   548   563   163
 1150     219   218   668   208
 1151     664   666   227   216
 1152     174   197   578   593
 1153     163   164   153   563
 1154     646   201   202   213
 1155     302    16   287   303
 1156     170   160   159   558
 1157     162   174   562   577
 1158     174   577   173   185
 1159     174   577   593   578
 1160     577   196   185   593
 1161     185   577   593   174
 1162     193   633   192   204
 1163     511   512   481   496
 1164     651   666   216   652
 1165     226   679   663   678
 1166     240   251   252   713
 1167     246   271   257   721
 1168     720   257   256   246
 1169      44   355    55   340
 1170      16    28   318    27
 1171     634   604   618   619
 1172     193   633   204   618
 1173     438   453   452   104
 1174     437   438   452    93
 1175     577   196   592   185
 1176     181   191   602   587
 1177     576   559   560   561
 1178     171   589   588   182
 1179     652   667   217   207
 1180     161   543   160   559
 1181     160   574   573   171
 1182     463    57     1   448
 1183     161   547   561   162
 1184     159   170   558   572
 1185     170   572   587   573
 1186     152   533   547   548
 1187     160   573   558   170
 1188      24   299    25    13
 1189     246   721   257   706
 1190     221   231   671   220
 1191     559   543   160   558
 1192       7   261   260   276
 1193     197   608   624   609
 1194     635   605   619   620
 1195     573   588   181   171
 1196     492   133   476   477
 1197     227   217   666   228
 1198     193   194   183   604
 1199     711   261   727   726
 1200     606   604   605   590
 1201     648   632   192   203
 1202     636   634   205   650
 1203     161   173   576   172
 1204     186   593   197   174
 1205      32   340    43    44
 1206     606   605   194   621
 1207     172   589   590   575
 1208     606   604   194   605
 1209     723   273   737   258
 1210     225   662   677   678
 1211     172   183   184   591
 1212     591   173   592   184
 1213     571   158   557   169
 1214     631   600   646   630
 1215     336   320   334   335
 1216     172   590   183   591
 1217     197   609   624   639
 1218     204   649   633   648
 1219     606   184   195   183
 1220     652   637   206   651
 1221     591   183   184   590
 1222     589   193   603   182
 1223     603   589   182   588
 1224     205   195   194   636
 1225     298    57   299   314
 1226     171   574   589   575
 1227      72   410   409    73
 1228     633   205   634   649
 1229     634   193   618   604
 1230     605   621   620   635
 1231     610   186   609   594
 1232      30    20    19   307
 1233     151   161   546   150
 1234     183   604   606   590
 1235     227   237   694   226
 1236     199   687   266   672
 1237     636   621   622   606
 1238     229   682   683   668
 1239     156   569   157   554
 1240     607   184   606   591
 1241     606   184   183   590
 1242     337    42   353    53
 1243     194   604   619   605
 1244     194   621   636   606
 1245     635   621   636   194
 1246     125   512   482   481
 1247     194   205   636   634
 1248     635   605   194   619
 1249     605   635   194   621
 1250     594   593   578   197
 1251      26   331   317   316
 1252     664   648   216   215
 1253     651   666   665   216
 1254     258   259   248   723
 1255     270    15   286   285
 1256     289   304    18   305
 1257     186   174   197   578
 1258     722   708   258   247
 1259     711   261   250   727
 1260     634   604   619   194
 1261     194   635   619   634
 1262     727   250   262   261
 1263     572   159   557   558
 1264     462    67   461   446
 1265     638   608   196   623
 1266     239   227   696   228
 1267     249   238   248   709
 1268     231   700   685   230
 1269     669   668   219   683
 1270     696   679   680   681
 1271     697   239   240   251
 1272     197   207   653   638
 1273     593   638   608   196
 1274     161   173   162   576
 1275     136   480   125   124
 1276     251   250   262   712
 1277     391   361   375   376
 1278     705   719   704   256
 1279     226   679   678   693
 1280     697   712   239   251
 1281     330    26   315   316
 1282     247   257   722   707
 1283     288   287   272     5
 1284     707   236   693   247
 1285     257   236   692   707
 1286     236   693   247   237
 1287     639   208   654   197
 1288      19     9     8   292
 1289     410    84   425   409
 1290     257   271     4   286
 1291     637   638   207   623
 1292     255   718     1   733
 1293     174   175   163   578
 1294     216   204   215   648
 1295     640   209   208   198
 1296     227   693   694   679
 1297     227   667   666   681
 1298     601   631   180   191
 1299     653   218   667   207
 1300     610   175   595   640
 1301     668   654   219   208
 1302     697   698   240   682
 1303     594   175   578   579
 1304      14   300   284   299
 1305     587   586   572   191
 1306      57    47    46   344
 1307     230   669   683   684
 1308     417    67   416   402
 1309     216   650   665   651
 1310     698   241   683   699
 1311     230   699   683   241
 1312     233   704   689   244
 1313     214   203   647   663
 1314     681   228   667   682
 1315     218   653   208   207
 1316     654   653   639   197
 1317     587   586   191   601
 1318     206   638   637   652
 1319     662   678   214   663
 1320     229   228   682   218
 1321      31    32    21   323
 1322     129   470   486   471
 1323     460    98   444   445
 1324     653   652   638   207
 1325     608   638   624   623
 1326     648   663   215   664
 1327     668   669   219   654
 1328     330    26   316   331
 1329     664   226   663   215
 1330     600   645   630   190
 1331     600   586   631   180
 1332     197   218   653   208
 1333     227   664   216   215
 1334     227   663   664   226
 1335     226   214   678   663
 1336     214   663   215   203
 1337     682   668   218   667
 1338     682   229   218   668
 1339     178   189   569   554
 1340     225   678   214   662
 1341     214   225   226   678
 1342     127   139   128   514
 1343     509   146   525   524
 1344     110   475   109   121
 1345     229   219   218   668
 1346     300   285     3   256
 1347     227   663   679   664
 1348     227   667   681   228
 1349     227   693   679   226
 1350     706   692   257   246
 1351      34   341    33    45
 1352      34   311    33   326
 1353     625   186   609   610
 1354     608   607   196   623
 1355     195   194   636   606
 1356     234   689   223   233
 1357     608   592   196   607
 1358     638   637   207   206
 1359     653   652   207   667
 1360     567   199   266   582
 1361     634   649   205   650
 1362     603   602   192   617
 1363     633   632   192   648
 1364     588   587   181   602
 1365     207   667   217   218
 1366      61   350   349   364
 1367     463   267   523   508
 1368     664   666   665   680
 1369     228   218   217   667
 1370     664   666   679   227
 1371     666   664   665   216
 1372     194   193   634   604
 1373      84    74    73   411
 1374     633   632   617   192
 1375     204   203   648   192
 1376     649   664   648   216
 1377     607   195   622   184
 1378     636   634   650   635
 1379      97   108   109   458
 1380     663   647   648   203
 1381     311   297   312    67
 1382     203   215   204   648
 1383     604   603   193   618
 1384     205   637   651   206
 1385     160   573   170   171
 1386     192   193   182   603
 1387     569   585   179   570
 1388     186   625   640   610
 1389     193   590   183   182
 1390     190   645   629   212
 1391     591   184   606   590
 1392     622   205   195   206
 1393      43   400    55   355
 1394     633   603   617   618
 1395     192   204   633   648
 1396     416   402    67   401
 1397     192   603   182   588
 1398     709   249   710   248
 1399      27   318   302   317
 1400     213   225   214   662
 1401     527   511   481   125
 1402     647   646   631   191
 1403     123   583     1   189
 1404     631   190   202   201
 1405      69    70   360    81
 1406     662   213   661   646
 1407     662   677   661   213
 1408     370    43   354   355
 1409      68    79    57     1
 1410     270   256   735   720
 1411      15   317   301    26
 1412     257   286     4   302
 1413     724   723   259   738
 1414     678   225   692   677
 1415       3   255   284   256
 1416     287   286   257   302
 1417     725   726   724   710
 1418     632   631   616   191
 1419     103    93   437   452
 1420     258   272     5   737
 1421     678   225   236   692
 1422      24   255   314    13
 1423     212   645   660   213
 1424     223   690   234   224
 1425      59    82   422    70
 1426     739   741   260   725
 1427     237   248   238   708
 1428     574   576   560   575
 1429     245   720   705   256
 1430     171   589   182   172
 1431     284    14     2     3
 1432     253   701   242   264
 1433     541   557   147   542
 1434     541   542   147   526
 1435      29    19   306    30
 1436     698   229   682   683
 1437      14   285   300    15
 1438     461   121   122   133
 1439     725   726   260   724
 1440     222   659   674   223
 1441     430    87    98   429
 1442     723   722   258   737
 1443     717   199   702   266
 1444       6     5    17   288
 1445     739   274   738   724
 1446     235   706   692   691
 1447     256   285   720   270
 1448     434    57   418   419
 1449      27    16    15   302
 1450     708   693   237   247
 1451     271   272   257   736
 1452     692   693   236   678
 1453     228   239   240   697
 1454     678   226   236   225
 1455     228   240   229   682
 1456     288   303     5    17
 1457     739   275   260   741
 1458       3   720   285    15
 1459     257    16   287   302
 1460     707   236   247   246
 1461      25   299   315    14
 1462     724   274   260   739
 1463     259   273   258     6
 1464     257   236   707   246
 1465     707   706   257   721
 1466       5     4   287   257
 1467     720   235   705   706
 1468     736   721   257   271
 1469     739   725   260   724
 1470     287    16     5   303
 1471     257    16     4   287
 1472      67   417   432   266
 1473     271   287   257   272
 1474     555   554   539   157
 1475     235   236   225   692
 1476      14   300     3   256
 1477     271   721   246   706
 1478     303   287   288     5
 1479     697   240   713   251
 1480     205   637   636   651
 1481     183   194   606   604
 1482       6   289   273   288
 1483     725   741   260   726
 1484      80   405    81    69
 1485     195   194   606   183
 1486     709   238   248   708
 1487     237   694   708   238
 1488     275   276   260   741
 1489     259   260   249   724
 1490     710   726   724   249
 1491     275   274   260   276
 1492     222   659   211   674
 1493     273     5   737   258
 1494     273   723   737   738
 1495     642   199   656   641
 1496     708   248   258   247
 1497     330    26    37    36
 1498     136   480   511   125
 1499     345    37   330   331
 1500     205   622   636   637
 1501     741   276   260   726
 1502     739   741   740   275
 1503     205   622   195   636
 1504     249   260   726   724
 1505     274   289     6   290
 1506     274   273     6   289
 1507       6   274   290     7
 1508     709   259   724   723
 1509     618   205   193   634
 1510     406    70   360   391
 1511     284    13    14   299
 1512     235   720   245   246
 1513      67   476   461   133
 1514      14   285     3   300
 1515     233   255   244   674
 1516     238   710   249   711
 1517     705   235   690   691
 1518     662   202   646   191
 1519     116   498   484   483
 1520     234   256   245   690
 1521     391   392   361   376
 1522     299    14   300   315
 1523     284     2   299   255
 1524     720   706   271   246
 1525     493   479   494   123
 1526      80   405   420    81
 1527     721   720   271   735
 1528      68   404    57   419
 1529     199   536   133   551
 1530     734   270   256   735
 1531     721   720   706   271
 1532     246   256   720   245
 1533     723   709   248   708
 1534     173   591   592   576
 1535     601   191   616   631
 1536     690   256   245   705
 1537     720   719   705   256
 1538     234   705   245   235
 1539     632   192   203   191
 1540     179   189   599   178
 1541     178   584   569   189
 1542     613   267   598   628
 1543     691   224   235   690
 1544       1   628   598   643
 1545     403   358   267   388
 1546     328   267   418   343
 1547     586   191   180   572
 1548     544   546   545   560
 1549     224   690   234   235
 1550     479   112   113   123
 1551     602   601   191   616
 1552     300    14   284   256
 1553     244   704   689   255
 1554     146   525   540   147
 1555     569   123   554   189
 1556     234   256   704   245
 1557     538   433   553   267
 1558     602   588   192   181
 1559     135   510   525   480
 1560     270   269   734   256
 1561     147   525   541   526
 1562     463   508     1   478
 1563     284    13   299     2
 1564     704   234   690   256
 1565     234   704   690   689
 1566     389   344    57   359
 1567     269   719   255   734
 1568     518   488   130   503
 1569     467   482   125   115
 1570      58   344   389   359
 1571     720   257   246   271
 1572     675   689   674   223
 1573     494   479   509   123
 1574     283    57   299   298
 1575      59   392   362   361
 1576     148   149   137   543
 1577     255   689   244   674
 1578     241   715   700   699
 1579     116   468   126   483
 1580     448     1   538   433
 1581     418    57     1   403
 1582      80   405    69   420
 1583     217   227   666   216
 1584     113   480   114   103
 1585     434    90   123    57
 1586     568   643   583   267
 1587     643   189     1   628
 1588     658   267   553   673
 1589     639   186   197   609
 1590     688   283   267   298
 1591     268   267   733   718
 1592     448   523     1   463
 1593     178   599   584   189
 1594      61   350    50   349
 1595     189   644   599   629
 1596     129   517   140   130
 1597     482   512   497   496
 1598     615   190   630   614
 1599     433   673     1   553
 1600     329   315    36    25
 1601     449   450   102   435
 1602     123     1   134   145
 1603     233   689   674   244
 1604      35   329    36    25
 1605     156   539   145   554
 1606     191   170   572   587
 1607     196   622   623   607
 1608     161   573   160   574
 1609     113   464   465   450
 1610     222   689   233   223
 1611      58    80    69   420
 1612     190   629   599   212
 1613     539   540   146   524
 1614     103   465   466   451
 1615      47    57    58   344
 1616       2   255   314   299
 1617      13   255   314     2
 1618     222   659   223   211
 1619     472   118   130   487
 1620     444   430   445    98
 1621     189   628   613     1
 1622       1   568   553   658
 1623     135   479   494   124
 1624     268   267   703   283
 1625     718   267   703   268
 1626     569   179   168   570
 1627     267   313   673   298
 1628     448   267   523   463
 1629     523   448     1   538
 1630     403   358   388     1
 1631     212   629   644   645
 1632     658   673   553     1
 1633     123   508   493     1
 1634       1   643   598   583
 1635     613   628   598     1
 1636     418   313   433   267
 1637     267   478   493   508
 1638     389   359    57   374
 1639       1   433   553   538
 1640     298    57   314   313
 1641     448   267   538   523
 1642     296    23    12   311
 1643     313   267   418   328
 1644     123   478     1   493
 1645     343   358   403     1
 1646     418   343     1   328
 1647     602   601   587   191
 1648     329   343    57   344
 1649     673   433     1   313
 1650     433   267   538   448
 1651     359   373    57   374
 1652     161   171   574   160
 1653     221   686   210   671
 1654     124   510   480   495
 1655     450    92   435   436
 1656     139   502   517   140
 1657     659   211   674   200
 1658     478     1   493   508
 1659     658   643     1   568
 1660     444   430    98   429
 1661     643   598   267   628
 1662     508   463     1   523
 1663     313   418     1   328
 1664     404    79    80   419
 1665     508   478   463   267
 1666     343   418     1   403
 1667     673   267   553   433
 1668     673   313     1   298
 1669     673   298     1   688
 1670       1   643   583   568
 1671     720     4   257   271
 1672     660   223   675   212
 1673     711   239   712   250
 1674     553   123     1   538
 1675     132    99   445   461
 1676     718   703   255     1
 1677     298   283     1   688
 1678     121   461   122   110
 1679      18   289   290     7
 1680     410    61    73    72
 1681     232   701   686   231
 1682     688   283     1   703
 1683     699   230   683   684
 1684     255   658   674   659
 1685     300    15    26    14
 1686     200   659   189   674
 1687     658   568   553   267
 1688     476   462    67   461
 1689     570   158   555   556
 1690      13   255     1    24
 1691     255   233     1   222
 1692     268   718     1   703
 1693     703   283     1   268
 1694     718   268     1   733
 1695     255    13     1     2
 1696     233   255     1   244
 1697     576   574   560   559
 1698     370    43   355   400
 1699     341    56   326    67
 1700     448    57     1   433
 1701     589   172   590   183
 1702      47   360    37   345
 1703     644   211   200   212
 1704     600   169   585   586
 1705     202   662   214   191
 1706     467   466   452   125
 1707     107   456    95   106
 1708     158   541   557   147
 1709     212   645   213   201
 1710     157   570   158   555
 1711     103   437   451   452
 1712     482   125   115   126
 1713     167   569   168   157
 1714      57   299   314   255
 1715      86    65   428    76
 1716     510   147   480   526
 1717     586   631   180   601
 1718     168   585   570   179
 1719     125   480   511   114
 1720     202   662   646   213
 1721      92   450   103   451
 1722     520   131   519   120
 1723     296    23    22    12
 1724     660   224   676   675
 1725     224   661   660   676
 1726      81   406   421   422
 1727     453   468   105   454
 1728     660   223   212   224
 1729     235   225   224   677
 1730      27    15   317   302
 1731     213   224   225   677
 1732     600   213   645   201
 1733      99   461   110   111
 1734     125   114   481   466
 1735     436   420    92   435
 1736      92   436   451   437
 1737      81    92    93   437
 1738     255   644   659   189
 1739     527   512   125   481
 1740     125   148   527   542
 1741     148   543   137   527
 1742     160   558   148   159
 1743     435   419    80    91
 1744     148   136   542   125
 1745     125   104   452   467
 1746     311   297    67   296
 1747     136   147   148   542
 1748     163   153   152   548
 1749     104    93   103   452
 1750     465   103   450   451
 1751     511   114   481   125
 1752      36   345   330    47
 1753     483   127   498   126
 1754      35    46    57     1
 1755     527   136   148   125
 1756     157   540   555   158
 1757     135   494   510   124
 1758      52   367    64   352
 1759     644   211   212   659
 1760     298    57   313     1
 1761     390    81   360   406
 1762      90   419    91    79
 1763     541   158   557   556
 1764     479   134   123   135
 1765     517   487   503   130
 1766     147   158   159   557
 1767     214   191   647   202
 1768     161   577   561   576
 1769      36   330    58    47
 1770     420    81   405   421
 1771     123   463    57     1
 1772      25   330    26   315
 1773     157   540   146   555
 1774     190   189   201   599
 1775     645   644   212   660
 1776     391   390   375   360
 1777     361   360   391   375
 1778     329    46    57   314
 1779     404   344    57   389
 1780      90   449   101    91
 1781      57   283   284   255
 1782     273     5   258     6
 1783     360   359   345    58
 1784     345   344    58   359
 1785      34   341    45   326
 1786     212   200   599   201
 1787      58    57   404   344
 1788     344   330    58    36
 1789     345   344   330    58
 1790     666   679   227   681
 1791       1   255    57    24
 1792     102   465   113   103
 1793      47   344    58    36
 1794     330   329    36   344
 1795     330   329   315    36
 1796       1    24    57    35
 1797     314    24    57   255
 1798      68   419    57   434
 1799     404    79    68    80
 1800     434    79    57    68
 1801     434    90    57    79
 1802     314    25   315   329
 1803      35   314    57    46
 1804     599   614   189   629
 1805     555   554   157   569
 1806     434   112   123   101
 1807     101    90   123   434
 1808     101     1   123    90
 1809     112     1   123   101
 1810     145   156   123     1
 1811     168   585   179   169
 1812     584   598   583   189
 1813       1   167   189   178
 1814       1   156   189   167
 1815       1   211   189   222
 1816     200   211   189     1
 1817     674   255   189   222
 1818     599   179   585   190
 1819     734   720   256   719
 1820     674   211   189   200
 1821     674   222   189   211
 1822     480   479   465   124
 1823     134   524   123   539
 1824     231   701   242   243
 1825     123   156   554   189
 1826     123   434   449   112
 1827     483   482   126   497
 1828     659   212   660   675
 1829     474   519   489   120
 1830     473   518   130   131
 1831     629   599   212   644
 1832     190   645   212   201
 1833     398   368    64   383
 1834     112   464   449   123
 1835     540   158   146   147
 1836     168   585   169   570
 1837     361   360   346   391
 1838     146   555   539   157
 1839     524   479   123   509
 1840     456   454   440   439
 1841     498   139   127   514
 1842     524   145   146   539
 1843      24   329    25   314
 1844     710   259   249   724
 1845     222   689   223   674
 1846     539   134   554   123
 1847     145   123   554   134
 1848     156   539   554   157
 1849     156   569   167   157
 1850     211   212   659   223
 1851     129   128   486   117
 1852     730   241   253   252
 1853     645   600   201   190
 1854     615   190   600   630
 1855     584   179   599   178
 1856     404    80   420   419
 1857      30   306   307    19
 1858      91   450   102    92
 1859     480   114   466   511
 1860      92   450   451   436
 1861     118   472   106   471
 1862     524   145   539   134
 1863     569   179   584   168
 1864     568   123     1   553
 1865     179   599   585   584
 1866     585   569   179   584
 1867     584   167   168   178
 1868     644   212   660   659
 1869     294   730   279   280
 1870     419    79   434    68
 1871     584   167   178   569
 1872     510   494   495   124
 1873     157   540   158   146
 1874     509   146   135   525
 1875     146   555   540   539
 1876     146   525   147   135
 1877     524   146   525   540
 1878       6   738   274   259
 1879     101   449   102    91
 1880     239   711   712   696
 1881     479   146   134   135
 1882     449   450   464   102
 1883     465   479   113   124
 1884     435   419    91   434
 1885      57   358   373   359
 1886     710   261   249   250
 1887     124   123   135   479
 1888      58   344   404   389
 1889      80   404   420    58
 1890     420   419    80   435
 1891     643   255   659   658
 1892     514   529   139   530
 1893     234   244   245   704
 1894     480   526   136   511
 1895     481   496   495   511
 1896     481   480   511   495
 1897     220   671   670   685
 1898     480   135   136   147
 1899     511   510   495   480
 1900      24   299   314    25
 1901     126   528   138   513
 1902     528   543   137   149
 1903     486   485   128   501
 1904     120   473   119   131
 1905      25   299    14    13
 1906     469   116   483   468
 1907      76   399    65   414
 1908     543   527   528   137
 1909     660   223   224   675
 1910     139   516   514   530
 1911     498   484   499   514
 1912     486   501   128   516
 1913     483   482   468   126
 1914      97   109    98   443
 1915     486   484   128   485
 1916     116   484   127   117
 1917     469   484   116   470
 1918      94   424    83   423
 1919     483   484   116   469
 1920     483   127   116   498
 1921     640   197   639   186
 1922     514   484   499   128
 1923     128   515   499   514
 1924     515   485   128   499
 1925     485   515   128   501
 1926     468   116   126   115
 1927     139   129   128   516
 1928     182   171   181   588
 1929     127   513   126   138
 1930      29   303    28   319
 1931     113   464   450   102
 1932     264   296    22    11
 1933     281   716   264   731
 1934      11   265   264   296
 1935     176   595   175   187
 1936     231   670   230   685
 1937     670   230   219   220
 1938     694   237   708   693
 1939     660   213   645   661
 1940     118   472   130   119
 1941     179   600   169   585
 1942     130   472   457   119
 1943     257   236   246   692
 1944      67   461   446   133
 1945     354   353    65   369
 1946     354   353   338    65
 1947     521   132   506   491
 1948     475   476   132   460
 1949     536   550   132   154
 1950     387   371    67   386
 1951     357   372    67   266
 1952      67   372   387   266
 1953     534   533   131   548
 1954     142   131   520   132
 1955     642   199   641   627
 1956     671   657   199   656
 1957     400   355    66    55
 1958     401    66   386   371
 1959     416   356    66   401
 1960     356   401    67   371
 1961     648   663   203   215
 1962     225   235   692   677
 1963       4    16   302    15
 1964     257    16   302     4
 1965     272     6   273   288
 1966     405   404    58   420
 1967     507   491   133   506
 1968     133   492   476   491
 1969     632   602   616   617
 1970     203   191   647   632
 1971     602   632   616   191
 1972     132   445   460   461
 1973     132   536   461   476
 1974     320   336   334   319
 1975      29   337    30   321
 1976     520   153   535   534
 1977     193   590   589   604
 1978      24   299    13   314
 1979      69   404    68    80
 1980     416    89    78   431
 1981      34   311   326    23
 1982     288   303    17   304
 1983     137   149   138   528
 1984     161   171   172   574
 1985     517   487   129   502
 1986     161   577   576   162
 1987     535   153   550   549
 1988     220   671   685   231
 1989     180   170   169   572
 1990     643   255   658     1
 1991     639   638   624   197
 1992      49    50    39   348
 1993     261   710   711   250
 1994     241   730   253   715
 1995     730   263    10   729
 1996     356   401   371    66
 1997     711   696   239   695
 1998     711   239   238   695
 1999     701   199   265   686
 2000     727   726   261   742
 2001     277   261   742   727
 2002     261   260   726   249
 2003     478   463   123     1
 2004     478   123   464   479
 2005     123   478   464   463
 2006     329   343   328    57
 2007     597   612   199   266
 2008     199   612   627   266
 2009     261   260   276   726
 2010     280   746   281   264
 2011     490   519   520   505
 2012      91   450    92   435
 2013     109   475   460   459
 2014     142   520   143   132
 2015     584   167   569   168
 2016     120   473   108   119
 2017     131   152   142   548
 2018     224   690   676   675
 2019     659   212   675   223
 2020     212   599   190   201
 2021     146   479   524   509
 2022     190   614   629   630
 2023     397    63    64    74
 2024     479   465   113   464
 2025     124   123   479   113
 2026     464   101   102   112
 2027      90   449   434   101
 2028     464   101   449   102
 2029     479   135   494   509
 2030     538   523   123     1
 2031      42   337   353   338
 2032     398    64    65    75
 2033      53    54   353    65
 2034      65    42    54   353
 2035     518   517   141   140
 2036     532   547   151   141
 2037     228   218   667   682
 2038     272   287   257     5
 2039     190   191   631   202
 2040     257   722   707   721
 2041     272   722   736   737
 2042     123   583   189   584
 2043     513   139   529   138
 2044      94   453   439   438
 2045     630   213   646   645
 2046     601   600   586   631
 2047     336   319   320   321
 2048     147   159   148   542
 2049     400    87    77   415
 2050      91   450   435   102
 2051     393    61   363   378
 2052     255     2     3   284
 2053     217   207   206   652
 2054     652   206   216   651
 2055      33   311   325   326
 2056     648   632   203   647
 2057     459    98   444   460
 2058     221   656   671   210
 2059     433    57     1   418
 2060     654   653   197   668
 2061     652   667   666   217
 2062     640   639   208   654
 2063     694   709   238   695
 2064     247   248   237   708
 2065     272   273     5   737
 2066     479   112   123   464
 2067     112   113   102   464
 2068     480   494   479   124
 2069      66    88    77   416
 2070      87   430    98    88
 2071     400    87    76    77
 2072      43   355   340   339
 2073      76   399   414   400
 2074     399    54   354   400
 2075     475   520   109   121
 2076     551   565   154   165
 2077     474   458   120   131
 2078     255   674   688   689
 2079     255   718   733   719
 2080     292     8   262     9
 2081     468   467   115   482
 2082     498   126   497   483
 2083      67   311   265   326
 2084     341    44   325    33
 2085     431   445    88    99
 2086     182   181   192   588
 2087      30    42    31   322
 2088     696   679   681   227
 2089     658   255   673     1
 2090     658   255   674   673
 2091     189   643   255   644
 2092     199   686   672   671
 2093      67   297   265   296
 2094     747   281   746   265
 2095     512   481   527   511
 2096     470   129   117   118
 2097     280    21   294   730
 2098     161   543   544   160
 2099     392   361   407   391
 2100     121   461   132   133
 2101     143   133   132   536
 2102     356    56   341    67
 2103      89   431    88    99
 2104      58   359   389   374
 2105     389   405   404    58
 2106     216   649   650   205
 2107     216   650   651   205
 2108     370   371   386    66
 2109     487   517   503   502
 2110     206   638   652   207
 2111     704   269   256   719
 2112     269   256   719   734
 2113     390   374   375    58
 2114      20    10     9   293
 2115     293    10   263    20
 2116      20    10   263   308
 2117      21    20   308    10
 2118     372    67   356   357
 2119     326    67   342   341
 2120     300   284   285   256
 2121     723   722   708   258
 2122     360   374   359    58
 2123     707   706   692   257
 2124     169   159   557   572
 2125     128   117   484   486
 2126     272   722   258   257
 2127     123   508   524   509
 2128     194   193   205   634
 2129      96   456   107   457
 2130     422    70    82    81
 2131      38    59   347   332
 2132     392    59    60    71
 2133      59   347   362    49
 2134     165   580   164   176
 2135      93    81   437   422
 2136     407   392    59   361
 2137     544   160   149   161
 2138      40   349   350   335
 2139     519   142   534   131
 2140     686   232   231   671
 2141     138   150   528   149
 2142     334   336    40    29
 2143     344    35   329    36
 2144     640   641   198   626
 2145     255   718   704   703
 2146     202   214   203   647
 2147     191   170   587   180
 2148     180   181   170   587
 2149     181   180   191   587
 2150     255   245   244   704
 2151     546   560   544   559
 2152      13   299     2   314
 2153     269   704   256   284
 2154     689   675   234   223
 2155     285    15   286   301
 2156      23   311   326    12
 2157     186   593   174   185
 2158     197   218   208   668
 2159     551   166   155   566
 2160     728   729   744   263
 2161     263   278   728   262
 2162     517   487   130   129
 2163     179   600   180   169
 2164      37   360   346   345
 2165     631   190   180   191
 2166      41   351    40    52
 2167     518   130   131   141
 2168     519   518   504   131
 2169      29    39    40   334
 2170     418    57   403   419
 2171     464    57   449   123
 2172      18     6    17   288
 2173      18   290   291     7
 2174     114   452   466   125
 2175     412    74    84   411
 2176     546   559   161   561
 2177     220   655   209   219
 2178     209   640   655   198
 2179     550   164   564   549
 2180      99   460    98   110
 2181     102   465   450   113
 2182     612   199   596   597
 2183      11   730    21   295
 2184     264   685   700   701
 2185     715   716   731   264
 2186     537   133   522   266
 2187     260     7   276   274
 2188     314    57   328   313
 2189     734   720   735   256
 2190     125   104   114   452
 2191      33   340   325    32
 2192     280    21   730   295
 2193     713   263   728   251
 2194      31    21    20   308
 2195     480   113   114   124
 2196     481   480   466   511
 2197     214   191   662   647
 2198     173   591   172   184
 2199      36   345    37   330
 2200     360    81   405    69
 2201     360    48   346   391
 2202     360    69   405    58
 2203     238   710   711   695
 2204     238   249   250   711
 2205     439   426   440   441
 2206     426   439    95   441
 2207       4    16     5   287
 2208      95   423   424    94
 2209      11    12   296    22
 2210     644   189   599   200
 2211     264    22   310    11
 2212     190   614   600   599
 2213     255   659   674   189
 2214     644   189   628   629
 2215     279    10   263   729
 2216     579   164   563   564
 2217     691   224   677   235
 2218     123   583   569   568
 2219     568   123   553   554
 2220      18     8     7   291
 2221     292    18     8    19
 2222       3   720     4   256
 2223     720     3     4    15
 2224     706   235   692   246
 2225     467   481   466   125
 2226     255   644   643   659
 2227     513   512   126   528
 2228     255   256   704   284
 2229     632   631   191   647
 2230     697   712   696   239
 2231      41   351   352   336
 2232      70    82    71   407
 2233     147   525   540   541
 2234     135   480   136   124
 2235     135   480   525   147
 2236     474   473   131   489
 2237     474   473   458   131
 2238     230   700   685   684
 2239      32   310   324   325
 2240     123   584   189   569
 2241     554   123   538   539
 2242     123   568   569   554
 2243     360    70    59   391
 2244     263     9   293   278
 2245     263   278   293   279
 2246     251   252   713   263
 2247     240   697   713   698
 2248       9   263   262   278
 2249     113   480   465   124
 2250     102   465   103   450
 2251     255   245   704   256
 2252     392    59   362    60
 2253      47   344    36    46
 2254     360   405   390    58
 2255      70    69   360    58
 2256     346    37   345   331
 2257     731   715   264   730
 2258     264   685   242   700
 2259     655   641   656   198
 2260     641   198   626   611
 2261     198   656   581   596
 2262     198   581   580   596
 2263     189   598     1   613
 2264     613   599   614   189
 2265     480   103   466   114
 2266     389   405    58   390
 2267     574   576   172   161
 2268     172   590   591   575
 2269      62    61   394   364
 2270     559   546   560   561
 2271     221   686   671   232
 2272     175   595   580   579
 2273     164   580   565   564
 2274     197   218   668   653
 2275     369   368   353    65
 2276     368    65    64    53
 2277     712   713   251   697
 2278     278   263   744   279
 2279     691   224   690   676
 2280     224   691   677   676
 2281     234   705   235   690
 2282      25   300    26    14
 2283      26   300   316   301
 2284     537   133   199   536
 2285     109   475   459   474
 2286     598   583   189     1
 2287     583   123     1   568
 2288     552   199   567   566
 2289     581   567   199   566
 2290      22   295    11    21
 2291     295    21   310   309
 2292     309    32   323    21
 2293      21   294   308   309
 2294     510   147   526   525
 2295      42    54    43   338
 2296      86    65    76   413
 2297      86    65   413   428
 2298     527   511   125   526
 2299     105   454    95    94
 2300     511   510   480   526
 2301     717   265   199   266
 2302     168   569   570   555
 2303     528   543   149   544
 2304     314    35    57    24
 2305     622   184   606   607
 2306     200   644   189   659
 2307      29   307   321    30
 2308     173   184   185   592
 2309      57   313     1   328
 2310     415   401   416    66
 2311      66    88   430    77
 2312     416   430   415    66
 2313     179   600   585   190
 2314     586   169   585   571
 2315     638   608   624   197
 2316     730   279   745   729
 2317     730   294   279   729
 2318     133   537   199   266
 2319     536   522   133   521
 2320     590   193   183   604
 2321     227   697   681   696
 2322     370   399   354   400
 2323     157   570   168   158
 2324     158   570   168   169
 2325     571   158   570   556
 2326     270   286   720   271
 2327     412   427    85    75
 2328     670   230   685   684
 2329     199   716   717   701
 2330     702   199   701   686
 2331     566   565   551   165
 2332     161   577   162   561
 2333     162   173   174   577
 2334     408   423    71    83
 2335       8   292   262   277
 2336     402    67   401   387
 2337     202   631   646   191
 2338     571   158   169   570
 2339     162   152   151   547
 2340     355   400    66   370
 2341     679   666   680   681
 2342     227   663   226   679
 2343     581   165   177   176
 2344     581   166   165   566
 2345     398   397    75    74
 2346     201   189   200   599
 2347     190   189   599   179
 2348     414   413    65   428
 2349     290   261     7   276
 2350     733   269   255   734
 2351     283    57     1   255
 2352     255   268   733     1
 2353      31    30   322    20
 2354     584   179   178   168
 2355     645   190   629   630
 2356     190   631   180   600
 2357     631   201   202   646
 2358     631   600   630   615
 2359     521   476   132   491
 2360     534   153   548   142
 2361     110   475   121   460
 2362     356   355    66   371
 2363     221   656   210   220
 2364     632   602   617   192
 2365     133   492   491   507
 2366      71    70   407    59
 2367      50    40   348   349
 2368     644   211   659   200
 2369     137   136   527   125
 2370     512   125   126   137
 2371     131   152   548   533
 2372     392   362   377    60
 2373     581   187   188   199
 2374     155   536   144   154
 2375     536   154   143   144
 2376     603   602   588   192
 2377     602   192   191   181
 2378     404    79   419    68
 2379     518   488   504   489
 2380      83   424    95    84
 2381     227   693   226   694
 2382     291   261   277     8
 2383     261   290     8   291
 2384     518   489   473   488
 2385     518   130   141   503
 2386     473   472   130   488
 2387     473   472   457   130
 2388      92   420   421    81
 2389     493   509   123   494
 2390     646   201   213   600
 2391     247   246   257   707
 2392     528   512   126   137
 2393     512   482   497   126
 2394     227   697   228   681
 2395     125   480   114   124
 2396     698   229   241   240
 2397     165   550   164   565
 2398     550   164   153   154
 2399     475   520   490   109
 2400     530   150   139   531
 2401     638   196   197   207
 2402     189   628   629   613
 2403     643   189   255     1
 2404     643   189   628   644
 2405     462    67   447   266
 2406     447    67   432   266
 2407     539   145   146   157
 2408      73   382   397    74
 2409     728   263   262   251
 2410     728   729   263   713
 2411      29    39   334    28
 2412     140   518   517   532
 2413      67   297   266   265
 2414     255   673     1   688
 2415       4   720    15   286
 2416      15   286   302     4
 2417     141   517   130   140
 2418     550   164   565   564
 2419     388    57   373   389
 2420     404   388    57   403
 2421     714   713   698   263
 2422     675   659   223   674
 2423     367   366    63   382
 2424      22   325   311   310
 2425     577   196   593   592
 2426     607   195   184   196
 2427     356   355   340    66
 2428     592   577   173   576
 2429     622   184   195   606
 2430     607   195   196   622
 2431     655   641   198   640
 2432     199   198   656   581
 2433     128   127   514   484
 2434     390    81   406   405
 2435     464    57   123   463
 2436     463    57   448   449
 2437     464    57   463   449
 2438      74   412    84    85
 2439      74    85    75   412
 2440     175   594   578   186
 2441     219   655   654   669
 2442     265   717   199   716
 2443     717   265   732   716
 2444     727   728   262   712
 2445     727   728   743   262
 2446     352   337    41   336
 2447     537   199   266   552
 2448     536   144   133   551
 2449     536   552   199   537
 2450     206   652   216   217
 2451     216   206   205   651
 2452     290     6     7   289
 2453      74   398   412    75
 2454     227   697   696   228
 2455      96    86   427   442
 2456      67   312   326   327
 2457     520   142   153   534
 2458     520   521   132   506
 2459     506   520   505   132
 2460     535   536   550   132
 2461      57   434   418   433
 2462     404   388   389    57
 2463     187   640   186   198
 2464     197   608   609   593
 2465     594   593   197   609
 2466     284    13     2    14
 2467      59   362    60    49
 2468     368   367   352    64
 2469     248   708   258   723
 2470      84    72    83   408
 2471     464   101   112   449
 2472     491   475   132   490
 2473     114   104   103   452
 2474     125   104   467   114
 2475     329    35    46   314
 2476     115   114   125   467
 2477      86    76    75   413
 2478      87    86   428    76
 2479     161   543   559   544
 2480      75   397    64    74
 2481     304   306   305   320
 2482      29   307   306   321
 2483      40   350   351   335
 2484      25   300    14   315
 2485     637   195   622   196
 2486     637   195   206   622
 2487     196   592   184   607
 2488     139   498   138   513
 2489     633   205   649   204
 2490     205   618   204   633
 2491     448    57   433   434
 2492     300    15   285   301
 2493     576   559   561   161
 2494      94   454   453   105
 2495      95   453   454   439
 2496     106   470   471   455
 2497     283   255     1   268
 2498      57   283     1   298
 2499     283   255   268   284
 2500     199   642   656   657
 2501     280    21   295   294
 2502     702   199   686   687
 2503     391   390   360   406
 2504      96    86    85   427
 2505     528   126   138   137
 2506      67   327   342   266
 2507     638   196   207   623
 2508     637   195   196   206
 2509     207   637   623   196
 2510     132   535   143   550
 2511     521   535   520   132
 2512     550   536   551   154
 2513     536   132   143   154
 2514     207   637   196   206
 2515      57   284   299   255
 2516     273   723   259   258
 2517     603   633   617   192
 2518     520   142   143   153
 2519     299    25   315   314
 2520     190   614   599   629
 2521     510   509   135   525
 2522     660   213   224   212
 2523     157   570   555   168
 2524     258   272   257     5
 2525     475   520   132   490
 2526     120   121   520   132
 2527     264   715   253   730
 2528     146   479   509   135
 2529     400    43    55    54
 2530     232   231   671   221
 2531     358   343    57     1
 2532     343   328    57     1
 2533      57   358   344   343
 2534     150   140   139   531
 2535     140   150   532   531
 2536     123   523   539   524
 2537     553   123   538   554
 2538     347   346   332    59
 2539     640   208   197   198
 2540     535   153   549   534
 2541     264   231   701   242
 2542      32   309   323   324
 2543     264   715   700   253
 2544     722   272   736   257
 2545     404    69    68    57
 2546      69   404    80    58
 2547     269   285   284   256
 2548     489   518   473   131
 2549      31    21   308   323
 2550     243   701   254   686
 2551     344    35    46   329
 2552     219   229   683   668
 2553     163   175   164   563
 2554     686   199   221   210
 2555      37   360    48   346
 2556      47   360    48    37
 2557      11   730   295   264
 2558     730   263   264    10
 2559     416   356    67    66
 2560     199   597   581   596
 2561      67   372   371   387
 2562     116   498   127   484
 2563     400    76    65    66
 2564     709   259   723   248
 2565     520   109   474   490
 2566      99   430   445    88
 2567     730   279   280   745
 2568     129   470   117   486
 2569      91   420   435    92
 2570     168   569   555   157
 2571     411   410    84   425
 2572     209   640   219   655
 2573      90   419   434    91
 2574      81   405   421   406
 2575     664   226   215   227
 2576     354    43   338   339
 2577     199   612   611   627
 2578     390    81   405   360
 2579     541   158   556   540
 2580     209   640   208   219
 2581     480   103   465   466
 2582     630   213   600   646
 2583     615   190   614   600
 2584     449   101   112   434
 2585     645   213   646   661
 2586     191   170   180   572
 2587     702   199   687   266
 2588     630   213   645   600
 2589     135   510   480   124
 2590     358    57   344   359
 2591     360   374    58   375
 2592     541   158   540   147
 2593     145   539   134   554
 2594     273   723   738   259
 2595     146   479   134   524
 2596     633   603   618   193
 2597     213   660   224   661
 2598     223   690   224   675
 2599     286    15   302   301
 2600       3   720   256   285
 2601     655   219   670   669
 2602     462   476    67   477
 2603     720   235   706   246
 2604     156   539   157   145
 2605     227   239   696   238
 2606     479   112   464   113
 2607     253   701   254   242
 2608     265   253   701   254
 2609     238   709   710   695
 2610     272   722   737   258
 2611     719   733   255   734
 2612     270    15   285   720
 2613     312    67   266   327
 2614     653   208   207   197
 2615     199   716   701   265
 2616     706   235   705   691
 2617      76   400    65   399
 2618     431   447    67   432
 2619     584   598   189   599
 2620     403   388    57     1
 2621     360    59    48   391
 2622     730    11    10   264
 2623     701   231   685   686
 2624     419    79    80    91
 2625     567   581   199   582
 2626      67   417   431   432
 2627      88   415    77    87
 2628     199   552   551   566
 2629     694   696   227   679
 2630     694   696   680   695
 2631      67   296   265   311
 2632     589   171   588   574
 2633      57   448   449   434
 2634     574   576   161   559
 2635     218   653   667   668
 2636      99   460   110   445
# Generated by C:\Users\Ludvig Magnusson\Documents\Programmering\C++\MinecraftOpenGL\MinecraftOpenGL\Meshes\tetgen.exe -n balls3.poly -nn -e 
