50  1
    1      3     1     2    1       -1     57
    2      5     7     6    9       40     15
    3      1     3     4    1       -1     32
    4     22     1    21    3        7     -1
    5      7     5     8    9       33      2
    6      1     5    21    3       18     -1
    7      9    11    10    2       30     -1
    8      5    26    25    3       21     -1
    9      6    22    26    3        1     -1
   10     22     2     1    3       50     -1
   11      6     2    22    3       58     -1
   12      3     8     4    3       34     -1
   13      3     2     7    3       64     -1
   14      5     6    26    3        3     -1
   15     21     5    25    3       19     -1
   16      2     6     7    3       58     -1
   17      8     3     7    3       27     -1
   18     10     5     9    3       -1     30
   19      5     1     8    3       18     -1
   20      1     4     8    3        8     -1
   21     11     9    12    2       36     -1
   22     12     7    11    3       -1     29
   23      5    10     6    3       -1     68
   24     12     5     8    3        2     -1
   25     11     7     6    3       -1     15
   26     10    11     6    3       -1     68
   27      7    12     8    3       -1      2
   28     13    15    14    4       24     -1
   29      5    12     9    3       36     -1
   30     19    17    18    4       -1     37
   31     15    13    16    4        5     -1
   32     18    13    14    4       -1     46
   33     17    19    20    4       -1     28
   34     19    14    15    4       -1     61
   35     13    18    17    4       -1     42
   36     15    20    19    4       -1      9
   37     14    19    18    4       -1     59
   38     13    20    16    4       -1     25
   39     20    15    16    4       -1     31
   40     21    23    22    4       14     -1
   41     20    13    17    4       -1     52
   42     27    25    26    4       -1     21
   43     23    21    24    4       13     -1
   44     25    27    28    4       -1     39
   45     27    22    23    4       -1     53
   46     23    28    27    4       -1     51
   47     22    27    26    4       -1     23
   48     21    28    24    4       -1     35
   49     28    23    24    4       -1     67
   50     28    21    25    4       -1     17
# Generated by F:\Spel\Programming\C++\TetGen\out\build\x64-Debug\tetgen.exe -n example.poly -nn -e 
