430  1
    1     16    15     1    -1       -1    392
    2     13     1    15    -1       -1    342
    3      4     1    13    -1       -1    343
    4      3     4    13    -1       -1    421
    5      3    13    14    -1       -1    473
    6      3    12     5    -1       -1    436
    7      5     8     9    -1       -1     12
    8     12     8     5    -1       -1     53
    9     11     8    12    -1       -1    459
   10     10     8    11    -1       -1     38
   11      3    14    12    -1       -1     27
   12      6     5     9    -1       -1    276
   13      6     9     7    -1       -1     32
   14      2    16     1    -1       -1    434
   15     17    16     2    -1       -1    388
   16     17     2    18    -1       -1     46
   17     11    12    23    -1       -1    459
   18     11    23    20    -1       -1     10
   19     19    23    24    -1       -1    478
   20     19    22    21    -1       -1    469
   21     24    22    19    -1       -1    468
   22     19    20    23    -1       -1    471
   23     10    11    20    -1       -1     38
   24     10    20    25    -1       -1    441
   25     25    20   167    -1       -1    257
   26    167    19    26    -1       -1    453
   27     19    27    26    -1       -1    463
   28     21    27    19    -1       -1    467
   29     26    25   167    -1       -1    326
   30     20    19   167    -1       -1    471
   31      8    10    25    -1       -1    441
   32      8    25   169    -1       -1    323
   33    169    26    32    -1       -1     59
   34     26    27    32    -1       -1    463
   35      9     8   169    -1       -1    449
   36      9   169   168    -1       -1    299
   37    168    31    28    -1       -1     16
   38     31    30    28    -1       -1    255
   39     29     7     9    -1       -1    274
   40     29     9   168    -1       -1    275
   41     29   168    28    -1       -1    267
   42     31   168   169    -1       -1    458
   43     31   169    32    -1       -1    447
   44     25    26   169    -1       -1    326
   45     33     6     7    -1       -1    265
   46     33     7    29    -1       -1    259
   47     33    29   170    -1       -1    272
   48    170    28    34    -1       -1    269
   49     30    34    28    -1       -1    255
   50     35    34    30    -1       -1    258
   51     34    33   170    -1       -1    282
   52     29    28   170    -1       -1    267
   53      6    33   172    -1       -1    265
   54    172   171    37    -1       -1    261
   55    171    36    37    -1       -1    262
   56     34    36   171    -1       -1    263
   57     34    38    36    -1       -1    477
   58     35    38    34    -1       -1    253
   59      5     6   172    -1       -1    276
   60      5   172    37    -1       -1    283
   61     33    34   171    -1       -1    282
   62     33   171   172    -1       -1    264
   63      5    37   173    -1       -1    445
   64    173   174   179    -1       -1    250
   65    179    42    43    -1       -1     36
   66    174    42   179    -1       -1    109
   67     41    42   174    -1       -1    451
   68     41   174   175    -1       -1    381
   69    175   177   176    -1       -1     52
   70    176    47    46    -1       -1     37
   71    177    47   176    -1       -1    321
   72     38    47   177    -1       -1    115
   73     38   177    36    -1       -1    461
   74     36   174    37    -1       -1     17
   75    174   173    37    -1       -1      3
   76    178     4     3    -1       -1    325
   77     44     4   178    -1       -1    333
   78      1     4    44    -1       -1    335
   79     43    44   178    -1       -1    340
   80     43   178   179    -1       -1    304
   81    178   173   179    -1       -1    251
   82      3   173   178    -1       -1    324
   83      5   173     3    -1       -1     92
   84     40    41   175    -1       -1    113
   85     40   175   176    -1       -1    121
   86     40   176    39    -1       -1     77
   87     39    46    45    -1       -1    229
   88    176    46    39    -1       -1     55
   89     36   177   174    -1       -1    254
   90    177   175   174    -1       -1     88
   91     49    56   180    -1       -1    175
   92    180   181    50    -1       -1      1
   93    181    51    50    -1       -1     54
   94     52    51   181    -1       -1     81
   95     52   181    45    -1       -1     72
   96    181    55    45    -1       -1     30
   97     56    55   181    -1       -1    235
   98     56   181   180    -1       -1    166
   99     48    49   180    -1       -1     11
  100     48   180    50    -1       -1    171
  101     54    52    45    -1       -1    199
  102     54    45    46    -1       -1    229
  103     54    46    53    -1       -1    236
  104     53    47    22    -1       -1     76
  105     22    38    31    -1       -1    347
  106     31    35    30    -1       -1    258
  107     38    35    31    -1       -1    253
  108     53    46    47    -1       -1     95
  109     22    31    32    -1       -1     21
  110     22    32    21    -1       -1    469
  111     32    27    21    -1       -1    467
  112     47    38    22    -1       -1    115
  113     13    15    57    -1       -1    342
  114     13    57   184    -1       -1    346
  115    184   185   188    -1       -1    160
  116    188   186   182    -1       -1    446
  117    182   183   190    -1       -1     75
  118    190   189   191    -1       -1    454
  119    191    61    62    -1       -1    230
  120    189    61   191    -1       -1    209
  121     60    61   189    -1       -1    108
  122     60   189   183    -1       -1    460
  123    189   190   183    -1       -1    101
  124     14    13   184    -1       -1    473
  125     14   184   187    -1       -1    433
  126    187   188    23    -1       -1    110
  127     23   182    24    -1       -1      8
  128     24   190    22    -1       -1    440
  129    190    53    22    -1       -1    105
  130    191    53   190    -1       -1    457
  131     54    53   191    -1       -1    236
  132     54   191    62    -1       -1    210
  133     54    62    52    -1       -1    234
  134     12    14   187    -1       -1     27
  135     12   187    23    -1       -1    107
  136     23   188   182    -1       -1    439
  137     24   182   190    -1       -1    455
  138     59    60   183    -1       -1    318
  139     59   183   186    -1       -1    247
  140    183   182   186    -1       -1    305
  141     59   186   185    -1       -1    307
  142    186   188   185    -1       -1    334
  143     58    59   185    -1       -1    316
  144     58   185    57    -1       -1    353
  145    185   184    57    -1       -1     44
  146    188   187   184    -1       -1    452
  147     15    16    63    -1       -1    389
  148     15    63    57    -1       -1    406
  149     58    63    64    -1       -1     40
  150     58    65    59    -1       -1    284
  151     59    66    60    -1       -1     26
  152     61    66    67    -1       -1      2
  153     61    68    62    -1       -1    233
  154     52    68    51    -1       -1     81
  155     62    68    52    -1       -1     70
  156     58    57    63    -1       -1    400
  157     58    64    65    -1       -1    302
  158     59    65    66    -1       -1    317
  159     61    60    66    -1       -1     93
  160     61    67    68    -1       -1    204
  161     16    17   114    -1       -1    388
  162     16   114   113    -1       -1    425
  163     16   113   112    -1       -1    424
  164     16   112   196    -1       -1    300
  165    196   110   107    -1       -1    411
  166    111   107   110    -1       -1     42
  167    106   107   111    -1       -1    429
  168    108   106   111    -1       -1    431
  169    108   111   109    -1       -1    432
  170     63    16   196    -1       -1    389
  171     63   196   105    -1       -1      5
  172    196   107   105    -1       -1    414
  173     63   105   104    -1       -1    122
  174     63   104    64    -1       -1    370
  175     64   103   102    -1       -1     56
  176    104   103    64    -1       -1    161
  177    194    65    64    -1       -1    302
  178     94    65   194    -1       -1    314
  179     93    65    94    -1       -1    313
  180     92    65    93    -1       -1    158
  181    192    65    92    -1       -1    360
  182     66    65   192    -1       -1    317
  183     66   192   195    -1       -1    112
  184    195    85    84    -1       -1    221
  185    192    85   195    -1       -1    114
  186     87    85   192    -1       -1    129
  187     87   192    90    -1       -1    133
  188    192    92    90    -1       -1    156
  189     67    66   195    -1       -1      2
  190     67   195    83    -1       -1    218
  191    195    84    83    -1       -1    215
  192    197    68    67    -1       -1    194
  193     75    68   197    -1       -1    196
  194     74    68    75    -1       -1    141
  195     73    68    74    -1       -1    177
  196     72    68    73    -1       -1    188
  197     51    68    72    -1       -1     80
  198     51    72    50    -1       -1     54
  199     50    70    71    -1       -1    139
  200     72    70    50    -1       -1    180
  201     48    50    71    -1       -1    171
  202     48    71    69    -1       -1    174
  203     77    75   197    -1       -1    185
  204     77   197    76    -1       -1     62
  205     79    78    81    -1       -1    201
  206     78    76    81    -1       -1      7
  207     76   197    81    -1       -1     97
  208    197    80    81    -1       -1     48
  209     82    80   197    -1       -1    203
  210     82   197    67    -1       -1    103
  211     82    67    83    -1       -1    142
  212     90    91    86    -1       -1    119
  213     90    86    87    -1       -1    130
  214     91    89    86    -1       -1     79
  215     89    88    86    -1       -1    120
  216     95    94   194    -1       -1    470
  217     95   194   193    -1       -1    355
  218    193    64   102    -1       -1    246
  219    194    64   193    -1       -1    117
  220     97    95   193    -1       -1    356
  221     97   193   198    -1       -1    297
  222    198   100   101    -1       -1    330
  223    193   100   198    -1       -1    351
  224    102   100   193    -1       -1    338
  225     96    97   198    -1       -1    278
  226     96   198    98    -1       -1     66
  227    198    99    98    -1       -1    391
  228    101    99   198    -1       -1    378
  229    112   110   196    -1       -1    408
  230    120     2     1    -1       -1    287
  231    120     1    44    -1       -1    285
  232    120    43   119    -1       -1    398
  233    118    43    42    -1       -1    301
  234    118    41   117    -1       -1    140
  235    117    40   116    -1       -1    228
  236    115    40    39    -1       -1    243
  237    115    45    55    -1       -1     30
  238     39    45   115    -1       -1    238
  239    120    44    43    -1       -1    401
  240    118   119    43    -1       -1    308
  241    118    42    41    -1       -1    310
  242    117    41    40    -1       -1    227
  243    115   116    40    -1       -1    245
  244    121    49    48    -1       -1    187
  245    121    48    69    -1       -1    181
  246    122   124   199    -1       -1    186
  247    199   123   121    -1       -1     25
  248    124   123   199    -1       -1     89
  249     72   122   199    -1       -1    256
  250     72   199    70    -1       -1    180
  251    199    71    70    -1       -1    170
  252     69    71   199    -1       -1     29
  253     69   199   121    -1       -1    181
  254     72    73   200    -1       -1    188
  255    200    74    75    -1       -1    141
  256     73    74   200    -1       -1    177
  257    122    72   200    -1       -1    190
  258    122   200   126    -1       -1    102
  259    200   125   126    -1       -1      4
  260    127   125   200    -1       -1     64
  261    127   200    75    -1       -1    165
  262     75    77   201    -1       -1    185
  263    201    76    78    -1       -1      7
  264     77    76   201    -1       -1     62
  265    127    75   201    -1       -1    135
  266    127   201   128    -1       -1    178
  267    201   129   128    -1       -1    191
  268    130   129   201    -1       -1    184
  269    130   201    78    -1       -1    124
  270     78    79   131    -1       -1     78
  271     78   131   130    -1       -1    476
  272    132   134   202    -1       -1    162
  273    202   133   131    -1       -1     68
  274    134   133   202    -1       -1    100
  275     82   132   202    -1       -1    176
  276     82   202    80    -1       -1    203
  277    202    81    80    -1       -1     48
  278     79    81   202    -1       -1    201
  279     79   202   131    -1       -1     78
  280     82    83   203    -1       -1    142
  281    203    84    85    -1       -1    221
  282     83    84   203    -1       -1    215
  283    132    82   203    -1       -1    220
  284    132   203   136    -1       -1    223
  285    203   135   136    -1       -1    212
  286    137   135   203    -1       -1     15
  287    137   203    85    -1       -1    224
  288     85    87   204    -1       -1    129
  289    204    86    88    -1       -1    151
  290     87    86   204    -1       -1    130
  291    137    85   204    -1       -1    127
  292    137   204   138    -1       -1    111
  293    204   139   138    -1       -1    137
  294    140   139   204    -1       -1     74
  295    140   204    88    -1       -1    159
  296     88    89   141    -1       -1    423
  297     88   141   140    -1       -1    430
  298    142   144   205    -1       -1    148
  299    205   143   141    -1       -1    153
  300    144   143   205    -1       -1    152
  301     92   142   205    -1       -1    154
  302     92   205    90    -1       -1    156
  303    205    91    90    -1       -1    119
  304     89    91   205    -1       -1     79
  305     89   205   141    -1       -1    423
  306    146   142    92    -1       -1    357
  307    146    92    93    -1       -1    158
  308    145    93    94    -1       -1    313
  309    147    94    95    -1       -1    470
  310    145    94   147    -1       -1    329
  311    145   146    93    -1       -1    474
  312     95    97   206    -1       -1    356
  313    206    96    98    -1       -1     66
  314     97    96   206    -1       -1    278
  315    147    95   206    -1       -1    349
  316    147   206   148    -1       -1    116
  317    206   149   148    -1       -1    145
  318    150   149   206    -1       -1     19
  319    150   206    98    -1       -1    395
  320     98    99   151    -1       -1    427
  321     98   151   150    -1       -1    134
  322    152   154   207    -1       -1    390
  323    207   153   151    -1       -1    383
  324    154   153   207    -1       -1     35
  325    102   152   207    -1       -1    394
  326    102   207   100    -1       -1    338
  327    207   101   100    -1       -1    330
  328     99   101   207    -1       -1    378
  329     99   207   151    -1       -1    427
  330    102   103   208    -1       -1     56
  331    208   104   105    -1       -1    122
  332    103   104   208    -1       -1    161
  333    152   102   208    -1       -1    332
  334    152   208   156    -1       -1     47
  335    208   155   156    -1       -1    372
  336    157   155   208    -1       -1    271
  337    157   208   105    -1       -1    277
  338    105   107   209    -1       -1    414
  339    209   106   108    -1       -1    431
  340    107   106   209    -1       -1    429
  341    157   105   209    -1       -1     96
  342    157   209   158    -1       -1     31
  343    209   159   158    -1       -1    379
  344    160   159   209    -1       -1    252
  345    160   209   108    -1       -1    290
  346    108   109   161    -1       -1    472
  347    108   161   160    -1       -1    290
  348    162   164   210    -1       -1    281
  349    210   163   161    -1       -1    292
  350    164   163   210    -1       -1    293
  351    112   162   210    -1       -1    410
  352    112   210   110    -1       -1    408
  353    210   111   110    -1       -1     42
  354    109   111   210    -1       -1    426
  355    109   210   161    -1       -1    296
  356    165   114    17    -1       -1    380
  357    165    17    18    -1       -1     46
  358    113   114   165    -1       -1    475
  359    113   165   166    -1       -1    422
  360    112   166   162    -1       -1    420
  361    113   166   112    -1       -1    462
  362    165    18     2    -1       -1     46
  363    165     2   166    -1       -1    422
  364      2   162   166    -1       -1    420
  365    217   162     2    -1       -1    412
  366    164   162   217    -1       -1    281
  367    164   217   158    -1       -1    374
  368    217   157   158    -1       -1     31
  369    120   157   217    -1       -1    336
  370    155   157   120    -1       -1    271
  371    155   120   119    -1       -1    298
  372    155   119   156    -1       -1    372
  373    119   152   156    -1       -1     47
  374    214   152   119    -1       -1    289
  375    154   214   212    -1       -1    387
  376    152   214   154    -1       -1    390
  377    154   212   153    -1       -1     35
  378    212   151   153    -1       -1    383
  379    150   151   212    -1       -1    396
  380    150   212   149    -1       -1     19
  381    212   148   149    -1       -1    145
  382    147   148   212    -1       -1    116
  383    147   212   213    -1       -1    312
  384    213   214   119    -1       -1    350
  385    212   214   213    -1       -1    193
  386    158   159   163    -1       -1    379
  387    158   163   164    -1       -1    293
  388    163   160   161    -1       -1    132
  389    159   160   163    -1       -1    252
  390    147   213   118    -1       -1    320
  391    213   119   118    -1       -1    308
  392    145   147   118    -1       -1    366
  393    145   118   146    -1       -1    358
  394    118   142   146    -1       -1    361
  395    216   142   118    -1       -1    365
  396    144   142   216    -1       -1    148
  397    144   216   138    -1       -1    144
  398    216   137   138    -1       -1    111
  399    211   137   216    -1       -1    146
  400    135   137   211    -1       -1     15
  401    135   211   136    -1       -1    212
  402    136   116   132    -1       -1    223
  403    132   215   134    -1       -1    162
  404    215   133   134    -1       -1    100
  405    129   133   215    -1       -1    192
  406    133   130   131    -1       -1     68
  407    129   130   133    -1       -1    184
  408    139   143   144    -1       -1    152
  409    139   144   138    -1       -1    137
  410    139   141   143    -1       -1    153
  411    140   141   139    -1       -1    157
  412    136   211   116    -1       -1    216
  413    211   117   116    -1       -1    228
  414    216   117   211    -1       -1      6
  415    118   117   216    -1       -1    140
  416    132   116   215    -1       -1    207
  417    215   115   127    -1       -1     85
  418    115   125   127    -1       -1     64
  419    126   125   115    -1       -1      4
  420    126   115   122    -1       -1    102
  421    122    55    56    -1       -1    235
  422    115    55   122    -1       -1    214
  423    128   129   215    -1       -1    191
  424    128   215   127    -1       -1    178
  425    124   122    56    -1       -1    186
  426    124    56   123    -1       -1     91
  427    123    49   121    -1       -1     82
  428     56    49   123    -1       -1    175
  429    116   115   215    -1       -1    242
  430      2   120   217    -1       -1    287
# Generated by C:\Users\Ludvig Magnusson\Documents\Programmering\C++\MinecraftOpenGL\MinecraftOpenGL\Meshes\tetgen.exe -n gear.smesh -nn -e 
