478  4  0
    1      72   181   180    50
    2      67    66   195    61
    3      37   174   173   182
    4     126   125   115   200
    5     105    63   196   217
    6     195   117   216   211
    7      81   201    78    76
    8      23   182    24    36
    9     175   174   190   183
   10      11    20     8    23
   11     199    48   180    49
   12       9     5     8    37
   13     211    61    41    40
   14     195   211    41   117
   15     137   135   203   211
   16     168    31    28    36
   17      37   182    36   174
   18      23    36   169    37
   19     150   149   206   212
   20     199   122   180   181
   21      32    31    24    22
   22     177   176   190   191
   23     147   213   194    95
   24     209   158   210   163
   25     199   121   180   123
   26     192    66    59    60
   27      12    14   187     3
   28      72    50   180   199
   29      71    69   180   199
   30      45   181    55   115
   31     158   157   209   217
   32       6     7   172     9
   33     173   174   188   182
   34     168    29   171   170
   35     153   212   207   154
   36     179    43   185    42
   37     191    46    47   176
   38       8    11    10    20
   39     189   176   190   175
   40      64    63   208    58
   41      67   211    40    61
   42     111   107   110   210
   43     112   210   196   217
   44     184    57   185   178
   45      41   195    61   211
   46     165    17    18     2
   47     156   152   208   119
   48     197    81   202    80
   49      40   189   176    61
   50     205    86    90   204
   51       8    20    25    23
   52     175   176   190   177
   53      23     5     8    12
   54      50   181    51    72
   55      39   191   176    46
   56      64   102   208   103
   57     195   117    41    66
   58      50    70   180   199
   59      24    32    26   169
   60     215   201   202   197
   61     215   133   202   201
   62     197    77   201    76
   63      47   176    53   191
   64     125   127   115   200
   65     195    66    41    60
   66     206    98   198    96
   67      44   178   185    57
   68     133   202   130   131
   69      42    59   194    58
   70      52   181    62    68
   71     199   124   180    56
   72      52   181    45    39
   73     173    37   188    23
   74     140   205   139   204
   75     183   174   190   182
   76      47   177    22    53
   77      39    40   176    61
   78     131    78    79   202
   79      89    91   205    86
   80      51   181    68    72
   81      52   181    68    51
   82     123   121   180    49
   83     127    68   115   200
   84     177   191    53   176
   85     215    68   115   127
   86      61   211   195    67
   87     195    66   216   117
   88     175   177   190   174
   89     123   124   180   199
   90      64   213    58    43
   91     123    56   180   124
   92     173     5   187     3
   93      66    61    60   195
   94     200   181   115   122
   95      47   191    53    46
   96     209   157   105   217
   97     197    76   201    81
   98     133   201   130   202
   99     169    23   167    24
  100     215   133   134   202
  101     183   189   190   175
  102     122   126   115   200
  103      82    67   215   197
  104      23    36    24   169
  105      53   177    22   190
  106      23    37     8     5
  107      12     5   187    23
  108      41    61    60   189
  109      42   174   186   179
  110      23   173   187   188
  111     216   204   137   138
  112     192    66   216   195
  113      41   189   175    40
  114     195    85   216   192
  115      47    38    22   177
  116     148   212   147   206
  117      64   214   193   194
  118     206   214   193   212
  119      86   205    90    91
  120      88   205    86    89
  121     176    40   175   189
  122     208   104   105    63
  123      82    67   132   215
  124     202   201   130    78
  125      60    66    41   192
  126      59    42   194    65
  127     216    85   137   204
  128     174   177   190   182
  129      85    87   204   192
  130      90   204    86    87
  131     216   144   205   204
  132     161   160   209   163
  133     192    87   204    90
  134     151    98   207   150
  135     201    75   215   127
  136      39    61   176    62
  137     204   144   139   138
  138     139   205   144   204
  139      50    71   180    70
  140      41   117   118   216
  141      74    75   200    68
  142      83    67   203    82
  143     192    85   216   204
  144     138   144   216   204
  145     148   212   206   149
  146     216   211   137   195
  147      22    31    24    36
  148     216   142   205   144
  149     216   204   205   192
  150      90   192   205   204
  151     205    88    86   204
  152     205   139   144   143
  153     141   139   205   143
  154     216    92   205   142
  155     216   192   205    92
  156      90    92   205   192
  157     205   140   139   141
  158      92   146    65    93
  159      88   204   205   140
  160     185   178   188   184
  161     103   104   208    64
  162     215   202   134   132
  163     195    85   137   216
  164      58    64   194   213
  165     127    68   200    75
  166      56   181   180   122
  167     199    49   180   121
  168      56   122   180   199
  169     201    81   202   197
  170     199    70   180    71
  171      50    48   180    71
  172     199    69   180    48
  173     199   181   180    72
  174      71    48   180    69
  175      49    56   180   123
  176     202    82   132   215
  177      73    74   200    68
  178     127   128   215   201
  179     168    37   169    36
  180      50    70   199    72
  181     121    69   199    48
  182     201   197   215    75
  183     201    81    78   202
  184     201   133   130   129
  185      75    77   201   197
  186     122   124   199    56
  187      49   121   199    48
  188      72    73   200    68
  189      68   181   200    72
  190      72   122   181   200
  191     201   128   215   129
  192     129   133   215   201
  193     206   212   213   214
  194     197    67   215    68
  195     127    75   215    68
  196     197    68   215    75
  197     216    66    41   117
  198     195    41    61    60
  199      54    52    45    39
  200      41    61   189    40
  201      78   202    81    79
  202     215   197   202    82
  203      80    82   202   197
  204      61    68    40    67
  205     216   192    41    66
  206      52   181    39    62
  207      67   215   116   132
  208      39    62   176   191
  209      61   189   176   191
  210      62   191    39    54
  211      54   191    39    46
  212     136   211   203   135
  213     182   177   190    36
  214     115   181    55   122
  215      83    84   203   195
  216     116   211   203   136
  217     116    67   203   211
  218      67    83   203   195
  219     195   211   203    67
  220     132    82   203    67
  221      84    85   203   195
  222     116   132   203    67
  223     136   132   203   116
  224     195    85   203   137
  225     137   211   203   195
  226     116   211    40    67
  227      41   211    40   117
  228     116   117    40   211
  229      39    46    45    54
  230     191    62   176    61
  231      60   189   175    41
  232      61    68    39    40
  233      61    62    39    68
  234      54    52    39    62
  235     122   181    55    56
  236      54    46    53   191
  237      62   181    39    68
  238      45   181   115    39
  239      39   181   115    68
  240     200    68   115   181
  241     215    67   115    68
  242     116    67   115   215
  243      39    68   115    40
  244      40    68   115    67
  245      40    67   115   116
  246      64   102   193   214
  247      42    59   186   183
  248     183   174   186    42
  249     194   214   193   213
  250     173   179   188   174
  251     179   173   188   178
  252     159   163   209   160
  253      38    34    35    31
  254     174   182    36   177
  255      28    31    30    34
  256      72   122   199   181
  257     167    23    25    20
  258      35    34    30    31
  259      29     7   172    33
  260     170    34   171   168
  261     171    37   172   168
  262      36    37   171   168
  263     168    34   171    36
  264     171    29   172    33
  265       6    33   172     7
  266     168    29   172   171
  267      29   168    28   170
  268      36    34    28   168
  269     168    34    28   170
  270      36    31    28    34
  271     157   155   208   120
  272     171    29    33   170
  273     168    37   172     9
  274      29     9   172     7
  275     168     9   172    29
  276       6     9   172     5
  277     208    63   105   157
  278     206    96   198    97
  279      65    42   194   118
  280      24   169    26   167
  281     217   162   210   164
  282     170    34    33   171
  283       9    37   172     5
  284      58    59   194    65
  285     217   120    44     1
  286     213   206   193    95
  287       1   120     2   217
  288     118    42   194   213
  289     119   152   208   214
  290     108   161   160   209
  291      64    43   208   119
  292     209   163   210   161
  293     164   163   210   158
  294     185    42    59   179
  295      41   216    42   192
  296     161   109   210   209
  297     206    97   198   193
  298     155   119   208   120
  299       9    37   169   168
  300       2    16   196   112
  301      42    43   213   118
  302      65    64   194    58
  303     169    36    24    31
  304      43   179   185   178
  305     183   182   186   174
  306     105   217   196   209
  307      59   179   186   185
  308     118    43   213   119
  309      22    36    24   177
  310      41   216   118    42
  311      64   214   194   213
  312     147   212   213   206
  313     145    93    94    65
  314      65   145   194    94
  315     185    43    58    42
  316     185    42    58    59
  317      59   192    65    66
  318      59    60   183    41
  319      42   192    59    41
  320     147   118   194   213
  321     177   176    53    47
  322      41   192    59    60
  323       8    23    25   169
  324     173     3   184   178
  325       3     4   184   178
  326      26   169    25   167
  327      42   179   186    59
  328      64   214   208   102
  329     147    94   194   145
  330     101   198   100   207
  331     217   120    63    44
  332     102   214   208   152
  333     178     4    57    44
  334     185   179   186   188
  335      44     4    57     1
  336     217   157    63   120
  337     209   217   210   158
  338     207   193   100   102
  339      65   118   194   145
  340      44    43   185   178
  341      57    43   185    44
  342      57     1    13    15
  343      57     4    13     1
  344     184     4    13   178
  345      57   178    13     4
  346     184   178    13    57
  347      36    38    22    31
  348     213    43    64   119
  349     213   206    95   147
  350     213   119    64   214
  351     207   198   100   193
  352     173     3   187   184
  353      57    43    58   185
  354     213   214   193   206
  355     213    95   193   194
  356     206    97   193    95
  357      92   146   142    65
  358     145   146    65   118
  359      59    42    65   192
  360     216    92    65   192
  361     146   142    65   118
  362     216    42    65   118
  363     216   192    65    42
  364     216   142    65    92
  365     118   142    65   216
  366     147   145   194   118
  367      58   213   194    43
  368      42    43   194   213
  369      58    43   194    42
  370      63    64   208   104
  371     217   157   105    63
  372     155   156   208   119
  373     157   120   208    63
  374     158   217   210   164
  375     112   217   196     2
  376      58    43   208    64
  377     119   214   208    64
  378     198   101    99   207
  379     158   163   209   159
  380     165    17     2   114
  381      41   175   183   174
  382     206    98   207   198
  383     153   151   207   212
  384     193   206   207   198
  385     193   212   207   206
  386     193   214   207   212
  387     154   212   207   214
  388       2    17    16   114
  389      63    16   196    15
  390     154   214   207   152
  391     207    98    99   198
  392       1    16    15   196
  393     193   102   207   214
  394     152   214   207   102
  395     150    98   207   206
  396     150   212   207   151
  397     206   212   207   150
  398     119    43   208   120
  399      58    57   208    43
  400      63    57   208    58
  401      44   120   208    43
  402      63   120   208    44
  403      57    44   208    43
  404      63    44   208    57
  405     210   209   196   217
  406      57    63   196    15
  407       2   217   196     1
  408     112   210   110   196
  409     173   182   188    37
  410     210   217   112   162
  411     196   210   110   107
  412       2   162   112   217
  413     107   209   196   210
  414     105   209   196   107
  415      15     1   196    57
  416      63    44   196   217
  417      57    44   196    63
  418       1    44   196    57
  419       1   217   196    44
  420     112   166   162     2
  421      13     3     4   184
  422     113   165   166     2
  423     141    88    89   205
  424      16     2   113   112
  425       2    16   113   114
  426     210   109   111   209
  427     151    98    99   207
  428     107   210   111   209
  429     107   209   111   106
  430     141    88   205   140
  431     209   106   108   111
  432     111   109   108   209
  433      14   184   187     3
  434       1    16   196     2
  435      37   173   187    23
  436      12     3   187     5
  437     185   179   188   178
  438      36    37    23   182
  439      23    37   188   182
  440      22   177    24   190
  441      10    20    25     8
  442      23     5   187    37
  443     188   179   186   174
  444     190   177    24    36
  445      37     5   187   173
  446     188   174   186   182
  447     169    31    24    32
  448     167   169    25    23
  449       8    37   169     9
  450      41    42   183    59
  451      41   174   183    42
  452     188   173   187   184
  453     167    24    19    26
  454     189   191   190   176
  455     190    36    24   182
  456      23    37   169     8
  457      53   177   190   191
  458      36    31   169   168
  459      12    11     8    23
  460      60   189   183   175
  461      36   177    22    38
  462     112   166     2   113
  463      26    32    19    27
  464      24    32    19    26
  465      41    60   183   175
  466     184   178   188   173
  467      27    32    19    21
  468      22    32    19    24
  469      22    21    19    32
  470     147    94    95   194
  471      23    19    20   167
  472     108   161   209   109
  473      13     3   184    14
  474     145    93    65   146
  475     113   165     2   114
  476     131    78   202   130
  477      38    34    31    36
  478      23    19   167    24
# Generated by C:\Users\Ludvig Magnusson\Documents\Programmering\C++\MinecraftOpenGL\MinecraftOpenGL\Meshes\tetgen.exe -n gear.smesh -nn -e 
